{"glyphs":{"0":{"ha":1075,"x_min":56,"x_max":1019,"o":"m 538 972 q 725 934 638 972 q 878 831 813 896 q 981 678 943 765 q 1019 490 1019 590 q 967 274 1019 376 q 824 103 915 171 q 817 98 821 100 q 808 93 813 96 q 680 30 749 51 q 538 8 611 8 q 350 47 438 8 q 197 150 263 85 q 94 303 132 215 q 56 490 56 390 q 93 677 56 589 q 201 835 131 765 q 206 840 204 838 q 211 844 208 842 q 362 940 278 907 q 538 972 446 972 m 801 131 q 937 290 889 194 q 985 490 985 385 q 949 664 985 582 q 853 806 914 746 q 711 902 793 867 q 538 938 629 938 q 375 907 453 938 q 235 818 297 876 q 226 810 229 814 q 125 664 160 746 q 90 490 90 582 q 126 317 90 399 q 222 176 161 236 q 364 80 282 115 q 538 44 446 44 q 669 64 606 44 q 789 122 733 83 q 796 126 793 125 q 801 131 799 128 m 271 614 q 283 624 274 624 q 300 618 293 625 l 618 233 q 621 217 625 225 q 608 206 618 207 q 538 196 578 196 q 423 219 476 196 q 329 282 369 242 q 266 376 289 322 q 243 490 243 429 q 271 614 243 560 m 292 574 q 278 490 278 536 q 298 389 278 436 q 353 306 318 342 q 436 251 389 271 q 538 231 483 231 q 555 231 546 231 q 572 233 564 232 l 292 574 m 538 785 q 652 762 599 785 q 746 699 706 739 q 809 605 786 658 q 832 490 832 551 q 775 317 832 393 q 761 310 771 310 l 761 310 q 747 317 751 310 l 406 729 q 401 744 399 736 q 411 756 404 754 q 538 785 472 785 m 760 357 q 797 490 797 418 q 777 592 797 544 q 722 674 757 639 q 639 730 686 710 q 538 750 592 750 q 447 733 492 750 l 760 357 m 538 879 q 688 849 618 879 q 811 765 758 818 q 894 642 864 713 q 925 490 925 571 q 882 311 925 393 q 765 176 839 229 l 764 176 q 763 175 764 175 q 657 122 714 140 q 538 103 600 103 q 387 133 457 103 q 264 217 317 164 q 181 340 211 269 q 150 490 150 410 q 182 646 150 574 q 269 771 214 718 q 271 772 269 772 l 272 772 q 392 850 325 821 q 538 879 460 879 m 538 138 q 638 152 590 138 q 726 193 686 167 l 281 732 q 210 623 236 685 q 185 490 185 561 q 213 353 185 418 q 288 241 240 289 q 401 165 336 193 q 538 138 465 138 m 756 214 q 854 334 818 263 q 890 490 890 406 q 863 628 890 564 q 787 740 835 692 q 675 815 739 788 q 538 843 611 843 q 412 820 471 843 q 307 757 353 797 l 756 214 z "},"1":{"ha":744,"x_min":49,"x_max":675,"o":"m 564 231 q 642 198 610 231 q 675 119 675 165 q 642 41 675 74 q 564 8 610 8 l 160 8 q 81 41 114 8 q 49 119 49 74 q 81 198 49 165 q 160 231 114 231 l 256 231 l 256 750 l 192 750 q 113 783 146 750 q 81 861 81 815 q 113 940 81 907 q 192 972 146 972 l 367 972 q 445 940 413 972 q 478 861 478 907 l 478 231 l 564 231 m 564 44 q 618 66 596 44 q 640 119 640 88 q 618 174 640 151 q 564 196 596 196 l 460 196 q 443 214 443 196 l 443 861 q 421 915 443 893 q 367 938 399 938 l 192 938 q 138 915 160 938 q 117 861 117 893 q 138 807 117 829 q 192 785 160 785 l 274 785 q 290 767 290 785 l 290 214 q 274 196 290 196 l 160 196 q 106 174 128 196 q 83 119 83 151 q 106 66 83 88 q 160 44 128 44 l 564 44 m 564 138 q 582 119 582 138 q 564 103 582 103 l 160 103 q 142 119 142 103 q 160 138 142 138 l 350 138 l 350 843 l 192 843 q 175 861 175 843 q 192 879 175 879 l 367 879 q 385 861 385 879 l 385 138 l 564 138 z "},"2":{"ha":894,"x_min":35,"x_max":881,"o":"m 838 139 q 813 49 846 86 q 728 8 779 8 l 156 8 q 99 22 125 8 q 58 58 74 35 q 42 139 35 96 q 85 210 49 182 q 244 337 167 271 q 387 466 321 403 q 503 586 453 529 q 578 686 553 643 q 579 724 588 704 q 549 746 571 743 q 483 750 519 750 l 254 750 q 179 776 211 750 q 140 843 147 803 q 165 933 131 894 q 250 972 197 972 l 483 972 q 811 811 758 972 q 464 231 881 603 l 722 231 q 798 205 765 231 q 838 139 831 179 m 786 71 q 803 133 808 99 q 776 178 799 161 q 722 196 753 196 l 417 196 q 401 207 404 196 q 406 226 396 219 q 556 367 481 292 q 687 518 631 442 q 770 667 743 594 q 778 800 797 740 q 483 938 732 938 l 250 938 q 218 931 233 938 q 192 910 203 924 q 175 849 168 885 q 202 803 179 821 q 254 785 225 785 l 483 785 q 553 781 522 785 q 611 739 593 776 q 608 668 629 704 q 531 565 582 624 q 414 442 481 507 q 268 310 347 378 q 106 181 189 243 q 76 133 82 163 q 88 78 71 104 q 117 53 99 63 q 156 44 135 44 l 728 44 q 786 71 763 44 m 728 138 q 746 119 746 138 q 728 103 746 103 l 151 103 q 135 114 139 103 q 140 135 131 125 q 244 215 183 167 q 369 322 304 264 q 497 444 435 381 q 606 567 560 507 q 677 681 653 628 q 689 771 701 733 q 483 843 667 843 l 250 843 q 232 861 232 843 q 250 879 232 879 l 483 879 q 722 782 692 879 q 715 681 738 738 q 647 561 692 624 q 540 435 601 499 q 415 315 478 372 q 297 212 353 258 q 203 138 240 165 l 728 138 z "},"3":{"ha":1057,"x_min":53,"x_max":993,"o":"m 993 676 q 976 578 993 625 q 928 490 960 531 q 976 404 960 451 q 993 306 993 357 q 969 190 993 244 q 906 96 946 136 q 812 32 865 56 q 697 8 758 8 l 164 8 q 85 41 118 8 q 53 119 53 74 q 85 198 53 165 q 164 231 118 231 l 697 231 q 749 252 728 231 q 771 306 771 274 q 749 358 771 336 q 697 379 728 379 l 374 379 q 295 412 328 379 q 263 490 263 444 q 295 569 263 536 q 374 601 328 601 l 697 601 q 749 623 728 601 q 771 676 771 644 q 749 728 771 707 q 697 750 728 750 l 164 750 q 85 783 118 750 q 53 861 53 815 q 85 940 53 907 q 164 972 118 972 l 697 972 q 812 949 758 972 q 906 885 865 925 q 969 791 946 844 q 993 676 993 738 m 958 306 q 892 479 958 404 q 892 503 882 492 q 958 676 958 576 q 938 778 958 731 q 883 860 918 825 q 799 917 847 896 q 697 938 751 938 l 164 938 q 110 915 132 938 q 88 861 88 893 q 110 807 88 829 q 164 785 132 785 l 697 785 q 774 753 742 785 q 806 676 806 721 q 774 599 806 631 q 697 567 742 567 l 374 567 q 320 544 342 567 q 299 490 299 522 q 320 436 299 458 q 374 414 342 414 l 697 414 q 774 382 742 414 q 806 306 806 350 q 774 228 806 260 q 697 196 742 196 l 164 196 q 110 174 132 196 q 88 119 88 151 q 110 66 88 88 q 164 44 132 44 l 697 44 q 799 65 751 44 q 883 122 847 86 q 938 204 918 157 q 958 306 958 251 m 779 490 q 866 417 832 467 q 900 306 900 368 q 884 226 900 264 q 840 162 868 189 q 776 119 813 135 q 697 103 739 103 l 164 103 q 146 119 146 103 q 164 138 146 138 l 697 138 q 762 151 732 138 q 815 187 792 164 q 851 240 838 210 q 864 306 864 271 q 851 371 864 340 q 815 424 838 401 q 762 460 792 447 q 697 474 732 474 l 374 474 q 357 490 357 474 q 374 508 357 508 l 697 508 q 762 522 732 508 q 815 558 792 535 q 851 611 838 581 q 864 676 864 642 q 851 741 864 711 q 815 794 838 771 q 762 830 792 817 q 697 843 732 843 l 164 843 q 146 861 146 843 q 164 879 146 879 l 697 879 q 776 863 739 879 q 840 819 813 847 q 884 755 868 792 q 900 676 900 718 q 866 564 900 614 q 779 490 832 514 z "},"4":{"ha":1131,"x_min":44,"x_max":1086,"o":"m 975 447 q 1054 415 1022 447 q 1086 336 1086 382 q 1054 258 1086 290 q 975 225 1022 225 l 939 225 l 939 119 q 906 41 939 74 q 828 8 874 8 q 749 41 781 8 q 717 119 717 74 l 717 225 l 203 225 q 123 247 160 225 q 65 306 86 268 q 44 385 44 342 q 67 464 44 428 l 339 918 q 407 969 363 957 q 490 957 451 981 q 542 888 531 933 q 529 804 553 842 l 317 447 l 715 447 l 715 861 q 748 940 715 907 q 828 972 781 972 q 906 940 874 972 q 939 861 939 907 l 939 447 l 975 447 m 975 260 q 1029 282 1007 260 q 1051 336 1051 304 q 1029 390 1051 368 q 975 413 1007 413 l 921 413 q 903 429 903 413 l 903 861 q 881 915 903 893 q 826 938 858 938 q 773 915 794 938 q 751 861 751 893 l 751 431 q 733 413 751 413 l 285 413 q 269 421 274 413 q 269 439 265 431 l 499 822 q 507 879 515 849 q 472 926 500 908 q 433 938 454 938 q 415 935 426 938 q 368 900 386 928 l 97 446 q 80 385 81 418 q 96 322 79 351 q 141 276 113 293 q 203 260 169 260 l 733 260 q 751 243 751 260 l 751 119 q 774 66 751 88 q 828 44 796 44 q 881 66 860 44 q 903 119 903 88 l 903 243 q 921 260 903 260 l 975 260 m 975 354 q 993 336 993 354 q 975 319 993 319 l 844 319 l 844 119 q 826 103 844 103 q 810 119 810 103 l 810 319 l 203 319 q 146 351 165 319 q 147 417 128 385 l 418 869 q 443 876 428 885 q 449 851 458 867 l 178 399 q 176 368 169 385 q 203 354 186 354 l 810 354 l 810 861 q 826 879 810 879 q 844 861 844 879 l 844 354 l 976 354 l 975 354 z "},"5":{"ha":975,"x_min":64,"x_max":919,"o":"m 614 622 q 732 598 676 622 q 829 532 788 574 q 895 435 871 490 q 919 315 919 379 q 895 196 919 251 q 829 99 871 140 q 732 33 788 57 q 614 8 676 8 l 175 8 q 97 41 129 8 q 64 119 64 74 q 97 199 64 167 q 175 231 129 231 l 614 231 q 673 256 649 231 q 697 315 697 281 q 673 376 697 351 q 614 400 649 400 l 222 400 q 160 413 189 400 q 110 447 132 425 q 76 497 89 468 q 64 558 64 525 l 64 814 q 76 876 64 847 q 110 926 89 904 q 160 960 132 947 q 222 972 189 972 l 719 972 q 798 940 765 972 q 831 861 831 907 q 798 783 831 815 q 719 750 765 750 l 286 750 l 286 622 l 614 622 m 614 44 q 719 66 669 44 q 805 124 768 88 q 863 210 842 160 q 885 315 885 260 q 863 422 885 372 q 805 508 842 471 q 719 566 768 544 q 614 588 669 588 l 268 588 q 251 606 251 588 l 251 768 q 268 785 251 785 l 719 785 q 774 807 751 785 q 796 861 796 829 q 774 915 796 893 q 719 938 751 938 l 222 938 q 135 901 171 938 q 99 814 99 865 l 99 558 q 135 471 99 507 q 222 435 171 435 l 614 435 q 660 426 639 435 q 698 400 682 417 q 724 362 714 383 q 733 315 733 340 q 724 269 733 290 q 698 231 714 247 q 660 206 682 215 q 614 196 639 196 l 175 196 q 121 174 143 196 q 99 119 99 151 q 121 66 99 88 q 175 44 143 44 l 614 44 m 614 529 q 697 513 658 529 q 764 467 735 496 q 810 399 793 438 q 826 315 826 360 q 810 233 826 272 q 764 165 793 194 q 697 119 735 136 q 614 103 658 103 l 175 103 q 157 119 157 103 q 175 138 157 138 l 614 138 q 683 151 650 138 q 740 190 715 165 q 778 247 764 214 q 792 315 792 279 q 778 385 792 353 q 740 442 764 418 q 683 481 715 467 q 614 494 650 494 l 222 494 q 176 513 194 494 q 157 558 157 531 l 157 814 q 176 860 157 842 q 222 879 194 879 l 719 879 q 738 861 738 879 q 719 843 738 843 l 222 843 q 201 835 210 843 q 193 814 193 826 l 193 558 q 201 538 193 546 q 222 529 210 529 l 614 529 z "},"6":{"ha":1004,"x_min":64,"x_max":954,"o":"m 657 601 q 772 578 718 601 q 867 514 826 554 q 931 420 907 474 q 954 306 954 367 q 931 190 954 244 q 867 96 907 136 q 772 32 826 56 q 657 8 718 8 l 360 8 q 245 32 299 8 q 151 96 192 56 q 88 190 111 136 q 64 306 64 244 l 64 676 q 88 791 64 738 q 151 885 111 844 q 245 949 192 925 q 360 972 299 972 l 693 972 q 773 940 740 972 q 806 861 806 907 q 773 783 806 815 q 693 750 740 750 l 360 750 q 308 728 329 750 q 286 676 286 707 l 286 601 l 657 601 m 657 44 q 759 65 711 44 q 842 122 807 86 q 898 204 878 157 q 918 306 918 251 q 898 408 918 360 q 842 491 878 456 q 759 547 807 526 q 657 567 711 567 l 268 567 q 251 585 251 567 l 251 676 q 283 753 251 721 q 360 785 315 785 l 693 785 q 747 807 725 785 q 769 861 769 829 q 747 915 769 893 q 693 938 725 938 l 360 938 q 258 917 306 938 q 176 860 211 896 q 119 778 140 825 q 99 676 99 731 l 99 306 q 119 204 99 251 q 176 122 140 157 q 258 65 211 86 q 360 44 306 44 l 657 44 m 657 414 q 735 382 703 414 q 767 306 767 350 q 735 228 767 260 q 657 196 703 196 l 360 196 q 283 228 315 196 q 251 306 251 260 l 251 397 q 268 414 251 414 l 657 414 m 657 231 q 710 252 689 231 q 732 306 732 274 q 710 358 732 336 q 657 379 689 379 l 286 379 l 286 306 q 308 252 286 274 q 360 231 329 231 l 657 231 m 657 508 q 736 492 699 508 q 801 449 774 476 q 844 384 828 421 q 860 306 860 347 q 844 226 860 264 q 801 162 828 189 q 736 119 774 135 q 657 103 699 103 l 360 103 q 281 119 318 103 q 217 162 244 135 q 173 226 189 189 q 157 306 157 264 l 157 676 q 173 755 157 718 q 217 819 189 792 q 281 863 244 847 q 360 879 318 879 l 693 879 q 711 861 711 879 q 693 843 711 843 l 360 843 q 295 830 325 843 q 242 794 265 817 q 206 741 219 771 q 193 676 193 711 l 193 508 l 657 508 m 657 138 q 722 151 692 138 q 776 187 753 164 q 812 240 799 210 q 825 306 825 271 q 812 371 825 340 q 776 424 799 401 q 722 460 753 447 q 657 474 692 474 l 193 474 l 193 306 q 206 240 193 271 q 242 187 219 210 q 295 151 265 164 q 360 138 325 138 l 657 138 z "},"7":{"ha":953,"x_min":69,"x_max":936,"o":"m 906 917 q 906 806 936 861 l 482 65 q 441 24 467 39 q 385 8 415 8 q 331 24 357 8 q 278 91 290 47 q 289 175 265 135 l 618 750 l 181 750 q 102 783 135 750 q 69 861 69 815 q 102 940 69 907 q 181 972 135 972 l 810 972 q 865 958 839 972 q 906 917 890 943 m 875 824 q 875 899 897 863 q 847 927 865 917 q 810 938 829 938 l 181 938 q 126 915 149 938 q 104 861 104 893 q 126 807 104 829 q 181 785 149 785 l 649 785 q 664 776 658 785 q 664 758 668 768 l 319 158 q 312 100 304 131 q 347 54 319 69 q 406 47 375 39 q 451 82 436 56 l 875 824 m 810 879 q 825 869 821 879 q 825 853 829 861 l 400 111 q 385 103 396 103 q 376 104 379 103 q 369 129 363 114 l 779 843 l 181 843 q 163 861 163 843 q 181 879 163 879 l 810 879 z "},"8":{"ha":1056,"x_min":57,"x_max":997,"o":"m 400 567 q 359 575 379 567 q 324 599 339 583 q 292 676 292 631 q 324 753 292 721 q 400 785 356 785 l 654 785 q 731 753 699 785 q 764 676 764 721 q 731 599 764 632 q 654 567 701 567 l 400 567 m 326 676 q 347 624 326 644 q 400 601 369 601 l 654 601 q 706 622 685 601 q 728 676 728 644 q 706 728 728 707 q 654 750 685 750 l 400 750 q 348 728 369 750 q 326 676 326 707 m 906 519 q 974 422 950 478 q 997 306 997 367 q 975 192 997 246 q 911 96 953 138 q 711 10 829 13 q 701 8 710 8 l 354 8 q 342 10 346 8 q 235 33 286 11 q 143 96 183 56 q 79 192 101 138 q 57 306 57 246 q 81 422 57 367 q 149 519 104 478 q 104 676 104 592 q 126 789 104 736 q 187 882 149 842 q 278 947 225 922 q 390 972 331 971 l 400 972 l 654 972 q 667 971 663 972 q 778 946 726 969 q 867 882 829 922 q 928 789 906 842 q 950 676 950 736 q 906 519 950 592 m 886 121 q 942 205 922 157 q 963 306 963 253 q 939 415 963 364 q 871 503 915 467 q 865 514 865 507 q 868 526 864 521 q 915 676 915 594 q 896 775 915 729 q 842 856 876 821 q 761 913 807 892 q 663 936 715 935 q 654 938 658 938 l 400 938 q 393 936 396 938 q 293 914 339 935 q 213 858 247 893 q 158 776 178 822 q 139 676 139 729 q 186 526 139 594 q 190 514 190 521 q 183 503 189 507 q 115 415 139 467 q 92 306 92 364 q 112 205 92 253 q 168 121 132 157 q 249 66 203 86 q 344 44 294 46 l 353 44 l 701 44 q 707 44 707 44 q 805 65 760 46 q 886 121 850 85 m 701 414 q 778 382 746 414 q 810 306 810 350 q 778 228 810 260 l 778 228 q 701 196 746 196 l 354 196 q 276 228 308 196 q 244 306 244 263 q 276 382 244 350 q 354 414 308 414 l 701 414 m 753 251 q 775 306 775 275 q 753 358 775 336 q 701 379 732 379 l 354 379 q 301 358 322 379 q 279 306 279 336 q 301 253 279 275 q 354 231 324 231 l 701 231 q 753 251 729 231 m 754 500 q 862 429 819 482 q 904 306 904 376 q 889 228 904 265 q 844 163 874 190 q 779 118 817 133 q 701 103 742 103 l 354 103 q 276 118 314 103 q 210 163 238 133 q 166 228 182 190 q 150 306 150 265 q 192 429 150 376 q 300 500 235 482 q 278 515 289 507 q 257 532 267 522 q 197 676 197 592 q 213 755 197 718 q 257 819 229 792 q 322 862 285 846 q 400 878 358 878 l 654 878 q 733 862 696 878 q 798 819 771 846 q 841 755 825 792 q 857 676 857 718 q 797 532 857 592 q 776 515 788 522 q 754 500 765 507 m 282 557 q 336 521 306 533 q 400 508 367 508 l 654 508 q 772 557 726 508 q 822 676 822 607 q 809 741 822 711 q 773 794 796 771 q 719 830 750 817 q 654 843 689 843 l 400 843 q 335 830 365 843 q 281 794 304 817 q 245 741 258 771 q 232 676 232 711 q 282 557 232 607 m 819 186 q 856 241 843 210 q 868 306 868 272 q 855 371 868 340 q 819 424 842 401 q 766 460 796 447 q 701 474 736 474 l 354 474 q 289 460 319 474 q 235 424 258 447 q 199 371 213 401 q 186 306 186 340 q 199 241 186 272 q 235 186 211 210 q 354 138 283 138 l 701 138 q 765 150 735 138 q 819 186 796 163 z "},"9":{"ha":1004,"x_min":50,"x_max":940,"o":"m 643 785 q 721 753 689 785 q 753 676 753 721 l 753 585 q 735 567 753 567 l 346 567 q 269 599 301 567 q 238 676 238 631 q 269 753 238 721 q 346 785 301 785 l 643 785 m 718 676 q 697 728 718 707 q 643 750 675 750 l 346 750 q 294 728 315 750 q 272 676 272 707 q 294 623 272 644 q 346 601 315 601 l 718 601 l 718 676 m 643 972 q 758 949 704 972 q 853 885 813 925 q 917 791 893 844 q 940 676 940 738 l 940 306 q 917 190 940 244 q 853 96 893 136 q 758 32 813 56 q 643 8 704 8 l 310 8 q 231 41 264 8 q 199 119 199 74 q 231 199 199 167 q 310 231 264 231 l 643 231 q 697 252 675 231 q 718 306 718 274 l 718 379 l 346 379 q 231 403 285 379 q 138 467 178 426 q 74 561 97 507 q 50 676 50 615 q 74 791 50 738 q 138 885 97 844 q 231 949 178 925 q 346 972 285 972 l 643 972 m 904 676 q 884 778 904 731 q 828 860 864 825 q 745 917 793 896 q 643 938 697 938 l 346 938 q 244 917 292 938 q 162 860 197 896 q 106 778 126 825 q 85 676 85 731 q 106 574 85 622 q 162 491 126 526 q 244 435 197 456 q 346 414 292 414 l 735 414 q 753 397 753 414 l 753 306 q 721 228 753 260 q 643 196 689 196 l 310 196 q 256 174 278 196 q 233 119 233 151 q 256 66 233 88 q 310 44 278 44 l 643 44 q 745 65 697 44 q 828 122 793 86 q 884 204 864 157 q 904 306 904 251 l 904 676 m 643 879 q 722 863 685 879 q 787 819 760 847 q 830 755 814 792 q 846 676 846 718 l 846 306 q 830 226 846 264 q 787 162 814 189 q 722 119 760 135 q 643 103 685 103 l 310 103 q 293 119 293 103 q 310 138 293 138 l 643 138 q 708 151 678 138 q 762 187 739 164 q 798 240 785 210 q 811 306 811 271 l 811 474 l 346 474 q 267 490 304 474 q 203 533 231 506 q 159 597 175 560 q 143 676 143 635 q 159 755 143 718 q 203 819 175 792 q 267 863 231 847 q 346 879 304 879 l 643 879 m 811 676 q 798 741 811 711 q 762 794 785 771 q 708 830 739 817 q 643 843 678 843 l 346 843 q 281 830 311 843 q 228 794 251 817 q 192 741 206 771 q 179 676 179 711 q 192 611 179 642 q 228 558 206 581 q 281 522 251 535 q 346 508 311 508 l 811 508 l 811 676 z "},"\u0000":{"ha":0,"x_min":0,"x_max":0,"o":""},"\r":{"ha":347,"x_min":0,"x_max":0,"o":""}," ":{"ha":347,"x_min":0,"x_max":0,"o":""},"!":{"ha":360,"x_min":68,"x_max":290,"o":"m 290 303 q 256 222 290 254 q 290 140 290 190 l 290 119 q 258 41 290 74 q 179 8 225 8 q 101 41 133 8 q 68 119 68 74 l 68 140 q 103 222 68 190 q 68 303 68 254 l 68 861 q 101 940 68 907 q 179 972 133 972 q 258 940 225 972 q 290 861 290 907 l 290 303 m 256 861 q 233 915 256 893 q 179 938 211 938 q 125 915 147 938 q 103 861 103 893 l 103 303 q 113 265 103 282 q 140 236 124 247 q 150 221 150 232 q 140 206 150 213 q 113 178 124 196 q 103 140 103 161 l 103 119 q 125 66 103 88 q 179 44 147 44 q 233 66 211 44 q 256 119 256 88 l 256 140 q 246 178 256 161 q 218 206 236 196 q 208 221 208 213 q 218 236 208 232 q 245 265 235 247 q 256 303 256 282 l 256 861 m 179 879 q 197 861 197 879 l 197 303 q 179 285 197 285 q 161 303 161 285 l 161 861 q 179 879 161 879 m 179 158 q 197 142 197 158 l 197 119 q 179 103 197 103 q 161 119 161 103 l 161 142 q 179 158 161 158 z "},"\"":{"ha":454,"x_min":50,"x_max":404,"o":"m 161 879 q 179 861 179 879 l 179 776 q 161 758 179 758 q 143 776 143 758 l 143 861 q 161 879 143 879 m 293 972 q 372 940 339 972 q 404 861 404 907 l 404 776 q 372 698 404 731 q 293 665 339 665 q 226 686 256 665 q 161 665 200 665 q 83 698 115 665 q 50 776 50 731 l 50 861 q 83 940 50 907 q 161 972 115 972 q 226 950 197 972 q 293 972 257 972 m 369 861 q 347 915 369 893 q 293 938 325 938 q 239 915 264 938 q 227 910 235 910 q 214 915 219 910 q 161 938 192 938 q 107 915 129 938 q 85 861 85 893 l 85 776 q 107 722 85 744 q 161 700 129 700 q 214 722 192 700 q 226 728 222 728 q 239 722 233 728 q 293 700 264 700 q 347 722 325 700 q 369 776 369 744 l 369 861 m 293 879 q 311 861 311 879 l 311 776 q 293 758 311 758 q 275 776 275 758 l 275 861 q 293 879 275 879 z "},"#":{"ha":1078,"x_min":57,"x_max":1021,"o":"m 429 364 q 411 382 411 364 l 411 600 q 429 617 411 617 l 647 617 q 665 600 665 617 l 665 382 q 647 364 665 364 l 429 364 m 447 399 l 631 399 l 631 582 l 447 582 l 447 399 m 910 399 q 988 366 956 399 q 1021 288 1021 333 q 988 209 1021 242 q 910 176 956 176 l 853 176 l 853 119 q 820 41 853 74 q 742 8 788 8 q 663 41 694 8 q 631 119 631 74 l 631 176 l 447 176 l 447 119 q 415 41 447 74 q 336 8 382 8 q 258 41 290 8 q 225 119 225 74 l 225 176 l 168 176 q 90 209 122 176 q 57 288 57 242 q 90 366 57 333 q 168 399 122 399 l 225 399 l 225 582 l 168 582 q 90 615 122 582 q 57 693 57 647 q 90 772 57 739 q 168 804 122 804 l 225 804 l 225 861 q 258 940 225 907 q 336 972 290 972 q 415 940 382 972 q 447 861 447 907 l 447 804 l 631 804 l 631 861 q 663 940 631 907 q 742 972 694 972 q 820 940 788 972 q 853 861 853 907 l 853 804 l 910 804 q 988 772 956 804 q 1021 693 1021 739 q 988 615 1021 647 q 910 582 956 582 l 853 582 l 853 399 l 910 399 m 910 213 q 963 234 942 213 q 985 288 985 256 q 963 342 985 319 q 910 364 942 364 l 835 364 q 817 382 817 364 l 817 600 q 835 617 817 617 l 910 617 q 963 639 942 617 q 985 693 985 661 q 963 747 985 725 q 910 769 942 769 l 835 769 q 817 788 817 769 l 817 861 q 795 915 817 893 q 742 938 774 938 q 688 915 710 938 q 665 861 665 893 l 665 788 q 647 769 665 769 l 429 769 q 411 788 411 769 l 411 861 q 390 915 411 893 q 336 938 368 938 q 282 915 304 938 q 260 861 260 893 l 260 788 q 242 769 260 769 l 168 769 q 114 747 136 769 q 92 693 92 725 q 114 639 92 661 q 168 617 136 617 l 242 617 q 260 600 260 617 l 260 382 q 242 364 260 364 l 168 364 q 114 342 136 364 q 92 288 92 319 q 114 234 92 256 q 168 213 136 213 l 242 213 q 260 194 260 213 l 260 119 q 282 66 260 88 q 336 44 304 44 q 390 66 368 44 q 411 119 411 88 l 411 194 q 429 213 411 213 l 647 213 q 665 194 665 213 l 665 119 q 688 66 665 88 q 742 44 710 44 q 795 66 774 44 q 817 119 817 88 l 817 194 q 835 213 817 213 l 910 213 m 910 306 q 922 300 917 306 q 926 288 926 294 q 922 276 926 281 q 910 271 917 271 l 758 271 l 758 119 q 742 103 758 103 q 724 119 724 103 l 724 271 l 353 271 l 353 119 q 336 103 353 103 q 318 119 318 103 l 318 271 l 168 271 q 150 288 150 271 q 168 306 150 306 l 318 306 l 318 675 l 168 675 q 150 693 150 675 q 168 711 150 711 l 318 711 l 318 861 q 336 879 318 879 q 353 861 353 879 l 353 711 l 724 711 l 724 861 q 742 879 724 879 q 758 861 758 879 l 758 711 l 910 711 q 922 706 917 711 q 926 693 926 700 q 922 681 926 686 q 910 675 917 675 l 758 675 l 758 306 l 910 306 m 724 675 l 353 675 l 353 306 l 724 306 l 724 675 z "},"$":{"ha":1000,"x_min":58,"x_max":942,"o":"m 246 608 q 258 638 246 625 q 288 650 269 650 l 407 650 q 424 632 424 650 l 424 585 q 407 567 424 567 l 288 567 q 258 578 269 567 q 246 608 246 590 m 288 614 q 281 608 281 614 q 288 601 281 601 l 389 601 l 389 614 l 288 614 m 713 414 q 742 402 731 414 q 754 372 754 390 q 742 343 754 356 q 713 331 731 331 l 593 331 q 576 349 576 331 l 576 397 q 593 414 576 414 l 713 414 m 713 367 q 719 372 719 367 q 713 379 719 379 l 611 379 l 611 367 l 713 367 m 713 601 q 801 583 760 601 q 874 534 843 565 q 924 461 906 503 q 942 372 942 419 q 924 284 942 325 q 874 212 906 243 q 801 163 843 181 q 713 144 760 144 l 611 144 l 611 119 q 578 41 611 74 q 500 8 546 8 q 422 41 454 8 q 389 119 389 74 l 389 144 l 169 144 q 91 177 124 144 q 58 256 58 210 q 91 334 58 301 q 169 367 124 367 l 389 367 l 389 379 l 288 379 q 199 397 240 379 q 126 447 157 415 q 76 519 94 478 q 58 608 58 561 q 76 697 58 656 q 126 770 94 739 q 199 819 157 801 q 288 838 240 838 l 389 838 l 389 861 q 422 940 389 907 q 500 972 454 972 q 578 940 546 972 q 611 861 611 907 l 611 838 l 831 838 q 909 805 876 838 q 942 725 942 772 q 909 647 942 679 q 831 614 876 614 l 611 614 l 611 601 l 713 601 m 713 179 q 788 194 753 179 q 850 235 824 210 q 892 297 876 261 q 907 372 907 332 q 892 448 907 413 q 850 510 876 483 q 788 551 824 536 q 713 567 753 567 l 593 567 q 576 585 576 567 l 576 632 q 593 650 576 650 l 831 650 q 885 672 863 650 q 907 725 907 693 q 885 779 907 757 q 831 801 863 801 l 593 801 q 576 819 576 801 l 576 861 q 554 915 576 893 q 500 938 532 938 q 446 915 468 938 q 424 861 424 893 l 424 819 q 407 801 424 801 l 288 801 q 212 786 247 801 q 150 745 176 771 q 108 684 124 719 q 93 608 93 649 q 108 533 93 568 q 150 471 124 497 q 212 429 176 444 q 288 414 247 414 l 407 414 q 424 397 424 414 l 424 349 q 407 331 424 331 l 169 331 q 115 309 138 331 q 93 256 93 288 q 115 201 93 224 q 169 179 138 179 l 407 179 q 424 161 424 179 l 424 119 q 446 66 424 88 q 500 44 468 44 q 554 66 532 44 q 576 119 576 88 l 576 161 q 593 179 576 179 l 713 179 m 713 508 q 809 469 769 508 q 849 372 849 429 q 838 320 849 344 q 809 277 828 296 q 765 248 790 258 q 713 238 740 238 l 518 238 l 518 119 q 500 103 518 103 q 482 119 482 103 l 482 238 l 169 238 q 153 256 153 238 q 169 272 153 272 l 482 272 l 482 474 l 288 474 q 192 513 231 474 q 153 608 153 551 q 192 704 153 665 q 288 743 231 743 l 482 743 l 482 861 q 500 879 482 879 q 518 861 518 879 l 518 743 l 831 743 q 849 726 849 743 q 831 708 849 708 l 518 708 l 518 508 l 713 508 m 482 708 l 288 708 q 217 679 246 708 q 188 608 188 650 q 217 538 188 567 q 288 508 246 508 l 482 508 l 482 708 m 713 272 q 783 302 754 272 q 813 372 813 332 q 783 444 813 414 q 713 474 754 474 l 518 474 l 518 272 l 713 272 z "},"%":{"ha":1036,"x_min":56,"x_max":979,"o":"m 276 536 q 191 553 231 536 q 122 601 151 571 q 76 670 93 631 q 58 754 58 710 q 76 840 58 800 q 122 908 93 879 q 191 955 151 938 q 276 972 231 972 q 360 955 321 972 q 430 908 400 938 q 477 840 460 879 q 494 754 494 800 q 477 670 494 710 q 430 601 460 631 q 360 553 400 571 q 276 536 321 536 m 276 938 q 206 923 239 938 q 147 883 172 908 q 108 825 122 858 q 93 754 93 792 q 108 683 93 717 q 147 626 122 650 q 206 587 172 601 q 276 572 239 572 q 347 587 314 572 q 405 626 381 601 q 444 683 429 650 q 458 754 458 717 q 444 825 458 792 q 405 883 429 858 q 347 923 381 908 q 276 938 314 938 m 276 631 q 188 667 225 631 q 151 754 151 703 q 188 842 151 806 q 276 879 225 879 q 364 842 328 879 q 400 754 400 806 q 364 667 400 703 q 276 631 328 631 m 276 843 q 214 817 240 843 q 188 754 188 790 q 213 692 188 718 q 276 665 239 665 q 339 692 313 665 q 365 754 365 718 q 339 817 365 792 q 276 843 313 843 m 276 724 q 255 733 264 724 q 246 754 246 742 q 255 776 246 767 q 276 785 264 785 q 298 776 289 785 q 307 754 307 767 q 298 733 307 742 q 276 724 289 724 m 276 758 q 272 754 272 758 q 276 751 272 751 q 281 754 281 751 q 276 758 281 758 m 758 444 q 844 427 804 444 q 913 381 883 410 q 959 312 942 351 q 976 226 976 272 q 959 142 976 182 q 913 73 942 103 q 844 26 883 43 q 758 8 804 8 q 674 26 714 8 q 605 73 635 43 q 558 142 575 103 q 540 226 540 182 q 558 312 540 272 q 605 381 575 351 q 674 427 635 410 q 758 444 714 444 m 758 44 q 829 59 796 44 q 888 98 863 74 q 927 156 913 122 q 942 226 942 189 q 927 297 942 264 q 888 356 913 331 q 829 395 863 381 q 758 410 796 410 q 688 395 721 410 q 630 356 654 381 q 591 297 606 331 q 576 226 576 264 q 591 156 576 189 q 630 98 606 122 q 688 59 654 74 q 758 44 721 44 m 758 351 q 847 315 811 351 q 883 226 883 278 q 847 139 883 175 q 758 103 811 103 q 671 139 707 103 q 635 226 635 175 q 671 315 635 279 q 758 351 707 351 m 758 138 q 822 164 796 138 q 847 226 847 190 q 822 290 847 264 q 758 315 796 315 q 696 290 722 315 q 669 226 669 264 q 696 164 669 190 q 758 138 722 138 m 758 257 q 780 248 771 257 q 789 226 789 239 q 780 205 789 214 q 758 196 771 196 q 737 205 746 196 q 728 226 728 214 q 737 248 728 239 q 758 257 746 257 m 754 226 q 758 224 754 224 q 763 226 763 224 q 758 231 763 231 q 754 226 754 231 m 976 864 q 946 785 979 819 l 250 44 q 169 8 217 8 q 93 39 126 8 q 58 117 61 71 q 89 196 56 163 l 785 938 q 820 963 800 954 q 862 972 840 971 q 904 965 883 972 q 942 942 925 957 q 976 864 974 911 m 921 808 q 942 864 942 832 q 918 917 939 896 q 865 938 896 938 q 810 913 833 938 l 114 172 q 93 118 93 150 q 118 64 96 85 q 172 44 140 43 q 225 68 204 46 l 921 808 m 853 874 q 878 874 865 886 q 878 849 890 861 l 182 108 q 169 103 178 103 q 157 107 164 103 q 157 132 144 119 l 853 874 z "},"&":{"ha":1065,"x_min":54,"x_max":1021,"o":"m 579 260 q 585 244 586 253 q 576 231 585 235 q 454 196 511 196 q 298 240 354 196 q 242 361 242 283 q 259 447 242 411 q 307 499 276 483 q 326 496 319 503 l 579 260 m 454 231 q 538 250 494 231 l 522 265 l 522 265 q 442 339 478 306 q 376 401 406 372 l 313 461 q 276 361 276 432 q 295 294 276 319 q 341 254 314 268 q 399 235 368 240 q 454 231 429 231 m 983 138 q 1018 61 1018 107 q 989 -19 1021 14 q 907 -54 954 -54 q 832 -25 864 -54 l 707 92 q 582 30 644 51 q 454 8 519 8 q 275 39 350 8 q 151 119 200 69 q 78 233 101 169 q 54 361 54 296 q 87 520 54 449 q 178 636 119 592 q 156 692 158 672 q 153 722 153 711 q 172 819 153 774 q 226 899 192 865 q 306 953 260 933 q 403 972 351 972 l 719 972 q 799 940 767 972 q 831 861 831 907 q 799 783 831 815 q 719 750 767 750 l 403 750 q 378 733 385 750 q 438 659 393 708 q 546 547 483 610 l 551 542 l 671 431 l 708 396 q 747 447 732 424 q 768 481 761 469 q 809 523 783 508 q 865 538 835 538 q 919 524 896 538 q 972 457 960 503 q 963 372 985 415 q 939 335 953 354 q 911 294 928 317 q 871 243 894 271 l 983 138 m 964 6 q 983 60 986 28 q 960 113 983 89 l 960 113 l 835 229 q 829 240 829 233 q 833 253 829 247 q 875 305 857 281 q 906 349 893 329 q 932 389 921 371 q 939 449 947 417 q 903 493 931 476 q 844 500 875 508 q 799 464 814 492 q 770 420 789 449 q 724 358 751 392 q 711 353 715 353 q 697 357 706 351 l 647 404 q 624 426 636 415 q 599 449 611 438 q 563 483 581 465 q 526 517 544 500 l 521 522 q 478 565 504 539 q 425 621 451 592 q 376 678 399 650 q 343 724 353 706 q 342 735 339 728 q 363 771 346 757 q 403 785 379 785 l 719 785 q 774 807 751 785 q 796 861 796 829 q 774 915 796 893 q 719 938 751 938 l 403 938 q 319 920 358 938 q 250 874 279 903 q 204 806 221 844 q 188 722 188 767 q 191 694 188 713 q 217 640 194 676 q 219 628 219 635 q 211 617 218 621 q 121 512 153 579 q 89 361 89 444 q 110 244 89 301 q 177 143 132 188 q 291 72 222 99 q 454 44 360 44 q 699 129 579 44 q 708 132 701 132 q 721 128 717 132 l 856 1 q 910 -19 878 -19 q 964 6 942 -18 m 919 69 q 921 44 932 57 q 907 39 913 39 q 896 44 900 39 l 714 214 q 596 135 661 168 q 454 103 531 103 q 328 121 385 103 q 231 173 271 139 q 169 255 190 207 q 147 361 147 303 q 196 523 147 458 q 321 597 244 588 q 267 669 288 636 q 246 722 246 703 q 258 783 246 754 q 292 833 271 811 q 341 867 313 854 q 403 879 369 879 l 719 879 q 738 861 738 879 q 719 843 738 843 l 403 843 q 316 808 351 843 q 281 722 281 772 q 298 683 281 710 q 344 623 315 657 q 412 550 374 589 q 490 471 450 511 l 714 263 q 770 324 746 293 q 813 378 794 354 q 840 419 831 403 q 850 436 850 435 q 860 444 853 443 q 874 442 867 446 q 882 432 881 439 q 881 418 883 425 q 869 399 879 415 q 840 356 858 382 q 797 300 822 331 q 739 238 771 269 l 919 69 m 454 138 q 580 167 521 138 q 688 239 639 197 l 585 335 q 533 382 569 350 q 456 456 497 414 l 338 565 q 276 548 304 564 q 226 505 247 532 q 194 441 206 478 q 183 361 183 404 q 256 197 183 257 q 454 138 328 138 z "},"'":{"ha":324,"x_min":50,"x_max":272,"o":"m 161 972 q 240 940 207 972 q 272 861 272 907 l 272 776 q 240 698 272 731 q 161 665 207 665 q 83 698 115 665 q 50 776 50 731 l 50 861 q 83 940 50 907 q 161 972 115 972 m 238 861 q 215 915 238 893 q 161 938 193 938 q 107 915 129 938 q 85 861 85 893 l 85 776 q 107 722 85 744 q 161 700 129 700 q 215 722 193 700 q 238 776 238 744 l 238 861 m 161 879 q 179 861 179 879 l 179 776 q 161 758 179 758 q 143 776 143 758 l 143 861 q 161 879 143 879 z "},"(":{"ha":492,"x_min":58,"x_max":446,"o":"m 433 150 q 422 65 444 104 q 381 24 407 39 q 326 8 356 8 q 271 24 297 8 q 253 36 269 25 q 213 71 236 47 q 162 131 189 94 q 112 218 135 167 q 74 338 89 269 q 58 490 58 406 q 90 708 58 619 q 161 851 122 796 q 234 931 200 906 q 271 958 268 957 q 313 972 292 969 q 356 968 335 974 q 394 949 376 963 q 422 915 411 936 q 434 833 446 876 q 382 765 422 789 q 365 750 381 764 q 330 704 349 736 q 296 620 311 672 q 281 490 281 568 q 297 361 281 414 q 331 276 313 308 q 366 231 350 244 q 382 217 382 217 q 414 188 401 206 q 433 150 426 171 m 392 82 q 399 140 408 108 q 364 186 390 171 q 345 201 364 186 q 304 252 326 217 q 264 346 282 288 q 246 490 246 404 q 263 631 246 574 q 300 723 279 688 q 340 776 321 758 q 364 796 360 793 q 399 841 392 811 q 392 899 407 871 q 326 938 369 938 q 289 928 308 938 q 255 903 286 926 q 188 828 224 879 q 122 694 151 778 q 93 490 93 611 q 122 287 93 369 q 188 153 151 204 q 255 78 224 101 q 289 54 286 56 q 346 47 315 39 q 392 82 376 56 m 335 135 q 343 125 342 132 q 342 111 344 118 q 326 103 336 103 q 317 104 319 103 q 289 126 315 106 q 232 190 263 146 q 176 308 201 235 q 151 490 151 382 q 176 672 151 599 q 232 790 201 746 q 289 855 263 835 q 317 876 315 875 q 342 869 332 885 q 343 856 344 863 q 335 846 342 849 q 311 828 335 846 q 260 768 288 810 q 210 658 233 726 q 188 490 188 590 q 210 322 188 390 q 260 213 233 254 q 311 153 288 171 q 335 135 335 135 z "},")":{"ha":492,"x_min":46,"x_max":433,"o":"m 219 958 q 257 931 224 957 q 330 851 290 906 q 401 708 369 796 q 433 490 433 619 q 418 338 433 406 q 380 218 403 269 q 330 131 357 167 q 279 71 303 94 q 239 36 256 47 q 221 24 222 25 q 165 8 193 8 q 109 24 135 8 q 68 65 83 39 q 58 149 46 106 q 111 217 71 193 q 128 232 113 218 q 162 278 143 246 q 196 362 181 310 q 211 490 211 414 q 196 621 211 568 q 162 705 181 674 q 126 750 143 736 q 108 765 110 764 q 58 835 69 790 q 71 918 47 879 q 138 969 94 957 q 219 958 181 981 m 203 54 q 237 78 206 56 q 303 153 268 101 q 368 287 339 204 q 397 490 397 369 q 368 694 397 611 q 303 828 339 776 q 237 903 268 879 q 203 928 206 926 q 167 938 183 938 q 101 900 124 938 q 93 842 86 872 q 126 796 100 813 q 148 778 129 794 q 188 727 167 763 q 228 634 210 692 q 246 490 246 576 q 229 351 246 407 q 192 259 213 294 q 152 206 171 224 q 129 186 133 189 q 92 140 101 171 q 99 82 83 110 q 144 47 114 56 q 203 54 175 39 m 174 876 q 203 855 176 875 q 259 790 229 835 q 314 672 289 746 q 339 490 339 599 q 314 308 339 382 q 259 190 289 235 q 203 126 229 146 q 174 104 176 106 q 165 103 171 103 q 150 111 154 103 q 149 125 147 118 q 157 135 150 132 q 181 153 157 135 q 231 213 204 171 q 281 322 258 254 q 304 490 304 390 q 281 658 304 590 q 231 768 258 726 q 181 828 204 810 q 157 846 157 846 q 149 856 150 849 q 150 869 147 863 q 174 876 160 883 z "},"*":{"ha":625,"x_min":51,"x_max":572,"o":"m 528 692 q 555 658 544 676 q 568 617 565 639 q 543 535 572 572 q 484 499 519 507 q 417 501 449 490 q 377 448 406 469 q 313 426 349 426 q 247 448 276 426 q 207 501 218 469 q 140 498 175 489 q 81 535 104 507 q 56 617 51 572 q 69 658 58 639 q 96 692 79 676 l 138 725 l 96 760 q 56 835 60 790 q 82 917 51 881 q 140 953 106 944 q 207 950 174 963 q 247 1004 218 983 q 313 1025 275 1025 q 377 1004 349 1025 q 417 950 406 983 q 485 953 450 963 q 543 917 519 944 q 568 835 572 881 q 528 760 564 790 l 486 725 l 528 692 m 515 557 q 532 613 536 582 q 506 664 529 644 l 447 713 q 440 725 440 717 q 447 739 440 735 l 506 788 q 532 839 529 807 q 515 894 535 871 q 467 922 496 918 q 415 910 439 925 q 397 908 407 904 q 388 922 390 910 q 363 971 385 951 q 313 990 342 990 q 260 971 282 990 q 236 921 239 951 q 226 907 236 913 q 208 908 219 903 q 156 922 185 925 q 108 894 128 918 q 90 839 88 872 q 118 788 94 807 l 176 739 q 182 725 182 735 q 176 713 182 717 l 118 664 q 90 613 94 644 q 108 557 88 582 q 156 531 126 535 q 208 543 186 528 q 219 546 214 546 q 226 544 224 546 q 236 531 236 540 q 260 481 239 501 q 313 461 282 461 q 363 481 342 461 q 388 531 385 501 q 397 544 390 540 q 415 543 406 549 q 467 531 438 528 q 515 557 496 535 m 468 619 q 471 594 481 610 q 457 589 465 589 q 446 593 450 589 l 329 689 l 329 538 q 313 519 329 519 q 294 538 294 519 l 294 689 l 178 593 q 167 589 174 589 q 153 594 158 589 q 156 619 143 610 l 285 726 l 156 832 q 153 857 143 844 q 165 864 158 864 q 178 860 172 864 l 294 764 l 294 914 q 313 932 294 932 q 329 914 329 932 l 329 764 l 446 860 q 458 864 451 864 q 471 857 465 864 q 468 832 481 844 l 339 726 l 468 619 z "},"+":{"ha":732,"x_min":46,"x_max":685,"o":"m 574 553 q 652 520 619 553 q 685 442 685 488 q 652 362 685 394 q 574 329 619 329 l 476 329 l 476 232 q 444 153 476 186 q 365 121 411 121 q 287 153 319 121 q 254 232 254 186 l 254 329 l 157 329 q 78 362 111 329 q 46 442 46 394 q 78 520 46 488 q 157 553 111 553 l 254 553 l 254 650 q 287 728 254 696 q 365 761 319 761 q 444 728 411 761 q 476 650 476 696 l 476 553 l 574 553 m 574 365 q 628 388 606 365 q 650 442 650 410 q 628 495 650 474 q 574 517 606 517 l 458 517 q 442 535 442 517 l 442 650 q 419 703 442 682 q 365 725 397 725 q 311 703 333 725 q 289 650 289 682 l 289 535 q 272 517 289 517 l 157 517 q 103 495 125 517 q 81 442 81 474 q 103 388 81 410 q 157 365 125 365 l 272 365 q 289 347 289 365 l 289 232 q 311 178 289 200 q 365 156 333 156 q 419 178 397 156 q 442 232 442 200 l 442 347 q 458 365 442 365 l 574 365 m 574 458 q 592 440 592 458 q 574 424 592 424 l 383 424 l 383 232 q 365 215 383 215 q 347 232 347 215 l 347 424 l 157 424 q 139 440 139 424 q 157 458 139 458 l 347 458 l 347 650 q 365 667 347 667 q 383 650 383 667 l 383 458 l 574 458 z "},",":{"ha":364,"x_min":38,"x_max":317,"o":"m 206 253 q 284 220 251 253 q 317 142 317 188 q 307 64 317 99 q 283 2 297 29 q 249 -44 268 -25 q 213 -75 231 -64 q 156 -90 186 -90 q 101 -76 126 -90 q 60 -36 75 -61 q 46 42 38 0 q 89 110 54 85 q 92 119 90 113 q 94 142 94 126 q 127 220 94 188 q 206 253 160 253 m 194 -44 q 253 20 225 -26 q 281 142 281 67 q 259 195 281 174 q 206 217 238 217 q 151 195 174 217 q 129 142 129 174 q 126 110 129 122 q 118 90 122 97 l 119 89 q 115 86 117 86 q 107 81 110 81 q 81 34 86 63 q 90 -18 75 6 q 137 -52 106 -44 q 194 -44 168 -60 m 206 158 q 222 142 222 158 q 213 78 222 104 q 194 37 204 53 q 174 13 183 21 q 164 6 165 6 q 156 4 161 4 q 140 13 144 4 q 146 36 133 28 q 153 42 147 36 q 167 60 160 47 q 181 92 175 72 q 188 142 188 113 q 206 158 188 158 z "},"-":{"ha":732,"x_min":46,"x_max":685,"o":"m 574 458 q 592 440 592 458 q 574 424 592 424 l 157 424 q 139 440 139 424 q 157 458 139 458 l 574 458 m 574 553 q 652 520 619 553 q 685 440 685 488 q 652 362 685 394 q 574 329 619 329 l 157 329 q 78 362 111 329 q 46 440 46 394 q 78 520 46 488 q 157 553 111 553 l 574 553 m 574 365 q 628 387 606 365 q 650 440 650 408 q 628 494 650 472 q 574 517 606 517 l 157 517 q 103 494 125 517 q 81 440 81 472 q 103 387 81 408 q 157 365 125 365 l 574 365 z "},".":{"ha":318,"x_min":47,"x_max":269,"o":"m 158 253 q 237 220 204 253 q 269 142 269 188 l 269 119 q 237 41 269 74 q 158 8 204 8 q 80 41 113 8 q 47 119 47 74 l 47 142 q 80 220 47 188 q 158 253 113 253 m 235 142 q 213 195 235 174 q 158 217 190 217 q 104 195 126 217 q 82 142 82 174 l 82 119 q 104 66 82 88 q 158 44 126 44 q 213 66 190 44 q 235 119 235 88 l 235 142 m 158 158 q 176 142 176 158 l 176 119 q 158 103 176 103 q 140 119 140 103 l 140 142 q 158 158 140 158 z "},"/":{"ha":964,"x_min":21,"x_max":944,"o":"m 907 942 q 942 864 939 911 q 911 785 944 819 l 215 44 q 135 8 182 8 q 58 39 92 8 q 24 117 26 71 q 54 196 21 163 l 750 938 q 785 963 765 954 q 827 972 806 971 q 869 965 849 972 q 907 942 890 957 m 886 808 q 907 864 907 832 q 882 917 904 896 q 831 938 861 938 q 775 913 799 938 l 79 172 q 58 118 58 150 q 83 64 61 85 q 138 44 106 43 q 190 68 169 46 l 886 808 m 818 874 q 843 874 831 886 q 843 849 856 861 l 147 108 q 135 103 143 103 q 122 107 129 103 q 122 132 110 119 l 818 874 z "},":":{"ha":335,"x_min":56,"x_max":278,"o":"m 167 385 q 245 352 213 385 q 278 274 278 319 l 278 253 q 245 174 278 207 q 167 142 213 142 q 88 174 121 142 q 56 253 56 207 l 56 274 q 88 352 56 319 q 167 385 121 385 m 243 274 q 221 328 243 306 q 167 350 199 350 q 113 328 135 350 q 90 274 90 306 l 90 253 q 113 199 90 221 q 167 176 135 176 q 221 199 199 176 q 243 253 243 221 l 243 274 m 167 292 q 185 274 185 292 l 185 253 q 167 235 185 235 q 149 253 149 235 l 149 274 q 167 292 149 292 m 167 747 q 245 715 213 747 q 278 636 278 682 l 278 615 q 245 537 278 569 q 167 504 213 504 q 88 537 121 504 q 56 615 56 569 l 56 636 q 88 715 56 682 q 167 747 121 747 m 243 636 q 221 690 243 668 q 167 713 199 713 q 113 690 135 713 q 90 636 90 668 l 90 615 q 113 561 90 583 q 167 539 135 539 q 221 561 199 539 q 243 615 243 583 l 243 636 m 167 654 q 185 636 185 654 l 185 615 q 167 597 185 597 q 149 615 149 597 l 149 636 q 167 654 149 654 z "},";":{"ha":382,"x_min":46,"x_max":325,"o":"m 214 747 q 292 715 260 747 q 325 636 325 682 l 325 615 q 292 537 325 569 q 214 504 260 504 q 135 537 168 504 q 103 615 103 569 l 103 636 q 135 715 103 682 q 214 747 168 747 m 290 636 q 268 690 290 668 q 214 713 246 713 q 160 690 182 713 q 138 636 138 668 l 138 615 q 160 561 138 583 q 214 539 182 539 q 268 561 246 539 q 290 615 290 583 l 290 636 m 214 654 q 231 636 231 654 l 231 615 q 214 597 231 597 q 196 615 196 597 l 196 636 q 214 654 196 654 m 214 385 q 292 352 260 385 q 325 274 325 319 q 315 196 325 231 q 290 134 306 161 q 257 88 275 107 q 221 58 239 69 q 164 42 196 42 q 109 56 135 42 q 68 97 83 71 q 54 175 46 133 q 97 242 63 217 q 101 251 99 244 q 103 274 103 258 q 135 352 103 319 q 214 385 168 385 m 203 89 q 262 153 233 107 q 290 274 290 199 q 268 328 290 306 q 214 350 246 350 q 160 328 182 350 q 138 274 138 306 q 136 250 138 260 q 132 233 135 240 l 133 233 q 124 218 133 224 q 115 213 119 214 q 89 167 94 194 q 99 114 83 139 q 145 81 114 89 q 203 89 176 72 m 214 292 q 231 274 231 292 q 222 211 231 236 q 202 170 213 186 q 183 147 192 154 q 172 139 174 139 q 164 136 169 136 q 149 144 153 136 q 147 158 146 151 q 154 168 147 165 q 162 174 156 168 q 176 192 168 179 q 190 224 183 204 q 196 274 196 244 q 214 292 196 292 z "},"<":{"ha":657,"x_min":44,"x_max":607,"o":"m 186 456 l 500 228 q 504 203 514 218 q 490 196 497 196 q 479 199 485 196 l 146 442 q 138 456 138 446 q 146 469 138 465 l 479 715 q 504 711 494 725 q 508 699 508 706 q 500 688 507 692 l 185 456 l 186 456 m 556 304 q 585 272 574 290 q 599 232 596 253 q 598 190 603 211 q 579 149 593 168 q 490 103 546 103 q 425 124 453 103 l 90 365 q 44 456 44 399 q 56 506 44 482 q 90 546 68 531 l 424 790 q 463 809 442 804 q 506 810 485 814 q 547 796 528 807 q 579 767 567 785 q 600 685 607 731 q 556 611 593 640 l 344 457 l 556 304 m 551 169 q 565 225 571 194 q 535 275 560 256 l 304 442 q 297 456 297 449 q 304 471 297 464 l 535 640 q 565 690 561 658 q 551 746 569 721 q 490 778 529 778 q 444 763 467 778 l 111 517 q 79 456 79 494 q 111 394 79 417 l 444 151 q 501 139 469 133 q 551 169 533 144 z "},"=":{"ha":803,"x_min":54,"x_max":747,"o":"m 165 618 q 147 636 147 618 q 165 654 147 654 l 636 654 q 654 636 654 654 q 636 618 654 618 l 165 618 m 165 525 q 87 558 119 525 q 54 636 54 590 q 87 715 54 682 q 165 747 119 747 l 636 747 q 715 715 682 747 q 747 636 747 682 q 715 558 747 590 q 636 525 682 525 l 165 525 m 165 713 q 111 690 133 713 q 89 636 89 668 q 111 582 89 604 q 165 560 133 560 l 636 560 q 690 582 668 560 q 713 636 713 604 q 690 690 713 668 q 636 713 668 713 l 165 713 m 636 321 q 654 303 654 321 q 636 285 654 285 l 165 285 q 147 303 147 285 q 165 321 147 321 l 636 321 m 636 414 q 715 381 682 414 q 747 303 747 349 q 715 224 747 257 q 636 192 682 192 l 165 192 q 87 224 119 192 q 54 303 54 257 q 87 381 54 349 q 165 414 119 414 l 636 414 m 636 226 q 690 249 668 226 q 713 303 713 271 q 690 357 713 335 q 636 379 668 379 l 165 379 q 111 357 133 379 q 89 303 89 335 q 111 249 89 271 q 165 226 133 226 l 636 226 z "},">":{"ha":657,"x_min":50,"x_max":613,"o":"m 511 469 q 518 456 518 465 q 511 442 518 446 l 176 199 q 167 196 171 196 q 153 203 157 196 q 157 228 143 218 l 471 456 l 157 688 q 149 699 150 692 q 153 711 149 706 q 178 715 163 725 l 511 469 m 567 546 q 601 506 589 531 q 613 456 613 482 q 600 404 613 428 q 567 365 588 381 l 232 124 q 167 103 203 103 q 116 115 140 103 q 76 149 92 126 q 57 231 50 185 q 101 304 64 275 l 313 457 l 101 611 q 57 685 64 639 q 78 767 50 731 q 150 810 104 803 q 232 790 196 818 l 567 546 m 546 394 q 576 456 576 417 q 546 517 576 494 l 211 763 q 167 778 192 778 q 106 746 128 778 q 91 690 86 721 q 122 640 96 660 l 353 471 q 360 456 360 464 q 353 442 360 449 l 122 275 q 92 225 96 256 q 92 195 89 210 q 106 169 96 181 q 156 139 124 144 q 211 151 188 133 l 546 394 z "},"?":{"ha":865,"x_min":28,"x_max":817,"o":"m 310 158 q 328 142 328 158 l 328 119 q 310 103 328 103 q 293 119 293 103 l 293 142 q 310 158 293 158 m 493 879 q 606 861 561 879 q 676 816 650 843 q 713 759 703 789 q 724 704 724 729 q 703 617 724 656 q 649 549 682 579 q 576 493 617 518 q 494 444 535 468 q 432 409 463 426 q 378 373 401 392 q 342 333 356 354 q 328 286 328 311 q 310 268 328 268 q 293 286 293 268 q 308 346 293 319 q 349 394 324 372 q 408 437 375 417 q 476 476 442 457 q 553 520 515 497 q 622 570 592 543 q 669 630 651 597 q 688 704 688 663 q 678 748 688 724 q 648 793 669 772 q 589 828 626 814 q 493 843 551 843 l 139 843 q 121 861 121 843 q 139 879 121 879 l 493 879 m 494 972 q 638 949 578 972 q 738 887 699 925 q 797 801 778 849 q 817 704 817 753 q 790 582 817 635 q 722 489 763 529 q 632 419 681 449 q 539 364 583 389 q 482 331 504 344 q 447 308 460 317 q 428 292 433 299 q 421 283 422 286 q 394 214 421 244 q 421 142 421 181 l 421 119 q 388 41 421 74 q 310 8 356 8 q 231 41 264 8 q 199 119 199 74 l 199 142 q 225 214 199 181 q 199 286 199 244 q 220 380 199 339 q 276 453 242 421 q 351 511 310 486 q 431 557 392 536 q 549 631 503 597 q 594 704 594 665 q 571 735 594 721 q 494 750 547 750 l 139 750 q 60 783 93 750 q 28 861 28 815 q 60 940 28 907 q 139 972 93 972 l 494 972 m 522 394 q 609 446 564 418 q 693 510 654 474 q 757 594 732 547 q 782 704 782 642 q 765 788 782 746 q 712 863 747 829 q 622 917 676 896 q 494 938 568 938 l 139 938 q 85 915 107 938 q 63 861 63 893 q 85 807 63 829 q 139 785 107 785 l 494 785 q 558 777 532 785 q 599 758 583 769 q 622 733 615 747 q 629 704 629 718 q 581 612 629 651 q 449 526 532 572 q 372 483 411 506 q 303 431 333 460 q 253 367 272 403 q 233 286 233 332 q 261 226 233 251 q 268 214 268 222 q 261 200 268 204 q 233 140 233 175 l 233 119 q 256 66 233 88 q 310 44 278 44 q 364 66 342 44 q 386 119 386 88 l 386 140 q 358 200 386 176 q 353 214 353 204 q 358 226 353 222 q 386 286 386 250 q 416 328 386 304 q 522 394 446 351 z "},"@":{"ha":1283,"x_min":49,"x_max":1226,"o":"m 943 200 q 928 210 933 200 l 869 318 l 443 318 l 388 210 q 378 201 385 203 q 364 203 371 199 q 356 226 349 210 l 638 771 q 653 781 643 781 q 661 778 657 782 q 668 771 665 775 l 953 236 q 1008 263 982 240 q 1055 319 1035 285 q 1087 399 1075 354 q 1099 490 1099 443 q 1070 608 1099 546 q 985 723 1042 671 q 846 809 929 775 q 654 843 763 843 q 493 817 574 843 q 347 744 413 792 q 238 626 282 696 q 186 468 193 556 q 190 367 182 418 q 217 270 199 317 q 264 183 236 224 q 328 114 292 143 q 654 18 447 18 q 820 38 749 18 q 940 80 892 57 q 1012 123 988 103 q 1036 143 1036 143 q 1061 143 1049 156 q 1061 118 1074 131 q 1033 95 1060 117 q 956 49 1007 74 q 830 3 906 24 q 654 -18 754 -18 q 306 88 436 -18 q 235 163 267 119 q 184 257 204 207 q 156 361 164 307 q 151 471 147 415 q 206 642 160 567 q 324 771 253 718 q 481 851 394 824 q 654 879 568 879 q 851 844 763 879 q 1001 755 939 810 q 1099 631 1064 700 q 1133 490 1133 561 q 1119 387 1133 439 q 1081 293 1106 335 q 1020 226 1056 251 q 943 200 985 200 m 851 353 l 653 725 l 461 353 l 851 353 m 639 569 q 647 576 642 574 q 654 579 651 578 q 669 569 665 579 l 740 438 q 740 421 744 428 q 725 413 735 413 l 586 413 q 571 421 575 413 q 571 438 567 428 l 639 569 m 615 447 l 696 447 l 654 524 l 615 447 m 1226 490 q 1201 335 1226 411 q 1131 204 1175 260 q 1160 128 1161 172 q 1128 51 1160 83 q 1094 24 1125 50 q 1004 -32 1064 -1 q 857 -87 944 -62 q 654 -111 769 -111 q 567 -107 610 -111 q 485 -93 525 -103 q 299 -16 382 -69 q 160 113 217 38 q 76 281 104 188 q 57 475 49 374 q 124 689 67 596 q 265 845 181 782 q 451 940 349 908 q 654 972 553 972 q 893 930 788 972 q 1073 819 999 888 q 1187 664 1147 750 q 1226 490 1226 578 m 1096 189 q 1089 201 1092 192 q 1093 215 1089 210 q 1165 339 1139 265 q 1192 490 1192 413 q 1154 651 1192 571 q 1047 794 1117 731 q 878 898 978 858 q 656 938 779 938 q 463 907 560 938 q 288 817 367 876 q 155 672 208 758 q 93 472 101 585 q 110 290 85 376 q 189 133 136 203 q 319 13 242 63 q 492 -58 396 -37 q 572 -72 532 -67 q 654 -76 613 -76 q 847 -53 764 -76 q 985 -2 929 -31 q 1071 51 1042 26 q 1103 76 1100 75 q 1125 130 1125 100 q 1103 183 1125 160 q 1096 189 1101 186 m 875 182 q 900 154 886 164 q 908 139 908 150 q 897 124 906 128 q 654 76 790 76 q 417 126 511 76 q 408 140 408 132 q 415 156 408 151 q 439 183 431 167 l 474 250 q 489 260 479 260 l 824 260 q 839 250 835 260 l 875 182 m 654 111 q 858 146 768 111 q 851 155 854 150 q 844 165 847 160 l 814 225 l 500 225 l 471 167 q 464 156 468 161 q 457 146 460 151 q 654 111 539 111 m 558 767 q 560 747 564 758 l 313 269 q 297 260 308 260 l 296 260 q 281 269 286 260 q 244 457 244 350 q 263 552 244 503 q 319 644 282 601 q 413 722 357 688 q 540 772 468 756 q 558 767 553 775 m 510 728 q 410 679 453 710 q 338 612 367 649 q 294 535 308 575 q 279 457 279 494 q 299 319 279 382 l 331 381 l 332 385 l 510 728 m 981 328 q 965 338 971 328 l 749 747 q 750 767 742 756 q 768 772 756 775 q 885 726 835 757 q 970 656 936 694 q 1022 574 1004 617 q 1040 490 1040 531 q 1023 390 1040 431 q 996 335 1006 350 q 981 328 992 328 l 981 328 m 1004 490 q 991 557 1004 522 q 952 624 978 592 q 888 683 926 656 q 799 728 849 711 l 982 382 q 997 428 990 401 q 1004 490 1004 454 z "},"A":{"ha":1008,"x_min":-4,"x_max":1011,"o":"m 483 668 q 499 676 488 676 l 499 676 q 515 668 510 676 l 667 382 q 665 365 672 372 q 651 356 661 356 l 351 356 q 338 365 343 356 q 336 382 331 372 l 483 668 m 381 392 l 622 392 l 500 621 l 381 392 m 990 172 q 999 88 1011 132 q 943 22 983 43 q 892 8 921 8 q 858 14 874 8 q 793 68 815 26 l 740 169 l 267 169 l 214 69 q 173 25 199 42 q 115 8 147 8 q 64 21 88 8 q 10 87 24 43 q 17 171 -4 131 l 400 913 q 440 956 414 940 q 497 972 465 972 q 556 957 529 972 q 596 914 582 942 l 990 172 m 964 97 q 958 156 974 126 l 565 897 q 538 927 556 917 q 499 938 519 938 q 458 926 476 936 q 431 896 440 915 l 47 156 q 43 98 33 128 q 81 53 53 68 q 138 48 107 39 q 183 85 168 57 l 240 194 q 256 204 246 204 l 750 204 q 767 194 760 204 l 825 85 q 869 47 838 56 q 928 53 901 39 q 964 97 956 68 m 907 128 q 900 104 914 114 q 886 103 893 101 q 876 111 879 104 l 796 263 l 208 263 l 131 113 q 115 103 126 103 q 107 104 110 103 q 99 114 100 107 q 100 128 97 121 l 482 869 q 499 879 489 879 l 499 879 q 514 869 510 879 l 907 128 m 778 297 l 499 824 l 226 297 l 778 297 z "},"B":{"ha":940,"x_min":63,"x_max":913,"o":"m 564 138 q 649 155 610 138 q 719 202 689 172 q 766 272 749 232 q 783 357 783 311 q 766 443 783 403 q 719 513 749 483 q 649 560 689 543 q 564 578 610 578 l 192 578 l 192 167 q 200 146 192 154 q 221 138 208 138 l 564 138 m 564 231 q 653 267 617 231 q 690 357 690 304 q 681 406 690 383 q 653 447 671 429 q 613 474 636 464 q 564 483 590 483 l 285 483 l 285 231 l 564 231 m 285 707 l 571 707 q 585 713 579 707 q 592 728 592 719 q 585 744 592 738 q 571 750 579 750 l 285 750 l 285 707 m 192 613 l 571 613 q 653 646 619 613 q 686 728 686 679 q 653 810 686 776 q 571 843 619 843 l 221 843 q 200 835 208 843 q 192 814 192 826 l 192 613 m 564 44 q 686 69 629 44 q 785 136 743 93 q 853 236 828 179 q 878 357 878 293 q 847 494 878 431 q 757 603 815 558 q 753 626 746 613 q 779 728 779 671 q 763 809 779 771 q 718 876 746 847 q 652 921 690 904 q 571 938 614 938 l 221 938 q 133 901 169 938 q 97 814 97 865 l 97 167 q 133 80 97 115 q 221 44 169 44 l 564 44 m 790 622 q 881 503 849 572 q 913 357 913 435 q 885 222 913 285 q 810 111 857 158 q 699 36 763 64 q 564 8 636 8 l 221 8 q 159 21 188 8 q 109 55 131 33 q 75 105 88 76 q 63 167 63 133 l 63 814 q 75 876 63 847 q 109 926 88 904 q 159 960 131 947 q 221 972 188 972 l 571 972 q 665 953 621 972 q 743 900 710 933 q 796 822 776 867 q 815 728 815 778 q 790 622 815 671 m 646 599 q 770 507 721 572 q 819 357 819 442 q 799 258 819 304 q 744 177 779 211 q 663 123 710 143 q 564 103 617 103 l 221 103 q 174 122 193 103 q 156 167 156 140 l 156 814 q 174 860 156 842 q 221 879 193 879 l 571 879 q 628 867 601 879 q 676 835 656 856 q 709 787 697 814 q 721 728 721 760 q 700 652 721 686 q 646 599 679 618 m 564 519 q 626 507 597 519 q 678 472 656 494 q 713 420 700 450 q 725 357 725 390 q 713 294 725 324 q 678 243 700 265 q 626 208 656 221 q 564 196 597 196 l 267 196 q 250 214 250 196 l 250 501 q 267 519 250 519 l 564 519 m 628 728 q 611 688 628 704 q 571 671 594 671 l 267 671 q 250 689 250 671 l 250 768 q 267 785 250 785 l 571 785 q 611 768 594 785 q 628 728 628 751 z "},"C":{"ha":914,"x_min":28,"x_max":882,"o":"m 693 307 q 772 339 725 339 q 850 308 818 339 q 882 229 882 276 q 850 150 882 182 q 693 46 781 82 q 510 10 606 10 q 325 46 413 10 q 168 150 238 82 q 63 309 97 221 q 28 490 28 397 q 63 672 28 583 q 168 831 97 760 q 325 936 238 900 q 510 972 413 972 q 693 936 606 972 q 850 831 781 900 q 882 753 882 799 q 851 674 882 706 q 772 643 819 643 q 729 651 750 643 q 693 674 708 658 q 608 731 656 713 q 510 750 560 750 q 412 731 460 750 q 326 674 364 713 q 269 588 289 636 q 250 490 250 540 q 269 392 250 440 q 326 307 289 344 q 410 251 363 271 q 510 232 457 232 q 693 307 615 232 m 825 175 q 847 229 847 197 q 825 283 847 261 q 771 304 803 304 q 718 282 739 304 q 622 218 676 240 q 510 196 568 196 q 395 219 449 196 q 301 282 342 242 q 238 376 261 322 q 215 490 215 429 q 238 605 215 551 q 301 699 261 658 q 394 762 340 739 q 510 785 449 785 q 621 764 567 785 q 718 699 675 743 q 771 676 740 676 q 825 699 803 676 q 847 753 847 721 q 825 807 847 782 q 677 905 758 872 q 510 938 596 938 q 341 905 422 938 q 193 807 260 872 q 95 659 128 742 q 63 490 63 576 q 95 322 63 404 q 193 175 128 240 q 338 78 257 111 q 510 44 419 44 q 681 78 600 44 q 825 175 761 111 m 758 240 q 783 240 771 253 q 783 217 796 229 q 656 131 726 158 q 510 103 585 103 q 363 131 435 103 q 235 217 292 158 q 149 345 178 274 q 121 491 121 417 q 149 637 121 565 q 235 765 178 708 q 364 851 293 824 q 510 879 435 879 q 656 851 585 879 q 783 765 726 824 q 783 740 796 753 q 758 740 771 728 q 642 818 707 793 q 510 843 578 843 q 377 818 442 843 q 260 740 313 793 q 183 624 208 689 q 157 491 157 558 q 183 358 157 424 q 260 240 208 293 q 377 163 313 189 q 510 138 442 138 q 642 163 578 138 q 758 240 707 189 z "},"D":{"ha":974,"x_min":63,"x_max":946,"o":"m 464 44 q 637 80 556 44 q 778 176 718 115 q 874 317 839 236 q 910 490 910 399 q 874 664 910 582 q 778 806 839 746 q 637 902 718 867 q 464 938 556 938 l 221 938 q 133 901 169 938 q 97 814 97 865 l 97 167 q 133 80 97 115 q 221 44 169 44 l 464 44 m 464 138 q 601 165 538 138 q 713 241 665 193 q 789 353 761 289 q 817 490 817 418 q 789 628 817 564 q 713 740 761 692 q 601 815 665 788 q 464 843 538 843 l 221 843 q 200 835 208 843 q 192 814 192 826 l 192 167 q 200 146 192 154 q 221 138 208 138 l 464 138 m 464 231 q 565 251 518 231 q 648 306 613 271 q 703 389 683 342 q 724 490 724 436 q 703 592 724 544 q 648 674 683 639 q 565 730 613 710 q 464 750 518 750 l 285 750 l 285 231 l 464 231 m 464 879 q 615 849 544 879 q 738 765 685 818 q 821 642 790 713 q 851 490 851 571 q 821 340 851 410 q 738 217 790 269 q 615 133 685 164 q 464 103 544 103 l 221 103 q 174 122 193 103 q 156 167 156 140 l 156 814 q 174 860 156 842 q 221 879 193 879 l 464 879 m 464 972 q 651 934 564 972 q 804 831 739 896 q 908 678 869 765 q 946 490 946 590 q 908 303 946 390 q 804 150 869 215 q 651 47 739 85 q 464 8 564 8 l 221 8 q 159 21 188 8 q 109 55 131 33 q 75 105 88 76 q 63 167 63 133 l 63 814 q 75 876 63 847 q 109 926 88 904 q 159 960 131 947 q 221 972 188 972 l 464 972 m 464 785 q 578 762 525 785 q 672 699 632 739 q 735 605 713 658 q 758 490 758 551 q 735 376 758 429 q 672 282 713 322 q 578 219 632 242 q 464 196 525 196 l 267 196 q 250 214 250 196 l 250 768 q 267 785 250 785 l 464 785 z "},"E":{"ha":894,"x_min":63,"x_max":871,"o":"m 760 44 q 814 66 792 44 q 836 119 836 88 q 814 174 836 151 q 760 196 792 196 l 267 196 q 250 214 250 196 l 250 397 q 267 414 250 414 l 494 414 q 548 436 526 414 q 569 490 569 458 q 548 544 569 522 q 494 567 526 567 l 267 567 q 250 583 250 567 l 250 768 q 267 785 250 785 l 760 785 q 814 807 792 785 q 836 861 836 829 q 814 915 836 893 q 760 938 792 938 l 221 938 q 133 901 169 938 q 97 814 97 865 l 97 167 q 133 80 97 115 q 221 44 169 44 l 760 44 m 760 232 q 838 199 806 232 q 871 119 871 167 q 838 41 871 74 q 760 8 806 8 l 221 8 q 159 21 188 8 q 109 55 131 33 q 75 105 88 76 q 63 167 63 133 l 63 814 q 75 876 63 847 q 109 926 88 904 q 159 960 131 947 q 221 972 188 972 l 760 972 q 838 940 806 972 q 871 861 871 907 q 838 783 871 815 q 760 750 806 750 l 285 750 l 285 601 l 494 601 q 573 569 540 601 q 606 490 606 536 q 573 412 606 444 q 494 379 540 379 l 285 379 l 285 232 l 760 232 m 760 138 q 778 119 778 138 q 760 103 778 103 l 221 103 q 174 122 193 103 q 156 167 156 140 l 156 814 q 174 860 156 842 q 221 879 193 879 l 760 879 q 778 861 778 879 q 760 843 778 843 l 221 843 q 200 835 208 843 q 192 814 192 826 l 192 508 l 494 508 q 511 490 511 508 q 494 474 511 474 l 192 474 l 192 167 q 200 146 192 154 q 221 138 208 138 l 760 138 z "},"F":{"ha":874,"x_min":64,"x_max":872,"o":"m 761 972 q 840 940 807 972 q 872 861 872 907 q 840 783 872 815 q 761 750 807 750 l 286 750 l 286 601 l 496 601 q 574 569 542 601 q 607 490 607 536 q 574 412 607 444 q 496 379 542 379 l 286 379 l 286 119 q 253 41 286 74 q 175 8 221 8 q 97 41 129 8 q 64 119 64 74 l 64 814 q 76 876 64 847 q 110 926 89 904 q 160 960 132 947 q 222 972 189 972 l 761 972 m 761 785 q 815 807 793 785 q 838 861 838 829 q 815 915 838 893 q 761 938 793 938 l 222 938 q 135 901 171 938 q 99 814 99 865 l 99 119 q 121 66 99 88 q 175 44 143 44 q 229 66 207 44 q 251 119 251 88 l 251 397 q 268 414 251 414 l 496 414 q 549 436 528 414 q 571 490 571 458 q 549 544 571 522 q 496 567 528 567 l 268 567 q 251 583 251 567 l 251 768 q 268 785 251 785 l 761 785 m 761 879 q 779 861 779 879 q 761 843 779 843 l 222 843 q 201 835 210 843 q 193 814 193 826 l 193 508 l 496 508 q 513 490 513 508 q 496 474 513 474 l 193 474 l 193 119 q 175 103 193 103 q 158 119 158 103 l 158 814 q 176 860 158 842 q 222 879 194 879 l 761 879 z "},"G":{"ha":938,"x_min":28,"x_max":883,"o":"m 725 625 q 785 613 757 625 q 835 578 814 600 q 869 528 857 557 q 882 467 882 500 l 882 119 q 849 41 882 74 q 771 8 817 8 q 690 44 724 8 q 510 8 603 8 q 322 47 410 8 q 169 150 235 85 q 66 303 104 215 q 28 490 28 390 q 66 678 28 590 q 169 831 104 765 q 322 934 235 896 q 510 972 410 972 q 693 936 606 972 q 850 831 781 900 q 883 753 883 797 q 850 674 883 706 q 771 642 817 642 q 693 674 725 642 q 510 750 617 750 q 408 730 456 750 q 326 674 361 710 q 270 592 290 639 q 250 490 250 544 q 270 389 250 436 q 326 307 290 342 q 408 252 361 272 q 510 232 456 232 q 660 279 593 232 l 660 403 l 456 403 q 377 435 410 403 q 344 514 344 468 q 377 592 344 560 q 456 625 410 625 l 725 625 m 847 467 q 838 515 847 492 q 811 554 828 538 q 772 581 794 571 q 725 590 750 590 l 456 590 q 401 568 424 590 q 379 514 379 546 q 401 460 379 482 q 456 438 424 438 l 678 438 q 696 419 696 438 l 696 271 q 689 257 696 261 q 510 196 611 196 q 395 219 449 196 q 301 282 342 242 q 238 376 261 322 q 215 490 215 429 q 238 605 215 551 q 301 699 261 658 q 395 762 342 739 q 510 785 449 785 q 622 763 568 785 q 718 699 675 740 q 771 676 740 676 q 825 699 803 676 q 847 753 847 721 q 825 806 847 785 q 681 903 761 869 q 510 938 600 938 q 336 902 418 938 q 194 806 254 867 q 98 664 133 746 q 63 490 63 582 q 98 317 63 399 q 194 176 133 236 q 336 80 254 115 q 510 44 418 44 q 689 82 604 44 q 692 83 690 82 q 696 83 693 83 q 710 75 706 83 q 771 44 732 44 q 825 66 803 44 q 847 119 847 88 l 847 467 m 725 532 q 770 513 751 532 q 789 467 789 494 l 789 119 q 771 103 789 103 q 754 119 754 103 l 754 189 q 640 125 701 147 q 510 103 578 103 q 358 133 429 103 q 235 217 288 164 q 151 340 182 269 q 121 490 121 410 q 151 642 121 571 q 235 765 182 713 q 358 849 288 818 q 510 879 429 879 q 658 849 588 879 q 783 765 729 819 q 783 740 796 753 q 760 740 771 728 q 645 817 710 790 q 510 843 581 843 q 372 815 436 843 q 260 740 308 788 q 185 628 213 692 q 157 490 157 564 q 185 353 157 417 q 260 241 213 289 q 372 165 308 193 q 510 138 436 138 q 642 163 579 138 q 754 236 704 188 l 754 467 q 745 488 754 479 q 725 496 736 496 l 456 496 q 438 514 438 496 q 456 532 438 532 l 725 532 z "},"H":{"ha":972,"x_min":65,"x_max":907,"o":"m 796 972 q 874 940 842 972 q 907 861 907 907 l 907 119 q 874 41 907 74 q 796 8 842 8 q 717 41 749 8 q 685 119 685 74 l 685 403 l 288 403 l 288 119 q 255 41 288 74 q 176 8 222 8 q 98 41 131 8 q 65 119 65 74 l 65 861 q 98 940 65 907 q 176 972 131 972 q 255 940 222 972 q 288 861 288 907 l 288 625 l 685 625 l 685 861 q 717 940 685 907 q 796 972 749 972 m 871 861 q 849 915 871 893 q 796 938 828 938 q 742 915 764 938 q 719 861 719 893 l 719 607 q 701 590 719 590 l 269 590 q 253 607 253 590 l 253 861 q 231 915 253 893 q 176 938 208 938 q 122 915 144 938 q 100 861 100 893 l 100 119 q 122 66 100 88 q 176 44 144 44 q 231 66 208 44 q 253 119 253 88 l 253 419 q 269 438 253 438 l 701 438 q 719 419 719 438 l 719 119 q 742 66 719 88 q 796 44 764 44 q 849 66 828 44 q 871 119 871 88 l 871 861 m 794 879 q 813 861 813 879 l 813 119 q 794 103 813 103 q 783 108 788 103 q 778 119 778 113 l 778 496 l 194 496 l 194 119 q 176 103 194 103 q 160 119 160 103 l 160 861 q 176 879 160 879 q 194 861 194 879 l 194 532 l 778 532 l 778 861 q 783 874 778 868 q 794 879 788 879 z "},"I":{"ha":544,"x_min":26,"x_max":518,"o":"m 406 138 q 424 119 424 138 q 406 103 424 103 l 138 103 q 119 119 119 103 q 138 138 119 138 l 254 138 l 254 843 l 138 843 q 119 861 119 843 q 138 879 119 879 l 406 879 q 424 861 424 879 q 406 843 424 843 l 289 843 l 289 138 l 406 138 m 406 232 q 485 199 453 232 q 518 119 518 167 q 485 41 518 74 q 406 8 453 8 l 138 8 q 59 41 92 8 q 26 119 26 74 q 59 199 26 167 q 138 232 92 232 l 161 232 l 161 750 l 138 750 q 59 783 92 750 q 26 861 26 815 q 59 940 26 907 q 138 972 92 972 l 406 972 q 485 940 453 972 q 518 861 518 907 q 485 783 518 815 q 406 750 453 750 l 383 750 l 383 232 l 406 232 m 406 44 q 460 66 438 44 q 482 119 482 88 q 460 174 482 151 q 406 196 438 196 l 365 196 q 349 214 349 196 l 349 768 q 365 785 349 785 l 406 785 q 460 807 438 785 q 482 861 482 829 q 460 915 482 893 q 406 938 438 938 l 138 938 q 83 915 106 938 q 61 861 61 893 q 83 807 61 829 q 138 785 106 785 l 178 785 q 196 768 196 785 l 196 214 q 178 196 196 196 l 138 196 q 83 174 106 196 q 61 119 61 151 q 83 66 61 88 q 138 44 106 44 l 406 44 z "},"J":{"ha":894,"x_min":-3,"x_max":840,"o":"m 729 972 q 808 940 775 972 q 840 861 840 907 l 840 417 q 725 115 840 221 q 397 8 610 8 q 274 24 329 8 q 177 65 219 40 q 105 117 135 89 q 56 170 75 146 q 26 213 36 194 q 15 232 17 231 q 13 317 -3 272 q 53 370 24 350 q 118 390 83 390 q 177 372 150 390 q 218 325 204 354 q 230 307 219 322 q 261 275 240 292 q 315 244 282 258 q 397 231 349 231 q 518 247 474 231 q 585 290 563 264 q 613 350 607 317 q 618 417 618 383 l 618 861 q 651 940 618 907 q 729 972 683 972 m 806 861 q 783 915 806 893 q 729 938 761 938 q 675 915 697 938 q 653 861 653 893 l 653 417 q 644 337 653 376 q 609 266 636 297 q 532 215 582 235 q 397 196 482 196 q 302 212 342 196 q 238 249 263 228 q 201 288 213 269 q 186 310 189 306 q 158 343 176 332 q 117 354 140 354 q 85 347 97 354 q 46 306 57 335 q 47 247 35 275 q 68 213 49 244 q 129 143 88 181 q 237 75 171 106 q 397 44 303 44 q 699 142 593 44 q 806 417 806 239 l 806 861 m 729 879 q 747 861 747 879 l 747 417 q 659 182 747 261 q 397 103 571 103 q 260 128 317 103 q 169 184 204 153 q 119 242 135 215 q 101 271 103 268 q 110 294 94 288 q 124 295 117 297 q 133 286 131 293 q 149 261 135 285 q 194 210 163 238 q 275 160 225 182 q 397 138 325 138 q 711 417 711 138 l 711 861 q 729 879 711 879 z "},"K":{"ha":971,"x_min":65,"x_max":949,"o":"m 919 190 q 944 108 949 154 q 904 33 940 63 q 871 15 889 22 q 833 8 853 8 q 747 50 781 8 l 460 403 l 288 403 l 288 119 q 255 41 288 74 q 176 8 222 8 q 98 41 131 8 q 65 119 65 74 l 65 861 q 98 940 65 907 q 176 972 131 972 q 255 940 222 972 q 288 861 288 907 l 288 625 l 464 625 l 751 936 q 790 963 768 954 q 833 972 811 972 q 910 943 876 972 q 935 908 926 928 q 945 866 944 888 q 938 824 946 844 q 915 786 931 803 l 658 510 l 919 190 m 882 61 q 909 113 906 81 q 893 168 913 144 l 622 499 q 622 522 613 511 l 889 810 q 910 865 911 833 q 885 917 908 896 q 833 938 864 938 q 778 913 801 938 l 483 596 q 471 590 479 590 l 269 590 q 253 607 253 590 l 253 861 q 231 915 253 893 q 176 938 208 938 q 122 915 144 938 q 100 861 100 893 l 100 121 q 122 67 100 89 q 176 44 144 44 q 231 67 208 44 q 253 121 253 89 l 253 421 q 269 438 253 438 l 468 438 q 481 432 475 438 l 775 72 q 802 51 786 58 q 835 44 818 44 q 882 61 861 44 m 847 131 q 851 118 851 125 q 844 107 850 111 q 833 103 840 103 q 819 108 825 103 l 503 496 l 194 496 l 194 119 q 176 103 194 103 q 158 119 158 103 l 158 861 q 176 879 158 879 q 194 861 194 879 l 194 532 l 504 532 l 821 874 q 846 874 832 885 q 846 849 858 861 l 535 513 l 847 131 z "},"L":{"ha":906,"x_min":64,"x_max":913,"o":"m 878 192 q 903 101 913 153 q 863 35 896 61 q 788 8 831 8 l 222 8 q 160 21 189 8 q 110 55 132 33 q 76 105 89 76 q 64 167 64 133 l 64 856 q 95 937 64 901 q 174 972 126 972 q 253 940 221 972 q 286 861 286 908 l 286 232 l 793 232 q 878 192 844 232 m 868 107 q 851 169 875 142 q 793 196 829 196 l 268 196 q 251 214 251 196 l 251 861 q 229 915 251 893 q 175 938 207 938 q 169 937 172 938 q 163 936 165 936 q 117 909 135 932 q 99 856 99 886 l 99 167 q 135 80 99 115 q 222 44 171 44 l 788 44 q 841 62 818 44 q 868 107 864 79 m 793 138 q 811 119 811 138 q 793 103 811 103 l 222 103 q 176 122 194 103 q 157 167 157 140 l 157 861 q 175 879 157 879 q 193 861 193 879 l 193 167 q 201 146 193 154 q 222 138 210 138 l 793 138 z "},"M":{"ha":1189,"x_min":65,"x_max":1122,"o":"m 1088 861 q 1074 905 1088 885 q 1038 932 1061 925 q 1011 936 1025 936 q 954 910 975 936 l 607 500 q 594 493 603 493 q 581 500 586 493 l 235 910 q 178 936 213 936 q 151 932 164 936 q 114 905 128 925 q 100 861 100 885 l 100 119 q 122 66 100 88 q 176 44 144 44 q 231 66 208 44 q 253 119 253 88 l 253 604 q 264 621 253 617 q 283 615 276 626 l 532 321 q 544 307 536 315 q 550 303 547 304 q 556 300 553 301 q 568 294 565 294 q 574 292 571 292 q 582 290 578 292 q 607 290 594 289 q 613 292 610 292 q 619 294 617 292 q 633 300 628 297 q 644 308 638 303 q 653 317 650 314 l 904 615 q 918 622 911 622 q 924 621 922 622 q 936 604 936 615 l 936 119 q 958 66 936 88 q 1011 44 979 44 q 1065 66 1043 44 q 1088 119 1088 88 l 1088 861 m 1122 861 l 1122 121 q 1090 42 1122 74 q 1011 10 1057 10 q 933 42 965 10 q 900 121 900 74 l 900 557 l 679 293 q 665 281 671 285 q 651 271 660 275 q 633 262 644 265 q 613 256 622 258 q 575 256 594 254 q 566 258 571 257 q 557 261 561 258 q 549 264 553 263 q 542 268 546 265 q 531 274 535 271 q 524 279 526 276 q 513 289 517 285 q 506 299 510 293 l 288 557 l 288 121 q 255 41 288 74 q 176 8 222 8 q 98 41 131 8 q 65 121 65 74 l 65 861 q 74 905 65 885 q 99 940 83 925 q 134 963 114 954 q 176 972 154 972 q 223 963 200 972 q 261 933 246 953 l 594 539 l 926 933 q 1011 972 961 972 q 1090 940 1057 972 q 1122 861 1122 908 m 1029 804 l 1029 119 q 1011 103 1029 103 q 994 119 994 103 l 994 804 l 988 806 l 607 354 l 607 353 q 606 351 606 353 l 604 351 q 602 350 603 350 q 600 349 601 350 l 588 349 l 585 351 l 583 351 l 200 806 l 194 804 l 194 119 q 176 103 194 103 q 158 119 158 103 l 158 804 q 171 831 158 819 q 199 843 183 843 q 226 828 215 843 l 594 393 l 961 828 q 992 843 974 843 q 1018 831 1007 843 q 1029 804 1029 819 z "},"N":{"ha":1018,"x_min":65,"x_max":953,"o":"m 842 972 q 920 940 888 972 q 953 861 953 907 l 953 119 q 933 56 953 85 q 881 17 913 28 q 842 8 863 8 q 758 46 792 8 l 288 571 l 288 119 q 255 41 288 74 q 176 8 222 8 q 98 41 131 8 q 65 119 65 74 l 65 861 q 98 940 65 907 q 175 972 131 972 q 260 935 226 972 l 731 410 l 731 861 q 763 940 731 907 q 842 972 796 972 m 918 861 q 896 915 918 893 q 842 938 874 938 q 788 915 810 938 q 765 861 765 893 l 765 364 q 754 349 765 353 q 735 353 742 343 l 233 913 q 175 938 208 938 q 122 915 144 938 q 100 861 100 893 l 100 119 q 122 66 100 88 q 176 44 144 44 q 231 66 208 44 q 253 119 253 88 l 253 617 q 264 633 253 629 q 267 634 265 633 q 269 635 268 635 q 283 628 276 635 l 785 69 q 842 43 808 43 q 895 66 872 43 q 918 119 918 89 l 918 861 m 842 879 q 858 861 858 879 l 858 200 q 845 166 858 181 q 811 151 832 151 q 775 168 790 151 l 217 790 q 208 794 213 794 q 203 793 204 794 q 197 791 200 793 q 194 782 194 789 l 194 119 q 176 103 194 103 q 158 119 158 103 l 158 782 q 174 815 158 801 q 208 829 189 829 q 243 814 229 829 l 801 190 q 810 186 806 186 q 815 188 814 186 q 821 191 818 189 q 824 200 824 193 l 824 861 q 842 879 824 879 z "},"O":{"ha":1019,"x_min":28,"x_max":992,"o":"m 510 972 q 697 934 610 972 q 850 831 785 896 q 953 678 915 765 q 992 490 992 590 q 953 303 992 390 q 850 150 915 215 q 697 47 785 85 q 510 8 610 8 q 322 47 410 8 q 169 150 235 85 q 66 303 104 215 q 28 490 28 390 q 66 678 28 590 q 169 831 104 765 q 322 934 235 896 q 510 972 410 972 m 510 44 q 683 80 601 44 q 824 176 764 115 q 920 317 885 236 q 956 490 956 399 q 920 664 956 582 q 824 806 885 746 q 683 902 764 867 q 510 938 601 938 q 336 902 418 938 q 194 806 254 867 q 98 664 133 746 q 63 490 63 582 q 98 317 63 399 q 194 176 133 236 q 336 80 254 115 q 510 44 418 44 m 510 879 q 660 849 590 879 q 783 765 731 818 q 867 642 836 713 q 897 490 897 571 q 867 340 897 410 q 783 217 836 269 q 660 133 731 164 q 510 103 590 103 q 358 133 429 103 q 235 217 288 164 q 151 340 182 269 q 121 490 121 410 q 151 642 121 571 q 235 765 182 713 q 358 849 288 818 q 510 879 429 879 m 510 138 q 647 165 583 138 q 759 241 711 193 q 835 353 807 289 q 863 490 863 418 q 835 628 863 564 q 759 740 807 692 q 647 815 711 788 q 510 843 583 843 q 373 815 438 843 q 260 740 308 788 q 185 628 213 692 q 157 490 157 564 q 185 353 157 418 q 260 241 213 289 q 373 165 308 193 q 510 138 438 138 m 510 785 q 624 762 571 785 q 718 699 678 739 q 781 605 758 658 q 804 490 804 551 q 781 376 804 429 q 718 282 758 322 q 624 219 678 242 q 510 196 571 196 q 395 219 449 196 q 301 282 342 242 q 238 376 261 322 q 215 490 215 429 q 238 605 215 551 q 301 699 261 658 q 395 762 342 739 q 510 785 449 785 m 510 231 q 611 251 564 231 q 694 306 658 271 q 749 389 729 342 q 769 490 769 436 q 749 592 769 544 q 694 674 729 639 q 611 730 658 710 q 510 750 564 750 q 408 730 456 750 q 326 674 361 710 q 270 592 290 639 q 250 490 250 544 q 270 389 250 436 q 326 306 290 342 q 408 251 361 271 q 510 231 456 231 z "},"P":{"ha":933,"x_min":64,"x_max":914,"o":"m 565 310 q 688 334 631 310 q 787 401 744 358 q 854 501 829 444 q 879 624 879 558 q 854 746 879 689 q 787 845 829 803 q 688 913 744 888 q 565 938 631 938 l 222 938 q 135 901 171 938 q 99 814 99 865 l 99 119 q 121 66 99 88 q 175 44 143 44 q 229 66 207 44 q 251 119 251 88 l 251 292 q 268 310 251 310 l 565 310 m 565 403 q 651 420 611 403 q 720 468 690 438 q 767 538 750 499 q 785 624 785 578 q 767 709 785 669 q 720 778 750 749 q 651 826 690 808 q 565 843 611 843 l 222 843 q 201 835 210 843 q 193 814 193 826 l 193 403 l 565 403 m 565 497 q 655 534 618 497 q 692 624 692 571 q 655 713 692 676 q 565 750 618 750 l 286 750 l 286 497 l 565 497 m 565 972 q 701 944 638 972 q 811 869 764 917 q 886 759 858 822 q 914 624 914 696 q 886 488 914 551 q 811 376 858 424 q 701 302 764 329 q 565 275 638 275 l 286 275 l 286 119 q 253 41 286 74 q 175 8 221 8 q 97 41 129 8 q 64 119 64 74 l 64 814 q 76 876 64 847 q 110 926 89 904 q 160 960 132 947 q 222 972 189 972 l 565 972 m 565 879 q 665 859 618 879 q 746 804 711 839 q 801 723 781 769 q 821 624 821 676 q 801 524 821 571 q 746 443 781 478 q 665 388 711 408 q 565 368 618 368 l 193 368 l 193 119 q 175 103 193 103 q 157 119 157 103 l 157 814 q 176 860 157 842 q 222 879 194 879 l 565 879 m 565 785 q 628 772 599 785 q 679 738 657 760 q 714 686 701 715 q 726 624 726 657 q 714 561 726 590 q 679 510 701 532 q 628 475 657 488 q 565 463 599 463 l 268 463 q 251 479 251 463 l 251 768 q 268 785 251 785 l 565 785 z "},"Q":{"ha":1017,"x_min":26,"x_max":990,"o":"m 601 21 q 589 39 589 26 q 603 54 592 51 q 744 112 679 71 q 855 211 808 153 q 928 341 901 269 q 954 490 954 413 q 919 664 954 582 q 823 806 883 746 q 681 902 763 867 q 508 938 600 938 q 334 902 415 938 q 192 806 253 867 q 97 664 132 746 q 61 490 61 582 q 88 339 61 411 q 162 208 114 267 q 275 110 210 150 q 418 53 340 69 q 432 36 432 50 q 449 -30 435 1 q 488 -84 464 -61 q 543 -120 511 -107 q 611 -133 575 -133 l 710 -133 q 764 -111 742 -133 q 786 -57 786 -89 q 764 -3 786 -25 q 710 19 742 19 l 611 19 q 606 19 608 19 q 601 21 603 19 m 508 138 q 646 165 582 138 q 758 241 710 193 q 833 353 806 289 q 861 490 861 418 q 833 628 861 564 q 758 740 806 692 q 646 815 710 788 q 508 843 582 843 q 372 815 436 843 q 259 740 307 788 q 183 628 211 692 q 156 490 156 564 q 183 353 156 418 q 259 241 211 289 q 372 165 307 193 q 508 138 436 138 m 508 231 q 610 251 563 231 q 692 306 657 271 q 748 389 728 342 q 768 490 768 436 q 748 592 768 544 q 692 674 728 639 q 610 730 657 710 q 508 750 563 750 q 407 730 454 750 q 324 674 360 710 q 269 592 289 639 q 249 490 249 544 q 269 389 249 436 q 324 306 289 342 q 407 251 360 271 q 508 231 454 231 m 896 490 q 867 343 896 413 q 788 222 838 274 q 670 138 738 169 q 525 103 603 107 l 525 46 q 550 -15 525 10 q 611 -39 575 -39 l 710 -39 q 726 -57 726 -39 q 710 -75 726 -75 l 611 -75 q 526 -40 561 -75 q 490 46 490 -4 l 490 103 q 346 138 414 107 q 228 222 278 169 q 149 343 178 274 q 119 490 119 413 q 150 642 119 571 q 233 765 181 713 q 357 849 286 818 q 508 879 428 879 q 659 849 589 879 q 782 765 729 818 q 865 642 835 713 q 896 490 896 571 m 990 490 q 970 353 990 419 q 913 231 950 288 q 825 128 876 174 q 711 54 774 83 q 789 21 757 53 q 821 -57 821 -11 q 788 -135 821 -103 q 710 -168 756 -168 l 611 -168 q 533 -153 569 -168 q 467 -114 496 -139 q 421 -54 439 -89 q 399 21 403 -19 q 249 85 318 40 q 131 192 181 129 q 54 331 82 254 q 26 490 26 407 q 64 678 26 590 q 167 831 101 765 q 321 934 233 896 q 508 972 408 972 q 696 934 608 972 q 849 831 783 896 q 952 678 914 765 q 990 490 990 590 m 508 785 q 623 762 569 785 q 717 699 676 739 q 780 605 757 658 q 803 490 803 551 q 780 376 803 429 q 717 282 757 322 q 623 219 676 242 q 508 196 569 196 q 394 219 447 196 q 300 282 340 242 q 237 376 260 322 q 214 490 214 429 q 237 605 214 551 q 300 699 260 658 q 394 762 340 739 q 508 785 447 785 z "},"R":{"ha":956,"x_min":64,"x_max":915,"o":"m 879 122 q 854 176 876 156 l 704 315 q 699 331 697 322 q 707 344 699 339 q 833 460 786 385 q 879 624 879 535 q 854 746 879 689 q 787 845 829 803 q 688 913 744 888 q 565 938 631 938 l 222 938 q 135 901 171 938 q 99 814 99 865 l 99 119 q 121 66 99 88 q 175 44 143 44 q 229 66 207 44 q 251 119 251 88 l 251 292 q 268 310 251 310 l 479 310 q 492 306 488 310 l 751 64 q 803 44 774 44 q 857 67 835 44 q 879 122 879 89 m 565 403 q 651 420 611 403 q 720 468 690 438 q 767 538 750 499 q 785 624 785 578 q 767 709 785 669 q 720 778 750 749 q 651 826 690 808 q 565 843 611 843 l 222 843 q 201 835 210 843 q 193 814 193 826 l 193 403 l 565 403 m 286 497 l 565 497 q 655 534 618 497 q 692 624 692 571 q 655 713 692 676 q 565 750 618 750 l 286 750 l 286 497 m 726 624 q 714 561 726 590 q 679 510 701 532 q 628 475 657 488 q 565 463 599 463 l 268 463 q 251 479 251 463 l 251 768 q 268 785 251 785 l 565 785 q 628 772 599 785 q 679 738 657 760 q 714 686 701 715 q 726 624 726 657 m 744 325 l 878 201 q 914 124 911 172 q 885 44 915 81 q 803 8 851 8 q 726 39 760 8 l 472 275 l 286 275 l 286 119 q 253 41 286 74 q 175 8 221 8 q 97 41 129 8 q 64 119 64 74 l 64 814 q 76 876 64 847 q 110 926 89 904 q 160 960 132 947 q 222 972 189 972 l 565 972 q 701 944 638 972 q 811 869 764 917 q 886 759 858 822 q 914 624 914 696 q 869 452 914 531 q 746 325 825 374 l 744 325 m 815 133 q 815 108 828 121 q 803 103 811 103 q 790 107 797 103 l 510 368 l 193 368 l 193 119 q 175 103 193 103 q 157 119 157 103 l 157 814 q 176 860 157 842 q 222 879 194 879 l 565 879 q 665 859 618 879 q 746 804 711 839 q 801 723 781 769 q 821 624 821 676 q 801 524 821 571 q 746 443 781 478 q 665 388 711 408 q 565 368 618 368 l 561 368 l 815 133 z "},"S":{"ha":911,"x_min":35,"x_max":885,"o":"m 536 707 q 672 679 608 707 q 782 604 735 651 q 857 493 829 557 q 885 357 885 429 q 857 222 885 285 q 782 111 829 158 q 672 36 735 64 q 536 8 608 8 l 146 8 q 67 41 100 8 q 35 119 35 74 q 67 199 35 167 q 146 231 100 231 l 536 231 q 626 267 589 231 q 663 357 663 304 q 653 406 663 383 q 626 447 643 429 q 585 474 608 464 q 536 483 563 483 l 279 483 q 185 503 229 483 q 107 556 140 522 q 54 633 74 589 q 35 728 35 678 q 54 822 35 778 q 107 900 74 867 q 185 953 140 933 q 279 972 229 972 l 675 972 q 754 940 722 972 q 786 861 786 907 q 754 783 786 815 q 675 750 722 750 l 279 750 q 257 728 257 750 q 263 713 257 719 q 279 707 269 707 l 536 707 m 536 44 q 658 69 601 44 q 758 136 715 93 q 825 236 800 179 q 850 357 850 293 q 825 479 850 422 q 758 579 800 536 q 658 647 715 622 q 536 671 601 671 l 279 671 q 239 688 256 671 q 222 728 222 704 q 239 768 222 751 q 279 785 256 785 l 675 785 q 729 807 707 785 q 751 861 751 829 q 729 915 751 893 q 675 938 707 938 l 279 938 q 198 921 236 938 q 131 876 160 904 q 86 809 103 847 q 69 728 69 771 q 86 647 69 685 q 131 581 103 608 q 198 536 160 553 q 279 519 236 519 l 536 519 q 599 507 569 519 q 650 472 628 494 q 685 420 672 450 q 697 357 697 390 q 685 294 697 324 q 650 243 672 265 q 599 208 628 221 q 536 196 569 196 l 146 196 q 92 174 114 196 q 69 119 69 151 q 92 66 69 88 q 146 44 114 44 l 536 44 m 536 613 q 635 592 589 613 q 717 538 682 572 q 772 456 751 503 q 792 357 792 410 q 772 258 792 304 q 717 177 751 211 q 635 123 682 143 q 536 103 589 103 l 146 103 q 128 119 128 103 q 146 138 128 138 l 536 138 q 622 155 582 138 q 691 202 661 172 q 738 272 721 232 q 756 357 756 311 q 738 443 756 403 q 691 513 721 483 q 622 560 661 543 q 536 578 582 578 l 279 578 q 221 590 249 578 q 172 622 193 601 q 140 669 151 642 q 128 728 128 697 q 140 787 128 760 q 172 835 151 814 q 221 867 193 856 q 279 879 249 879 l 675 879 q 693 861 693 879 q 675 843 693 843 l 279 843 q 197 810 231 843 q 164 728 164 776 q 197 646 164 679 q 279 613 231 613 l 536 613 z "},"T":{"ha":842,"x_min":0,"x_max":842,"o":"m 731 972 q 809 940 776 972 q 842 861 842 907 q 809 783 842 815 q 731 750 776 750 l 532 750 l 532 119 q 499 41 532 74 q 421 8 467 8 q 342 41 375 8 q 310 119 310 74 l 310 750 l 111 750 q 33 783 65 750 q 0 861 0 815 q 33 940 0 907 q 111 972 65 972 l 731 972 m 731 785 q 784 807 763 785 q 806 861 806 829 q 784 915 806 893 q 731 938 763 938 l 111 938 q 57 915 79 938 q 35 861 35 893 q 57 807 35 829 q 111 785 79 785 l 326 785 q 344 768 344 785 l 344 119 q 367 66 344 88 q 421 44 389 44 q 475 66 453 44 q 497 119 497 88 l 497 768 q 514 785 497 785 l 731 785 m 729 879 q 747 861 747 879 q 729 843 747 843 l 438 843 l 438 119 q 421 103 438 103 q 403 119 403 103 l 403 843 l 111 843 q 94 861 94 843 q 111 879 94 879 l 729 879 z "},"U":{"ha":1014,"x_min":47,"x_max":965,"o":"m 854 972 q 933 940 900 972 q 965 861 965 907 l 965 468 q 929 290 965 374 q 831 143 893 206 q 685 44 768 81 q 507 8 601 8 q 328 44 411 8 q 182 143 244 81 q 83 290 119 206 q 47 468 47 374 l 47 861 q 80 940 47 907 q 158 972 113 972 q 237 940 204 972 q 269 861 269 907 l 269 468 q 288 376 269 419 q 340 301 307 333 q 415 249 372 268 q 507 231 458 231 q 599 249 556 231 q 674 301 642 268 q 724 376 706 333 q 743 468 743 419 l 743 861 q 776 940 743 907 q 854 972 808 972 m 931 861 q 908 915 931 893 q 854 938 886 938 q 800 915 822 938 q 778 861 778 893 l 778 468 q 756 363 778 413 q 699 276 735 313 q 613 217 663 239 q 507 196 564 196 q 401 217 451 196 q 315 276 351 239 q 256 363 278 313 q 235 468 235 413 l 235 861 q 213 915 235 893 q 158 938 190 938 q 104 915 126 938 q 82 861 82 893 l 82 468 q 115 303 82 381 q 206 169 149 226 q 342 78 264 111 q 507 44 419 44 q 672 78 594 44 q 806 169 749 111 q 897 303 864 226 q 931 468 931 381 l 931 861 m 854 879 q 872 861 872 879 l 872 468 q 844 326 872 393 q 765 210 815 260 q 649 131 715 160 q 507 103 582 103 q 364 131 431 103 q 247 210 297 160 q 169 326 197 260 q 140 468 140 393 l 140 861 q 158 879 140 879 q 176 861 176 879 l 176 468 q 202 340 176 400 q 273 235 228 279 q 378 164 318 190 q 507 138 439 138 q 635 164 575 138 q 740 235 696 190 q 811 340 785 279 q 838 468 838 400 l 838 861 q 854 879 838 879 z "},"V":{"ha":1008,"x_min":3,"x_max":1004,"o":"m 958 825 q 965 883 974 853 q 928 928 956 913 q 892 936 911 936 q 854 926 872 936 q 825 897 836 917 l 515 314 q 499 304 507 303 q 483 314 489 304 l 183 896 q 155 926 172 915 q 115 938 138 938 q 81 929 97 938 q 43 884 53 914 q 47 826 33 854 l 431 85 q 458 55 440 65 q 497 44 476 44 l 499 26 l 499 44 q 538 55 519 44 q 565 85 556 65 l 958 825 m 944 960 q 978 931 965 949 q 998 893 992 914 q 1003 851 1004 872 q 990 808 1001 829 l 596 68 q 555 24 581 40 q 499 8 529 8 l 497 8 q 440 26 465 10 q 400 69 414 42 l 17 810 q 5 852 7 831 q 9 894 3 874 q 29 933 15 915 q 64 960 43 950 q 115 972 88 972 q 149 967 133 972 q 214 913 192 954 l 500 360 l 793 913 q 835 956 808 940 q 893 972 863 972 q 944 960 919 972 m 900 876 q 908 867 907 874 q 907 853 910 860 l 514 111 q 499 103 510 103 q 482 113 489 101 l 100 853 q 99 867 97 860 q 107 876 100 874 q 121 878 114 879 q 131 869 128 876 l 499 158 l 876 869 q 886 878 879 876 q 900 876 893 879 z "},"W":{"ha":1525,"x_min":3,"x_max":1529,"o":"m 1418 876 q 1426 867 1425 874 q 1425 853 1428 860 l 1031 111 q 1015 103 1026 103 q 1000 113 1004 103 l 760 576 l 514 113 q 499 103 510 103 q 483 113 488 100 l 100 853 q 99 867 97 860 q 107 876 100 874 q 121 878 114 879 q 131 869 128 876 l 499 158 l 740 614 l 617 853 q 616 867 614 860 q 625 876 618 874 q 639 878 632 879 q 649 869 646 876 l 1015 158 l 1393 869 q 1418 876 1403 883 m 1461 958 q 1515 894 1501 938 q 1507 808 1529 850 l 1114 68 q 1073 24 1099 40 q 1015 8 1047 8 q 958 25 983 8 q 917 69 932 42 l 760 375 l 596 68 q 555 24 581 40 q 499 8 529 8 q 440 25 467 8 q 399 69 414 42 l 17 810 q 5 852 7 831 q 9 894 3 874 q 29 933 15 915 q 64 960 43 950 q 115 972 89 972 q 172 956 146 972 q 214 913 199 940 l 499 360 l 635 615 l 535 810 q 522 852 524 831 q 527 894 521 874 q 547 933 533 915 q 582 960 561 950 q 633 972 606 972 q 690 956 664 972 q 732 913 717 940 l 1017 360 l 1311 914 q 1353 957 1326 942 q 1408 972 1379 972 q 1461 958 1433 972 m 1476 825 q 1482 883 1492 853 q 1444 928 1472 913 q 1410 936 1428 936 q 1371 926 1389 936 q 1342 897 1353 917 l 1032 314 q 1017 304 1028 304 q 1008 306 1013 303 q 1001 314 1004 310 l 700 896 q 656 933 688 925 q 633 938 646 938 q 599 929 615 938 q 560 884 571 914 q 565 826 550 854 l 671 624 q 669 607 674 614 l 515 314 q 499 304 508 304 q 483 314 489 303 l 183 896 q 154 926 172 915 q 115 938 136 938 q 81 929 97 938 q 43 884 53 914 q 47 826 33 854 l 431 85 q 458 55 440 65 q 497 44 476 44 q 538 55 519 44 q 565 85 556 65 l 744 421 q 760 429 749 429 q 775 421 771 429 l 949 85 q 976 55 958 65 q 1015 44 994 44 q 1054 55 1036 44 q 1083 85 1072 65 l 1476 825 z "},"X":{"ha":1008,"x_min":24,"x_max":983,"o":"m 885 138 q 885 113 897 125 q 872 107 879 107 q 861 113 867 107 l 504 468 l 147 113 q 135 107 142 107 q 122 113 131 107 q 122 138 110 125 l 479 493 l 122 849 q 122 874 110 861 q 147 874 135 886 l 504 518 l 860 874 q 885 874 872 886 q 885 849 897 861 l 529 493 l 885 138 m 951 204 q 983 125 983 172 q 951 47 983 79 q 874 14 919 14 q 794 47 828 14 l 504 336 l 213 46 q 135 15 182 15 q 56 47 88 15 q 24 125 24 78 q 57 204 24 171 l 346 493 l 57 782 q 24 861 24 815 q 56 940 24 908 q 135 972 88 972 q 213 940 181 972 l 504 650 l 794 940 q 872 971 825 971 q 951 940 918 971 q 983 861 983 908 q 951 782 983 814 l 661 493 l 951 204 m 949 125 q 926 179 949 154 l 624 481 q 619 493 619 485 q 624 506 619 501 l 926 807 q 949 861 949 829 q 926 915 949 890 q 901 931 915 926 q 872 936 888 936 q 818 915 842 936 l 515 613 q 492 613 504 600 l 189 915 q 164 931 178 926 q 135 936 150 936 q 81 915 104 936 q 58 861 58 890 q 81 807 58 832 l 383 506 q 389 493 389 500 q 383 481 389 486 l 81 179 q 58 125 58 154 q 81 71 58 93 q 135 49 103 49 q 189 71 167 49 l 492 374 q 504 378 496 378 q 515 374 511 378 l 819 71 q 874 50 840 50 q 927 72 906 50 q 949 125 949 93 z "},"Y":{"ha":961,"x_min":0,"x_max":961,"o":"m 838 874 q 861 874 849 886 q 861 849 874 861 l 499 486 l 499 121 q 481 103 499 103 q 463 121 463 103 l 463 486 l 99 849 q 99 874 86 861 q 124 874 111 886 l 481 518 l 838 874 m 928 939 q 952 903 943 924 q 960 861 961 883 q 928 782 960 814 l 592 447 l 592 119 q 559 41 592 74 q 481 8 526 8 q 402 41 435 8 q 369 119 369 74 l 369 447 l 33 782 q 0 861 0 814 q 33 940 0 908 q 111 971 65 971 q 153 963 133 971 q 189 940 174 956 l 481 650 l 771 940 q 807 963 786 956 q 849 971 828 971 q 928 939 896 971 m 903 807 q 925 861 925 829 q 903 915 925 893 q 850 936 882 936 q 796 915 819 936 l 493 613 q 468 613 481 600 l 165 915 q 111 938 140 938 q 57 915 79 938 q 35 861 35 893 q 57 807 35 829 l 399 467 q 404 454 404 463 l 404 119 q 426 66 404 88 q 481 44 449 44 q 535 66 513 44 q 557 119 557 88 l 557 454 q 561 467 557 463 l 903 807 z "},"Z":{"ha":963,"x_min":19,"x_max":942,"o":"m 826 138 q 844 119 844 138 q 826 103 844 103 l 215 103 q 167 133 179 103 q 176 190 153 165 l 760 815 q 765 826 765 821 q 763 833 764 831 q 758 840 761 836 q 747 843 754 843 l 135 843 q 117 861 117 843 q 135 879 117 879 l 747 879 q 794 847 781 879 q 785 790 807 817 l 203 167 q 197 155 196 160 q 199 149 199 150 q 203 142 200 146 q 215 138 207 138 l 826 138 m 826 232 q 905 199 872 232 q 938 119 938 167 q 905 41 938 74 q 826 8 872 8 l 135 8 q 74 26 101 8 q 33 76 46 44 q 25 140 19 107 q 54 196 31 172 l 571 750 l 135 750 q 56 783 89 750 q 24 861 24 815 q 56 940 24 907 q 135 972 89 972 l 826 972 q 888 954 860 972 q 928 906 915 936 q 936 842 942 875 q 908 785 931 810 l 390 232 l 826 232 m 826 44 q 881 66 858 44 q 903 119 903 88 q 881 174 903 151 q 826 196 858 196 l 350 196 q 335 207 339 196 q 338 225 329 218 l 882 810 q 901 849 897 826 q 896 892 906 871 q 869 925 888 913 q 826 938 850 938 l 135 938 q 81 915 103 938 q 58 861 58 893 q 81 807 58 829 q 135 785 103 785 l 611 785 q 628 775 624 785 q 624 756 632 764 l 79 172 q 60 133 64 156 q 65 90 56 111 q 93 57 75 69 q 135 44 111 44 l 826 44 z "},"[":{"ha":554,"x_min":69,"x_max":508,"o":"m 397 18 q 414 0 414 18 q 397 -18 414 -18 l 181 -18 q 163 0 163 -18 l 163 861 q 181 879 163 879 l 397 879 q 414 861 414 879 q 397 843 414 843 l 199 843 l 199 18 l 397 18 m 397 111 q 476 78 443 111 q 508 0 508 46 q 476 -78 508 -46 q 397 -111 443 -111 l 181 -111 q 102 -78 135 -111 q 69 0 69 -46 l 69 861 q 102 940 69 907 q 181 972 135 972 l 397 972 q 476 940 443 972 q 508 861 508 907 q 476 783 508 815 q 397 750 443 750 l 292 750 l 292 111 l 397 111 m 397 -76 q 451 -54 429 -76 q 472 0 472 -32 q 451 54 472 32 q 397 76 429 76 l 274 76 q 257 93 257 76 l 257 768 q 274 785 257 785 l 397 785 q 451 807 429 785 q 472 861 472 829 q 451 915 472 893 q 397 938 429 938 l 181 938 q 126 915 149 938 q 104 861 104 893 l 104 0 q 126 -54 104 -32 q 181 -76 149 -76 l 397 -76 z "},"\\":{"ha":963,"x_min":18,"x_max":940,"o":"m 908 196 q 939 117 940 163 q 904 39 938 71 q 828 8 871 8 q 747 44 781 8 l 51 785 q 21 864 18 819 q 56 942 24 911 q 93 965 72 957 q 135 972 114 972 q 177 963 157 971 q 213 938 197 954 l 908 196 m 879 64 q 904 117 903 86 q 883 172 906 149 l 188 913 q 132 938 165 938 q 81 917 101 938 q 56 864 58 896 q 76 808 56 832 l 772 68 q 825 44 793 46 q 879 64 857 43 m 840 132 q 840 107 853 119 q 828 103 835 103 q 815 108 819 103 l 119 849 q 119 874 107 861 q 144 874 132 886 l 840 132 z "},"]":{"ha":554,"x_min":46,"x_max":485,"o":"m 374 879 q 390 861 390 879 l 390 0 q 374 -18 390 -18 l 157 -18 q 139 0 139 -18 q 157 18 139 18 l 356 18 l 356 843 l 157 843 q 139 861 139 843 q 157 879 139 879 l 374 879 m 374 972 q 452 940 419 972 q 485 861 485 907 l 485 0 q 452 -78 485 -46 q 374 -111 419 -111 l 157 -111 q 78 -78 111 -111 q 46 0 46 -46 q 78 78 46 46 q 157 111 111 111 l 263 111 l 263 750 l 157 750 q 78 783 111 750 q 46 861 46 815 q 78 940 46 907 q 157 972 111 972 l 374 972 m 449 861 q 427 915 449 893 q 374 938 406 938 l 157 938 q 103 915 125 938 q 81 861 81 893 q 103 807 81 829 q 157 785 125 785 l 279 785 q 297 768 297 785 l 297 93 q 279 76 297 76 l 157 76 q 103 54 125 76 q 81 0 81 32 q 103 -54 81 -32 q 157 -76 125 -76 l 374 -76 q 427 -54 406 -76 q 449 0 449 -32 l 449 861 z "},"^":{"ha":628,"x_min":38,"x_max":588,"o":"m 485 571 q 485 557 488 564 q 476 547 483 550 q 453 554 463 540 l 308 824 l 174 556 q 158 546 169 546 q 150 547 153 546 q 142 557 143 550 q 143 571 140 564 l 293 869 q 308 879 297 876 q 317 876 313 878 q 324 869 321 874 l 485 571 m 567 615 q 575 531 588 575 q 521 465 563 488 q 468 451 499 451 q 412 467 438 451 q 371 510 386 482 l 311 619 l 258 513 q 231 479 249 493 q 193 458 214 465 q 151 453 172 451 q 108 464 129 454 q 53 528 68 483 q 60 613 38 571 l 210 911 q 249 956 224 939 q 307 972 275 972 q 365 957 339 972 q 407 914 392 942 l 567 615 m 542 540 q 536 599 550 569 l 375 897 q 347 927 365 917 q 308 938 329 938 q 268 925 286 936 q 240 894 250 914 l 90 597 q 86 539 76 567 q 124 494 97 508 q 182 491 151 481 q 226 529 213 501 l 296 665 q 311 675 300 675 l 311 675 q 326 667 322 675 l 401 526 q 447 490 417 500 q 504 496 476 481 q 542 540 533 511 z "},"_":{"ha":731,"x_min":46,"x_max":683,"o":"m 572 138 q 590 119 590 138 q 572 103 590 103 l 157 103 q 139 119 139 103 q 157 138 139 138 l 572 138 m 572 231 q 651 199 618 231 q 683 119 683 167 q 651 41 683 74 q 572 8 618 8 l 157 8 q 78 41 111 8 q 46 119 46 74 q 78 199 46 167 q 157 231 111 231 l 572 231 m 572 44 q 626 66 604 44 q 649 119 649 88 q 626 174 649 151 q 572 196 604 196 l 157 196 q 103 174 125 196 q 81 119 81 151 q 103 66 81 88 q 157 44 125 44 l 572 44 z "},"`":{"ha":399,"x_min":39,"x_max":358,"o":"m 254 1072 q 257 1058 258 1065 q 249 1049 256 1051 q 239 1046 243 1046 q 225 1054 229 1046 l 143 1185 q 149 1210 136 1200 q 174 1204 164 1217 l 254 1072 m 333 1122 q 347 1038 358 1083 q 297 968 336 993 q 269 956 285 961 q 239 951 254 951 q 185 966 210 951 q 144 1004 160 981 l 64 1136 q 50 1219 39 1176 q 100 1289 61 1265 q 158 1306 128 1306 q 253 1253 219 1306 l 333 1122 m 314 1046 q 304 1103 321 1078 l 224 1235 q 158 1271 201 1271 q 118 1260 138 1271 q 85 1213 92 1242 q 93 1154 76 1183 l 175 1024 q 222 990 190 997 q 279 999 253 982 q 314 1046 306 1014 z "},"a":{"ha":1008,"x_min":-4,"x_max":1011,"o":"m 483 668 q 499 676 488 676 l 499 676 q 515 668 510 676 l 667 382 q 665 365 672 372 q 651 356 661 356 l 351 356 q 338 365 343 356 q 336 382 331 372 l 483 668 m 381 392 l 622 392 l 500 621 l 381 392 m 990 172 q 999 88 1011 132 q 943 22 983 43 q 892 8 921 8 q 858 14 874 8 q 793 68 815 26 l 740 169 l 267 169 l 214 69 q 173 25 199 42 q 115 8 147 8 q 64 21 88 8 q 10 87 24 43 q 17 171 -4 131 l 400 913 q 440 956 414 940 q 497 972 465 972 q 556 957 529 972 q 596 914 582 942 l 990 172 m 964 97 q 958 156 974 126 l 565 897 q 538 927 556 917 q 499 938 519 938 q 458 926 476 936 q 431 896 440 915 l 47 156 q 43 98 33 128 q 81 53 53 68 q 138 48 107 39 q 183 85 168 57 l 240 194 q 256 204 246 204 l 750 204 q 767 194 760 204 l 825 85 q 869 47 838 56 q 928 53 901 39 q 964 97 956 68 m 907 128 q 900 104 914 114 q 886 103 893 101 q 876 111 879 104 l 796 263 l 208 263 l 131 113 q 115 103 126 103 q 107 104 110 103 q 99 114 100 107 q 100 128 97 121 l 482 869 q 499 879 489 879 l 499 879 q 514 869 510 879 l 907 128 m 778 297 l 499 824 l 226 297 l 778 297 z "},"b":{"ha":940,"x_min":63,"x_max":913,"o":"m 564 138 q 649 155 610 138 q 719 202 689 172 q 766 272 749 232 q 783 357 783 311 q 766 443 783 403 q 719 513 749 483 q 649 560 689 543 q 564 578 610 578 l 192 578 l 192 167 q 200 146 192 154 q 221 138 208 138 l 564 138 m 564 231 q 653 267 617 231 q 690 357 690 304 q 681 406 690 383 q 653 447 671 429 q 613 474 636 464 q 564 483 590 483 l 285 483 l 285 231 l 564 231 m 285 707 l 571 707 q 585 713 579 707 q 592 728 592 719 q 585 744 592 738 q 571 750 579 750 l 285 750 l 285 707 m 192 613 l 571 613 q 653 646 619 613 q 686 728 686 679 q 653 810 686 776 q 571 843 619 843 l 221 843 q 200 835 208 843 q 192 814 192 826 l 192 613 m 564 44 q 686 69 629 44 q 785 136 743 93 q 853 236 828 179 q 878 357 878 293 q 847 494 878 431 q 757 603 815 558 q 753 626 746 613 q 779 728 779 671 q 763 809 779 771 q 718 876 746 847 q 652 921 690 904 q 571 938 614 938 l 221 938 q 133 901 169 938 q 97 814 97 865 l 97 167 q 133 80 97 115 q 221 44 169 44 l 564 44 m 790 622 q 881 503 849 572 q 913 357 913 435 q 885 222 913 285 q 810 111 857 158 q 699 36 763 64 q 564 8 636 8 l 221 8 q 159 21 188 8 q 109 55 131 33 q 75 105 88 76 q 63 167 63 133 l 63 814 q 75 876 63 847 q 109 926 88 904 q 159 960 131 947 q 221 972 188 972 l 571 972 q 665 953 621 972 q 743 900 710 933 q 796 822 776 867 q 815 728 815 778 q 790 622 815 671 m 646 599 q 770 507 721 572 q 819 357 819 442 q 799 258 819 304 q 744 177 779 211 q 663 123 710 143 q 564 103 617 103 l 221 103 q 174 122 193 103 q 156 167 156 140 l 156 814 q 174 860 156 842 q 221 879 193 879 l 571 879 q 628 867 601 879 q 676 835 656 856 q 709 787 697 814 q 721 728 721 760 q 700 652 721 686 q 646 599 679 618 m 564 519 q 626 507 597 519 q 678 472 656 494 q 713 420 700 450 q 725 357 725 390 q 713 294 725 324 q 678 243 700 265 q 626 208 656 221 q 564 196 597 196 l 267 196 q 250 214 250 196 l 250 501 q 267 519 250 519 l 564 519 m 628 728 q 611 688 628 704 q 571 671 594 671 l 267 671 q 250 689 250 671 l 250 768 q 267 785 250 785 l 571 785 q 611 768 594 785 q 628 728 628 751 z "},"c":{"ha":914,"x_min":28,"x_max":882,"o":"m 693 307 q 772 339 725 339 q 850 308 818 339 q 882 229 882 276 q 850 150 882 182 q 693 46 781 82 q 510 10 606 10 q 325 46 413 10 q 168 150 238 82 q 63 309 97 221 q 28 490 28 397 q 63 672 28 583 q 168 831 97 760 q 325 936 238 900 q 510 972 413 972 q 693 936 606 972 q 850 831 781 900 q 882 753 882 799 q 851 674 882 706 q 772 643 819 643 q 729 651 750 643 q 693 674 708 658 q 608 731 656 713 q 510 750 560 750 q 412 731 460 750 q 326 674 364 713 q 269 588 289 636 q 250 490 250 540 q 269 392 250 440 q 326 307 289 344 q 410 251 363 271 q 510 232 457 232 q 693 307 615 232 m 825 175 q 847 229 847 197 q 825 283 847 261 q 771 304 803 304 q 718 282 739 304 q 622 218 676 240 q 510 196 568 196 q 395 219 449 196 q 301 282 342 242 q 238 376 261 322 q 215 490 215 429 q 238 605 215 551 q 301 699 261 658 q 394 762 340 739 q 510 785 449 785 q 621 764 567 785 q 718 699 675 743 q 771 676 740 676 q 825 699 803 676 q 847 753 847 721 q 825 807 847 782 q 677 905 758 872 q 510 938 596 938 q 341 905 422 938 q 193 807 260 872 q 95 659 128 742 q 63 490 63 576 q 95 322 63 404 q 193 175 128 240 q 338 78 257 111 q 510 44 419 44 q 681 78 600 44 q 825 175 761 111 m 758 240 q 783 240 771 253 q 783 217 796 229 q 656 131 726 158 q 510 103 585 103 q 363 131 435 103 q 235 217 292 158 q 149 345 178 274 q 121 491 121 417 q 149 637 121 565 q 235 765 178 708 q 364 851 293 824 q 510 879 435 879 q 656 851 585 879 q 783 765 726 824 q 783 740 796 753 q 758 740 771 728 q 642 818 707 793 q 510 843 578 843 q 377 818 442 843 q 260 740 313 793 q 183 624 208 689 q 157 491 157 558 q 183 358 157 424 q 260 240 208 293 q 377 163 313 189 q 510 138 442 138 q 642 163 578 138 q 758 240 707 189 z "},"d":{"ha":974,"x_min":63,"x_max":946,"o":"m 464 44 q 637 80 556 44 q 778 176 718 115 q 874 317 839 236 q 910 490 910 399 q 874 664 910 582 q 778 806 839 746 q 637 902 718 867 q 464 938 556 938 l 221 938 q 133 901 169 938 q 97 814 97 865 l 97 167 q 133 80 97 115 q 221 44 169 44 l 464 44 m 464 138 q 601 165 538 138 q 713 241 665 193 q 789 353 761 289 q 817 490 817 418 q 789 628 817 564 q 713 740 761 692 q 601 815 665 788 q 464 843 538 843 l 221 843 q 200 835 208 843 q 192 814 192 826 l 192 167 q 200 146 192 154 q 221 138 208 138 l 464 138 m 464 231 q 565 251 518 231 q 648 306 613 271 q 703 389 683 342 q 724 490 724 436 q 703 592 724 544 q 648 674 683 639 q 565 730 613 710 q 464 750 518 750 l 285 750 l 285 231 l 464 231 m 464 879 q 615 849 544 879 q 738 765 685 818 q 821 642 790 713 q 851 490 851 571 q 821 340 851 410 q 738 217 790 269 q 615 133 685 164 q 464 103 544 103 l 221 103 q 174 122 193 103 q 156 167 156 140 l 156 814 q 174 860 156 842 q 221 879 193 879 l 464 879 m 464 972 q 651 934 564 972 q 804 831 739 896 q 908 678 869 765 q 946 490 946 590 q 908 303 946 390 q 804 150 869 215 q 651 47 739 85 q 464 8 564 8 l 221 8 q 159 21 188 8 q 109 55 131 33 q 75 105 88 76 q 63 167 63 133 l 63 814 q 75 876 63 847 q 109 926 88 904 q 159 960 131 947 q 221 972 188 972 l 464 972 m 464 785 q 578 762 525 785 q 672 699 632 739 q 735 605 713 658 q 758 490 758 551 q 735 376 758 429 q 672 282 713 322 q 578 219 632 242 q 464 196 525 196 l 267 196 q 250 214 250 196 l 250 768 q 267 785 250 785 l 464 785 z "},"e":{"ha":894,"x_min":63,"x_max":871,"o":"m 760 44 q 814 66 792 44 q 836 119 836 88 q 814 174 836 151 q 760 196 792 196 l 267 196 q 250 214 250 196 l 250 397 q 267 414 250 414 l 494 414 q 548 436 526 414 q 569 490 569 458 q 548 544 569 522 q 494 567 526 567 l 267 567 q 250 583 250 567 l 250 768 q 267 785 250 785 l 760 785 q 814 807 792 785 q 836 861 836 829 q 814 915 836 893 q 760 938 792 938 l 221 938 q 133 901 169 938 q 97 814 97 865 l 97 167 q 133 80 97 115 q 221 44 169 44 l 760 44 m 760 232 q 838 199 806 232 q 871 119 871 167 q 838 41 871 74 q 760 8 806 8 l 221 8 q 159 21 188 8 q 109 55 131 33 q 75 105 88 76 q 63 167 63 133 l 63 814 q 75 876 63 847 q 109 926 88 904 q 159 960 131 947 q 221 972 188 972 l 760 972 q 838 940 806 972 q 871 861 871 907 q 838 783 871 815 q 760 750 806 750 l 285 750 l 285 601 l 494 601 q 573 569 540 601 q 606 490 606 536 q 573 412 606 444 q 494 379 540 379 l 285 379 l 285 232 l 760 232 m 760 138 q 778 119 778 138 q 760 103 778 103 l 221 103 q 174 122 193 103 q 156 167 156 140 l 156 814 q 174 860 156 842 q 221 879 193 879 l 760 879 q 778 861 778 879 q 760 843 778 843 l 221 843 q 200 835 208 843 q 192 814 192 826 l 192 508 l 494 508 q 511 490 511 508 q 494 474 511 474 l 192 474 l 192 167 q 200 146 192 154 q 221 138 208 138 l 760 138 z "},"f":{"ha":874,"x_min":64,"x_max":872,"o":"m 761 972 q 840 940 807 972 q 872 861 872 907 q 840 783 872 815 q 761 750 807 750 l 286 750 l 286 601 l 496 601 q 574 569 542 601 q 607 490 607 536 q 574 412 607 444 q 496 379 542 379 l 286 379 l 286 119 q 253 41 286 74 q 175 8 221 8 q 97 41 129 8 q 64 119 64 74 l 64 814 q 76 876 64 847 q 110 926 89 904 q 160 960 132 947 q 222 972 189 972 l 761 972 m 761 785 q 815 807 793 785 q 838 861 838 829 q 815 915 838 893 q 761 938 793 938 l 222 938 q 135 901 171 938 q 99 814 99 865 l 99 119 q 121 66 99 88 q 175 44 143 44 q 229 66 207 44 q 251 119 251 88 l 251 397 q 268 414 251 414 l 496 414 q 549 436 528 414 q 571 490 571 458 q 549 544 571 522 q 496 567 528 567 l 268 567 q 251 583 251 567 l 251 768 q 268 785 251 785 l 761 785 m 761 879 q 779 861 779 879 q 761 843 779 843 l 222 843 q 201 835 210 843 q 193 814 193 826 l 193 508 l 496 508 q 513 490 513 508 q 496 474 513 474 l 193 474 l 193 119 q 175 103 193 103 q 158 119 158 103 l 158 814 q 176 860 158 842 q 222 879 194 879 l 761 879 z "},"g":{"ha":938,"x_min":28,"x_max":883,"o":"m 725 625 q 785 613 757 625 q 835 578 814 600 q 869 528 857 557 q 882 467 882 500 l 882 119 q 849 41 882 74 q 771 8 817 8 q 690 44 724 8 q 510 8 603 8 q 322 47 410 8 q 169 150 235 85 q 66 303 104 215 q 28 490 28 390 q 66 678 28 590 q 169 831 104 765 q 322 934 235 896 q 510 972 410 972 q 693 936 606 972 q 850 831 781 900 q 883 753 883 797 q 850 674 883 706 q 771 642 817 642 q 693 674 725 642 q 510 750 617 750 q 408 730 456 750 q 326 674 361 710 q 270 592 290 639 q 250 490 250 544 q 270 389 250 436 q 326 307 290 342 q 408 252 361 272 q 510 232 456 232 q 660 279 593 232 l 660 403 l 456 403 q 377 435 410 403 q 344 514 344 468 q 377 592 344 560 q 456 625 410 625 l 725 625 m 847 467 q 838 515 847 492 q 811 554 828 538 q 772 581 794 571 q 725 590 750 590 l 456 590 q 401 568 424 590 q 379 514 379 546 q 401 460 379 482 q 456 438 424 438 l 678 438 q 696 419 696 438 l 696 271 q 689 257 696 261 q 510 196 611 196 q 395 219 449 196 q 301 282 342 242 q 238 376 261 322 q 215 490 215 429 q 238 605 215 551 q 301 699 261 658 q 395 762 342 739 q 510 785 449 785 q 622 763 568 785 q 718 699 675 740 q 771 676 740 676 q 825 699 803 676 q 847 753 847 721 q 825 806 847 785 q 681 903 761 869 q 510 938 600 938 q 336 902 418 938 q 194 806 254 867 q 98 664 133 746 q 63 490 63 582 q 98 317 63 399 q 194 176 133 236 q 336 80 254 115 q 510 44 418 44 q 689 82 604 44 q 692 83 690 82 q 696 83 693 83 q 710 75 706 83 q 771 44 732 44 q 825 66 803 44 q 847 119 847 88 l 847 467 m 725 532 q 770 513 751 532 q 789 467 789 494 l 789 119 q 771 103 789 103 q 754 119 754 103 l 754 189 q 640 125 701 147 q 510 103 578 103 q 358 133 429 103 q 235 217 288 164 q 151 340 182 269 q 121 490 121 410 q 151 642 121 571 q 235 765 182 713 q 358 849 288 818 q 510 879 429 879 q 658 849 588 879 q 783 765 729 819 q 783 740 796 753 q 760 740 771 728 q 645 817 710 790 q 510 843 581 843 q 372 815 436 843 q 260 740 308 788 q 185 628 213 692 q 157 490 157 564 q 185 353 157 417 q 260 241 213 289 q 372 165 308 193 q 510 138 436 138 q 642 163 579 138 q 754 236 704 188 l 754 467 q 745 488 754 479 q 725 496 736 496 l 456 496 q 438 514 438 496 q 456 532 438 532 l 725 532 z "},"h":{"ha":972,"x_min":65,"x_max":907,"o":"m 796 972 q 874 940 842 972 q 907 861 907 907 l 907 119 q 874 41 907 74 q 796 8 842 8 q 717 41 749 8 q 685 119 685 74 l 685 403 l 288 403 l 288 119 q 255 41 288 74 q 176 8 222 8 q 98 41 131 8 q 65 119 65 74 l 65 861 q 98 940 65 907 q 176 972 131 972 q 255 940 222 972 q 288 861 288 907 l 288 625 l 685 625 l 685 861 q 717 940 685 907 q 796 972 749 972 m 871 861 q 849 915 871 893 q 796 938 828 938 q 742 915 764 938 q 719 861 719 893 l 719 607 q 701 590 719 590 l 269 590 q 253 607 253 590 l 253 861 q 231 915 253 893 q 176 938 208 938 q 122 915 144 938 q 100 861 100 893 l 100 119 q 122 66 100 88 q 176 44 144 44 q 231 66 208 44 q 253 119 253 88 l 253 419 q 269 438 253 438 l 701 438 q 719 419 719 438 l 719 119 q 742 66 719 88 q 796 44 764 44 q 849 66 828 44 q 871 119 871 88 l 871 861 m 794 879 q 813 861 813 879 l 813 119 q 794 103 813 103 q 783 108 788 103 q 778 119 778 113 l 778 496 l 194 496 l 194 119 q 176 103 194 103 q 160 119 160 103 l 160 861 q 176 879 160 879 q 194 861 194 879 l 194 532 l 778 532 l 778 861 q 783 874 778 868 q 794 879 788 879 z "},"i":{"ha":544,"x_min":26,"x_max":518,"o":"m 406 138 q 424 119 424 138 q 406 103 424 103 l 138 103 q 119 119 119 103 q 138 138 119 138 l 254 138 l 254 843 l 138 843 q 119 861 119 843 q 138 879 119 879 l 406 879 q 424 861 424 879 q 406 843 424 843 l 289 843 l 289 138 l 406 138 m 406 232 q 485 199 453 232 q 518 119 518 167 q 485 41 518 74 q 406 8 453 8 l 138 8 q 59 41 92 8 q 26 119 26 74 q 59 199 26 167 q 138 232 92 232 l 161 232 l 161 750 l 138 750 q 59 783 92 750 q 26 861 26 815 q 59 940 26 907 q 138 972 92 972 l 406 972 q 485 940 453 972 q 518 861 518 907 q 485 783 518 815 q 406 750 453 750 l 383 750 l 383 232 l 406 232 m 406 44 q 460 66 438 44 q 482 119 482 88 q 460 174 482 151 q 406 196 438 196 l 365 196 q 349 214 349 196 l 349 768 q 365 785 349 785 l 406 785 q 460 807 438 785 q 482 861 482 829 q 460 915 482 893 q 406 938 438 938 l 138 938 q 83 915 106 938 q 61 861 61 893 q 83 807 61 829 q 138 785 106 785 l 178 785 q 196 768 196 785 l 196 214 q 178 196 196 196 l 138 196 q 83 174 106 196 q 61 119 61 151 q 83 66 61 88 q 138 44 106 44 l 406 44 z "},"j":{"ha":894,"x_min":-3,"x_max":840,"o":"m 729 972 q 808 940 775 972 q 840 861 840 907 l 840 417 q 725 115 840 221 q 397 8 610 8 q 274 24 329 8 q 177 65 219 40 q 105 117 135 89 q 56 170 75 146 q 26 213 36 194 q 15 232 17 231 q 13 317 -3 272 q 71 379 28 360 q 156 383 113 399 q 218 325 200 365 q 230 307 219 322 q 261 275 240 292 q 315 244 282 258 q 397 231 349 231 q 518 247 474 231 q 585 290 563 264 q 613 350 607 317 q 618 417 618 383 l 618 861 q 651 940 618 907 q 729 972 683 972 m 806 861 q 783 915 806 893 q 729 938 761 938 q 675 915 697 938 q 653 861 653 893 l 653 417 q 644 337 653 376 q 609 266 636 297 q 532 215 582 235 q 397 196 482 196 q 302 212 342 196 q 238 249 263 228 q 201 288 213 269 q 186 310 189 306 q 143 350 174 339 q 117 354 131 354 q 85 347 97 354 q 46 306 57 335 q 47 247 35 275 q 68 213 49 244 q 129 143 88 181 q 237 75 171 106 q 397 44 303 44 q 699 142 593 44 q 806 417 806 239 l 806 861 m 729 879 q 747 861 747 879 l 747 417 q 659 182 747 261 q 397 103 571 103 q 260 128 317 103 q 169 184 204 153 q 119 242 135 215 q 101 271 103 268 q 110 294 94 288 q 124 295 117 297 q 133 286 131 293 q 149 261 135 285 q 194 210 163 238 q 275 160 225 182 q 397 138 325 138 q 711 417 711 138 l 711 861 q 729 879 711 879 z "},"k":{"ha":971,"x_min":65,"x_max":949,"o":"m 919 190 q 944 108 949 154 q 904 33 940 63 q 871 15 889 22 q 833 8 853 8 q 747 50 781 8 l 460 403 l 288 403 l 288 119 q 255 41 288 74 q 176 8 222 8 q 98 41 131 8 q 65 119 65 74 l 65 861 q 98 940 65 907 q 176 972 131 972 q 255 940 222 972 q 288 861 288 907 l 288 625 l 464 625 l 751 936 q 790 963 768 954 q 833 972 811 972 q 910 943 876 972 q 935 908 926 928 q 945 866 944 888 q 938 824 946 844 q 915 786 931 803 l 658 510 l 919 190 m 882 61 q 909 113 906 81 q 893 168 913 144 l 622 499 q 622 522 613 511 l 889 810 q 910 865 911 833 q 885 917 908 896 q 833 938 864 938 q 778 913 801 938 l 483 596 q 471 590 479 590 l 269 590 q 253 607 253 590 l 253 861 q 231 915 253 893 q 176 938 208 938 q 122 915 144 938 q 100 861 100 893 l 100 121 q 122 67 100 89 q 176 44 144 44 q 231 67 208 44 q 253 121 253 89 l 253 421 q 269 438 253 438 l 468 438 q 481 432 475 438 l 775 72 q 802 51 786 58 q 835 44 818 44 q 882 61 861 44 m 847 131 q 851 118 851 125 q 844 107 850 111 q 833 103 840 103 q 819 108 825 103 l 503 496 l 194 496 l 194 119 q 176 103 194 103 q 158 119 158 103 l 158 861 q 176 879 158 879 q 194 861 194 879 l 194 532 l 504 532 l 821 874 q 846 874 832 885 q 846 849 858 861 l 535 513 l 847 131 z "},"l":{"ha":906,"x_min":64,"x_max":913,"o":"m 878 192 q 903 101 913 153 q 863 35 896 61 q 788 8 831 8 l 222 8 q 160 21 189 8 q 110 55 132 33 q 76 105 89 76 q 64 167 64 133 l 64 856 q 95 937 64 901 q 174 972 126 972 q 253 940 221 972 q 286 861 286 908 l 286 232 l 793 232 q 878 192 844 232 m 868 107 q 851 169 875 142 q 793 196 829 196 l 268 196 q 251 214 251 196 l 251 861 q 229 915 251 893 q 175 938 207 938 q 169 937 172 938 q 163 936 165 936 q 117 909 135 932 q 99 856 99 886 l 99 167 q 135 80 99 115 q 222 44 171 44 l 788 44 q 841 62 818 44 q 868 107 864 79 m 793 138 q 811 119 811 138 q 793 103 811 103 l 222 103 q 176 122 194 103 q 157 167 157 140 l 157 861 q 175 879 157 879 q 193 861 193 879 l 193 167 q 201 146 193 154 q 222 138 210 138 l 793 138 z "},"m":{"ha":1189,"x_min":65,"x_max":1122,"o":"m 1088 861 q 1074 905 1088 885 q 1038 932 1061 925 q 1011 936 1025 936 q 954 910 975 936 l 607 500 q 594 493 603 493 q 581 500 586 493 l 235 910 q 178 936 213 936 q 151 932 164 936 q 114 905 128 925 q 100 861 100 885 l 100 119 q 122 66 100 88 q 176 44 144 44 q 231 66 208 44 q 253 119 253 88 l 253 604 q 264 621 253 617 q 283 615 276 626 l 532 321 q 544 307 536 315 q 550 303 547 304 q 556 300 553 301 q 568 294 565 294 q 574 292 571 292 q 582 290 578 292 q 607 290 594 289 q 613 292 610 292 q 619 294 617 292 q 633 300 628 297 q 644 308 638 303 q 653 317 650 314 l 904 615 q 918 622 911 622 q 924 621 922 622 q 936 604 936 615 l 936 119 q 958 66 936 88 q 1011 44 979 44 q 1065 66 1043 44 q 1088 119 1088 88 l 1088 861 m 1122 861 l 1122 121 q 1090 42 1122 74 q 1011 10 1057 10 q 933 42 965 10 q 900 121 900 74 l 900 557 l 679 293 q 665 281 671 285 q 651 271 660 275 q 633 262 644 265 q 613 256 622 258 q 575 256 594 254 q 566 258 571 257 q 557 261 561 258 q 549 264 553 263 q 542 268 546 265 q 531 274 535 271 q 524 279 526 276 q 513 289 517 285 q 506 299 510 293 l 288 557 l 288 121 q 255 41 288 74 q 176 8 222 8 q 98 41 131 8 q 65 121 65 74 l 65 861 q 74 905 65 885 q 99 940 83 925 q 134 963 114 954 q 176 972 154 972 q 223 963 200 972 q 261 933 246 953 l 594 539 l 926 933 q 1011 972 961 972 q 1090 940 1057 972 q 1122 861 1122 908 m 1029 804 l 1029 119 q 1011 103 1029 103 q 994 119 994 103 l 994 804 l 988 806 l 607 354 l 607 353 q 606 351 606 353 l 604 351 q 602 350 603 350 q 600 349 601 350 l 588 349 l 585 351 l 583 351 l 200 806 l 194 804 l 194 119 q 176 103 194 103 q 158 119 158 103 l 158 804 q 171 831 158 819 q 199 843 183 843 q 226 828 215 843 l 594 393 l 961 828 q 992 843 974 843 q 1018 831 1007 843 q 1029 804 1029 819 z "},"n":{"ha":1018,"x_min":65,"x_max":953,"o":"m 842 972 q 920 940 888 972 q 953 861 953 907 l 953 119 q 933 56 953 85 q 881 17 913 28 q 842 8 863 8 q 758 46 792 8 l 288 571 l 288 119 q 255 41 288 74 q 176 8 222 8 q 98 41 131 8 q 65 119 65 74 l 65 861 q 98 940 65 907 q 175 972 131 972 q 260 935 226 972 l 731 410 l 731 861 q 763 940 731 907 q 842 972 796 972 m 918 861 q 896 915 918 893 q 842 938 874 938 q 788 915 810 938 q 765 861 765 893 l 765 364 q 754 349 765 353 q 735 353 742 343 l 233 913 q 175 938 208 938 q 122 915 144 938 q 100 861 100 893 l 100 119 q 122 66 100 88 q 176 44 144 44 q 231 66 208 44 q 253 119 253 88 l 253 617 q 264 633 253 629 q 267 634 265 633 q 269 635 268 635 q 283 628 276 635 l 785 69 q 842 43 808 43 q 895 66 872 43 q 918 119 918 89 l 918 861 m 842 879 q 858 861 858 879 l 858 200 q 845 166 858 181 q 811 151 832 151 q 775 168 790 151 l 217 790 q 208 794 213 794 q 203 793 204 794 q 197 791 200 793 q 194 782 194 789 l 194 119 q 176 103 194 103 q 158 119 158 103 l 158 782 q 174 815 158 801 q 208 829 189 829 q 243 814 229 829 l 801 190 q 810 186 806 186 q 815 188 814 186 q 821 191 818 189 q 824 200 824 193 l 824 861 q 842 879 824 879 z "},"o":{"ha":1019,"x_min":28,"x_max":992,"o":"m 510 972 q 697 934 610 972 q 850 831 785 896 q 953 678 915 765 q 992 490 992 590 q 953 303 992 390 q 850 150 915 215 q 697 47 785 85 q 510 8 610 8 q 322 47 410 8 q 169 150 235 85 q 66 303 104 215 q 28 490 28 390 q 66 678 28 590 q 169 831 104 765 q 322 934 235 896 q 510 972 410 972 m 510 44 q 683 80 601 44 q 824 176 764 115 q 920 317 885 236 q 956 490 956 399 q 920 664 956 582 q 824 806 885 746 q 683 902 764 867 q 510 938 601 938 q 336 902 418 938 q 194 806 254 867 q 98 664 133 746 q 63 490 63 582 q 98 317 63 399 q 194 176 133 236 q 336 80 254 115 q 510 44 418 44 m 510 879 q 660 849 590 879 q 783 765 731 818 q 867 642 836 713 q 897 490 897 571 q 867 340 897 410 q 783 217 836 269 q 660 133 731 164 q 510 103 590 103 q 358 133 429 103 q 235 217 288 164 q 151 340 182 269 q 121 490 121 410 q 151 642 121 571 q 235 765 182 713 q 358 849 288 818 q 510 879 429 879 m 510 138 q 647 165 583 138 q 759 241 711 193 q 835 353 807 289 q 863 490 863 418 q 835 628 863 564 q 759 740 807 692 q 647 815 711 788 q 510 843 583 843 q 373 815 438 843 q 260 740 308 788 q 185 628 213 692 q 157 490 157 564 q 185 353 157 418 q 260 241 213 289 q 373 165 308 193 q 510 138 438 138 m 510 785 q 624 762 571 785 q 718 699 678 739 q 781 605 758 658 q 804 490 804 551 q 781 376 804 429 q 718 282 758 322 q 624 219 678 242 q 510 196 571 196 q 395 219 449 196 q 301 282 342 242 q 238 376 261 322 q 215 490 215 429 q 238 605 215 551 q 301 699 261 658 q 395 762 342 739 q 510 785 449 785 m 510 231 q 611 251 564 231 q 694 306 658 271 q 749 389 729 342 q 769 490 769 436 q 749 592 769 544 q 694 674 729 639 q 611 730 658 710 q 510 750 564 750 q 408 730 456 750 q 326 674 361 710 q 270 592 290 639 q 250 490 250 544 q 270 389 250 436 q 326 306 290 342 q 408 251 361 271 q 510 231 456 231 z "},"p":{"ha":933,"x_min":64,"x_max":914,"o":"m 565 310 q 688 334 631 310 q 787 401 744 358 q 854 501 829 444 q 879 624 879 558 q 854 746 879 689 q 787 845 829 803 q 688 913 744 888 q 565 938 631 938 l 222 938 q 135 901 171 938 q 99 814 99 865 l 99 119 q 121 66 99 88 q 175 44 143 44 q 229 66 207 44 q 251 119 251 88 l 251 292 q 268 310 251 310 l 565 310 m 565 403 q 651 420 611 403 q 720 468 690 438 q 767 538 750 499 q 785 624 785 578 q 767 709 785 669 q 720 778 750 749 q 651 826 690 808 q 565 843 611 843 l 222 843 q 201 835 210 843 q 193 814 193 826 l 193 403 l 565 403 m 565 497 q 655 534 618 497 q 692 624 692 571 q 655 713 692 676 q 565 750 618 750 l 286 750 l 286 497 l 565 497 m 565 972 q 701 944 638 972 q 811 869 764 917 q 886 759 858 822 q 914 624 914 696 q 886 488 914 551 q 811 376 858 424 q 701 302 764 329 q 565 275 638 275 l 286 275 l 286 119 q 253 41 286 74 q 175 8 221 8 q 97 41 129 8 q 64 119 64 74 l 64 814 q 76 876 64 847 q 110 926 89 904 q 160 960 132 947 q 222 972 189 972 l 565 972 m 565 879 q 665 859 618 879 q 746 804 711 839 q 801 723 781 769 q 821 624 821 676 q 801 524 821 571 q 746 443 781 478 q 665 388 711 408 q 565 368 618 368 l 193 368 l 193 119 q 175 103 193 103 q 157 119 157 103 l 157 814 q 176 860 157 842 q 222 879 194 879 l 565 879 m 565 785 q 628 772 599 785 q 679 738 657 760 q 714 686 701 715 q 726 624 726 657 q 714 561 726 590 q 679 510 701 532 q 628 475 657 488 q 565 463 599 463 l 268 463 q 251 479 251 463 l 251 768 q 268 785 251 785 l 565 785 z "},"q":{"ha":1017,"x_min":26,"x_max":990,"o":"m 990 490 q 970 353 990 419 q 913 231 950 288 q 825 128 876 174 q 711 54 774 83 q 789 21 757 53 q 821 -57 821 -11 q 788 -135 821 -103 q 710 -168 756 -168 l 611 -168 q 533 -153 569 -168 q 467 -114 496 -139 q 421 -54 439 -89 q 399 21 403 -19 q 249 85 318 40 q 131 192 181 129 q 54 331 82 254 q 26 490 26 407 q 64 678 26 590 q 167 831 101 765 q 321 934 233 896 q 508 972 408 972 q 696 934 608 972 q 849 831 783 896 q 952 678 914 765 q 990 490 990 590 m 601 21 q 589 39 589 26 q 603 54 592 51 q 744 112 679 71 q 855 211 808 153 q 928 341 901 269 q 954 490 954 413 q 919 664 954 582 q 823 806 883 746 q 681 902 763 867 q 508 938 600 938 q 334 902 415 938 q 192 806 253 867 q 97 664 132 746 q 61 490 61 582 q 88 339 61 411 q 162 208 114 267 q 275 110 210 150 q 418 53 340 69 q 432 36 432 50 q 449 -30 435 1 q 488 -84 464 -61 q 543 -120 511 -107 q 611 -133 575 -133 l 710 -133 q 764 -111 742 -133 q 786 -57 786 -89 q 764 -3 786 -25 q 710 19 742 19 l 611 19 q 606 19 608 19 q 601 21 603 19 m 896 490 q 867 343 896 413 q 788 222 838 274 q 670 138 738 169 q 525 103 603 107 l 525 46 q 550 -15 525 10 q 611 -39 575 -39 l 710 -39 q 726 -57 726 -39 q 710 -75 726 -75 l 611 -75 q 526 -40 561 -75 q 490 46 490 -4 l 490 103 q 346 138 414 107 q 228 222 278 169 q 149 343 178 274 q 119 490 119 413 q 150 642 119 571 q 233 765 181 713 q 357 849 286 818 q 508 879 428 879 q 659 849 589 879 q 782 765 729 818 q 865 642 835 713 q 896 490 896 571 m 508 138 q 646 165 582 138 q 758 241 710 193 q 833 353 806 289 q 861 490 861 418 q 833 628 861 564 q 758 740 806 692 q 646 815 710 788 q 508 843 582 843 q 372 815 436 843 q 259 740 307 788 q 183 628 211 692 q 156 490 156 564 q 183 353 156 418 q 259 241 211 289 q 372 165 307 193 q 508 138 436 138 m 508 785 q 623 762 569 785 q 717 699 676 739 q 780 605 757 658 q 803 490 803 551 q 780 376 803 429 q 717 282 757 322 q 623 219 676 242 q 508 196 569 196 q 394 219 447 196 q 300 282 340 242 q 237 376 260 322 q 214 490 214 429 q 237 605 214 551 q 300 699 260 658 q 394 762 340 739 q 508 785 447 785 m 508 231 q 610 251 563 231 q 692 306 657 271 q 748 389 728 342 q 768 490 768 436 q 748 592 768 544 q 692 674 728 639 q 610 730 657 710 q 508 750 563 750 q 407 730 454 750 q 324 674 360 710 q 269 592 289 639 q 249 490 249 544 q 269 389 249 436 q 324 306 289 342 q 407 251 360 271 q 508 231 454 231 z "},"r":{"ha":956,"x_min":64,"x_max":915,"o":"m 879 122 q 854 176 876 156 l 704 315 q 699 331 697 322 q 707 344 699 339 q 833 460 786 385 q 879 624 879 535 q 854 746 879 689 q 787 845 829 803 q 688 913 744 888 q 565 938 631 938 l 222 938 q 135 901 171 938 q 99 814 99 865 l 99 119 q 121 66 99 88 q 175 44 143 44 q 229 66 207 44 q 251 119 251 88 l 251 292 q 268 310 251 310 l 479 310 q 492 306 488 310 l 751 64 q 803 44 774 44 q 857 67 835 44 q 879 122 879 89 m 565 403 q 651 420 611 403 q 720 468 690 438 q 767 538 750 499 q 785 624 785 578 q 767 709 785 669 q 720 778 750 749 q 651 826 690 808 q 565 843 611 843 l 222 843 q 201 835 210 843 q 193 814 193 826 l 193 403 l 565 403 m 286 497 l 565 497 q 655 534 618 497 q 692 624 692 571 q 655 713 692 676 q 565 750 618 750 l 286 750 l 286 497 m 726 624 q 714 561 726 590 q 679 510 701 532 q 628 475 657 488 q 565 463 599 463 l 268 463 q 251 479 251 463 l 251 768 q 268 785 251 785 l 565 785 q 628 772 599 785 q 679 738 657 760 q 714 686 701 715 q 726 624 726 657 m 744 325 l 878 201 q 914 124 911 172 q 885 44 915 81 q 803 8 851 8 q 726 39 760 8 l 472 275 l 286 275 l 286 119 q 253 41 286 74 q 175 8 221 8 q 97 41 129 8 q 64 119 64 74 l 64 814 q 76 876 64 847 q 110 926 89 904 q 160 960 132 947 q 222 972 189 972 l 565 972 q 701 944 638 972 q 811 869 764 917 q 886 759 858 822 q 914 624 914 696 q 869 452 914 531 q 746 325 825 374 l 744 325 m 815 133 q 815 108 828 121 q 803 103 811 103 q 790 107 797 103 l 510 368 l 193 368 l 193 119 q 175 103 193 103 q 157 119 157 103 l 157 814 q 176 860 157 842 q 222 879 194 879 l 565 879 q 665 859 618 879 q 746 804 711 839 q 801 723 781 769 q 821 624 821 676 q 801 524 821 571 q 746 443 781 478 q 665 388 711 408 q 565 368 618 368 l 561 368 l 815 133 z "},"s":{"ha":911,"x_min":35,"x_max":885,"o":"m 536 707 q 672 679 608 707 q 782 604 735 651 q 857 493 829 557 q 885 357 885 429 q 857 222 885 285 q 782 111 829 158 q 672 36 735 64 q 536 8 608 8 l 146 8 q 67 41 100 8 q 35 119 35 74 q 67 199 35 167 q 146 231 100 231 l 536 231 q 626 267 589 231 q 663 357 663 304 q 653 406 663 383 q 626 447 643 429 q 585 474 608 464 q 536 483 563 483 l 279 483 q 185 503 229 483 q 107 556 140 522 q 54 633 74 589 q 35 728 35 678 q 54 822 35 778 q 107 900 74 867 q 185 953 140 933 q 279 972 229 972 l 675 972 q 754 940 722 972 q 786 861 786 907 q 754 783 786 815 q 675 750 722 750 l 279 750 q 257 728 257 750 q 263 713 257 719 q 279 707 269 707 l 536 707 m 536 44 q 658 69 601 44 q 758 136 715 93 q 825 236 800 179 q 850 357 850 293 q 825 479 850 422 q 758 579 800 536 q 658 647 715 622 q 536 671 601 671 l 279 671 q 239 688 256 671 q 222 728 222 704 q 239 768 222 751 q 279 785 256 785 l 675 785 q 729 807 707 785 q 751 861 751 829 q 729 915 751 893 q 675 938 707 938 l 279 938 q 198 921 236 938 q 131 876 160 904 q 86 809 103 847 q 69 728 69 771 q 86 647 69 685 q 131 581 103 608 q 198 536 160 553 q 279 519 236 519 l 536 519 q 599 507 569 519 q 650 472 628 494 q 685 420 672 450 q 697 357 697 390 q 685 294 697 324 q 650 243 672 265 q 599 208 628 221 q 536 196 569 196 l 146 196 q 92 174 114 196 q 69 119 69 151 q 92 66 69 88 q 146 44 114 44 l 536 44 m 536 613 q 635 592 589 613 q 717 538 682 572 q 772 456 751 503 q 792 357 792 410 q 772 258 792 304 q 717 177 751 211 q 635 123 682 143 q 536 103 589 103 l 146 103 q 128 119 128 103 q 146 138 128 138 l 536 138 q 622 155 582 138 q 691 202 661 172 q 738 272 721 232 q 756 357 756 311 q 738 443 756 403 q 691 513 721 483 q 622 560 661 543 q 536 578 582 578 l 279 578 q 221 590 249 578 q 172 622 193 601 q 140 669 151 642 q 128 728 128 697 q 140 787 128 760 q 172 835 151 814 q 221 867 193 856 q 279 879 249 879 l 675 879 q 693 861 693 879 q 675 843 693 843 l 279 843 q 197 810 231 843 q 164 728 164 776 q 197 646 164 679 q 279 613 231 613 l 536 613 z "},"t":{"ha":842,"x_min":0,"x_max":842,"o":"m 731 972 q 809 940 776 972 q 842 861 842 907 q 809 783 842 815 q 731 750 776 750 l 532 750 l 532 119 q 499 41 532 74 q 421 8 467 8 q 342 41 375 8 q 310 119 310 74 l 310 750 l 111 750 q 33 783 65 750 q 0 861 0 815 q 33 940 0 907 q 111 972 65 972 l 731 972 m 731 785 q 784 807 763 785 q 806 861 806 829 q 784 915 806 893 q 731 938 763 938 l 111 938 q 57 915 79 938 q 35 861 35 893 q 57 807 35 829 q 111 785 79 785 l 326 785 q 344 768 344 785 l 344 119 q 367 66 344 88 q 421 44 389 44 q 475 66 453 44 q 497 119 497 88 l 497 768 q 514 785 497 785 l 731 785 m 729 879 q 747 861 747 879 q 729 843 747 843 l 438 843 l 438 119 q 421 103 438 103 q 403 119 403 103 l 403 843 l 111 843 q 94 861 94 843 q 111 879 94 879 l 729 879 z "},"u":{"ha":1014,"x_min":47,"x_max":965,"o":"m 854 972 q 933 940 900 972 q 965 861 965 907 l 965 468 q 929 290 965 374 q 831 143 893 206 q 685 44 768 81 q 507 8 601 8 q 328 44 411 8 q 182 143 244 81 q 83 290 119 206 q 47 468 47 374 l 47 861 q 80 940 47 907 q 158 972 113 972 q 237 940 204 972 q 269 861 269 907 l 269 468 q 288 376 269 419 q 340 301 307 333 q 415 249 372 268 q 507 231 458 231 q 599 249 556 231 q 674 301 642 268 q 724 376 706 333 q 743 468 743 419 l 743 861 q 776 940 743 907 q 854 972 808 972 m 931 861 q 908 915 931 893 q 854 938 886 938 q 800 915 822 938 q 778 861 778 893 l 778 468 q 756 363 778 413 q 699 276 735 313 q 613 217 663 239 q 507 196 564 196 q 401 217 451 196 q 315 276 351 239 q 256 363 278 313 q 235 468 235 413 l 235 861 q 213 915 235 893 q 158 938 190 938 q 104 915 126 938 q 82 861 82 893 l 82 468 q 115 303 82 381 q 206 169 149 226 q 342 78 264 111 q 507 44 419 44 q 672 78 594 44 q 806 169 749 111 q 897 303 864 226 q 931 468 931 381 l 931 861 m 854 879 q 872 861 872 879 l 872 468 q 844 326 872 393 q 765 210 815 260 q 649 131 715 160 q 507 103 582 103 q 364 131 431 103 q 247 210 297 160 q 169 326 197 260 q 140 468 140 393 l 140 861 q 158 879 140 879 q 176 861 176 879 l 176 468 q 202 340 176 400 q 273 235 228 279 q 378 164 318 190 q 507 138 439 138 q 635 164 575 138 q 740 235 696 190 q 811 340 785 279 q 838 468 838 400 l 838 861 q 854 879 838 879 z "},"v":{"ha":1008,"x_min":3,"x_max":1004,"o":"m 958 825 q 965 883 974 853 q 928 928 956 913 q 892 936 911 936 q 854 926 872 936 q 825 897 836 917 l 515 314 q 499 304 507 303 q 483 314 489 304 l 183 896 q 155 926 172 915 q 115 938 138 938 q 81 929 97 938 q 43 884 53 914 q 47 826 33 854 l 431 85 q 458 55 440 65 q 497 44 476 44 l 499 26 l 499 44 q 538 55 519 44 q 565 85 556 65 l 958 825 m 944 960 q 978 931 965 949 q 998 893 992 914 q 1003 851 1004 872 q 990 808 1001 829 l 596 68 q 555 24 581 40 q 499 8 529 8 l 497 8 q 440 26 465 10 q 400 69 414 42 l 17 810 q 5 852 7 831 q 9 894 3 874 q 29 933 15 915 q 64 960 43 950 q 115 972 88 972 q 149 967 133 972 q 214 913 192 954 l 500 360 l 793 913 q 835 956 808 940 q 893 972 863 972 q 944 960 919 972 m 900 876 q 908 867 907 874 q 907 853 910 860 l 514 111 q 499 103 510 103 q 482 113 489 101 l 100 853 q 99 867 97 860 q 107 876 100 874 q 121 878 114 879 q 131 869 128 876 l 499 158 l 876 869 q 886 878 879 876 q 900 876 893 879 z "},"w":{"ha":1525,"x_min":3,"x_max":1529,"o":"m 1418 876 q 1426 867 1425 874 q 1425 853 1428 860 l 1031 111 q 1015 103 1026 103 q 1000 113 1004 103 l 760 576 l 514 113 q 499 103 510 103 q 483 113 488 100 l 100 853 q 99 867 97 860 q 107 876 100 874 q 121 878 114 879 q 131 869 128 876 l 499 158 l 740 614 l 617 853 q 616 867 614 860 q 625 876 618 874 q 639 878 632 879 q 649 869 646 876 l 1015 158 l 1393 869 q 1418 876 1403 883 m 1461 958 q 1515 894 1501 938 q 1507 808 1529 850 l 1114 68 q 1073 24 1099 40 q 1015 8 1047 8 q 958 25 983 8 q 917 69 932 42 l 760 375 l 596 68 q 555 24 581 40 q 499 8 529 8 q 440 25 467 8 q 399 69 414 42 l 17 810 q 5 852 7 831 q 9 894 3 874 q 29 933 15 915 q 64 960 43 950 q 115 972 89 972 q 172 956 146 972 q 214 913 199 940 l 499 360 l 635 615 l 535 810 q 522 852 524 831 q 527 894 521 874 q 547 933 533 915 q 582 960 561 950 q 633 972 606 972 q 690 956 664 972 q 732 913 717 940 l 1017 360 l 1311 914 q 1353 957 1326 942 q 1408 972 1379 972 q 1461 958 1433 972 m 1476 825 q 1482 883 1492 853 q 1444 928 1472 913 q 1410 936 1428 936 q 1371 926 1389 936 q 1342 897 1353 917 l 1032 314 q 1017 304 1028 304 q 1008 306 1013 303 q 1001 314 1004 310 l 700 896 q 656 933 688 925 q 633 938 646 938 q 599 929 615 938 q 560 884 571 914 q 565 826 550 854 l 671 624 q 669 607 674 614 l 515 314 q 499 304 508 304 q 483 314 489 303 l 183 896 q 154 926 172 915 q 115 938 136 938 q 81 929 97 938 q 43 884 53 914 q 47 826 33 854 l 431 85 q 458 55 440 65 q 497 44 476 44 q 538 55 519 44 q 565 85 556 65 l 744 421 q 760 429 749 429 q 775 421 771 429 l 949 85 q 976 55 958 65 q 1015 44 994 44 q 1054 55 1036 44 q 1083 85 1072 65 l 1476 825 z "},"x":{"ha":1008,"x_min":24,"x_max":983,"o":"m 885 138 q 885 113 897 125 q 872 107 879 107 q 861 113 867 107 l 504 468 l 147 113 q 135 107 142 107 q 122 113 131 107 q 122 138 110 125 l 479 493 l 122 849 q 122 874 110 861 q 147 874 135 886 l 504 518 l 860 874 q 885 874 872 886 q 885 849 897 861 l 529 493 l 885 138 m 951 204 q 983 125 983 172 q 951 47 983 79 q 874 14 919 14 q 794 47 828 14 l 504 336 l 213 46 q 135 15 182 15 q 56 47 88 15 q 24 125 24 78 q 57 204 24 171 l 346 493 l 57 782 q 24 861 24 815 q 56 940 24 908 q 135 972 88 972 q 213 940 181 972 l 504 650 l 794 940 q 872 971 825 971 q 951 940 918 971 q 983 861 983 908 q 951 782 983 814 l 661 493 l 951 204 m 949 125 q 926 179 949 154 l 624 481 q 619 493 619 485 q 624 506 619 501 l 926 807 q 949 861 949 829 q 926 915 949 890 q 901 931 915 926 q 872 936 888 936 q 818 915 842 936 l 515 613 q 492 613 504 600 l 189 915 q 164 931 178 926 q 135 936 150 936 q 81 915 104 936 q 58 861 58 890 q 81 807 58 832 l 383 506 q 389 493 389 500 q 383 481 389 486 l 81 179 q 58 125 58 154 q 81 71 58 93 q 135 49 103 49 q 189 71 167 49 l 492 374 q 504 378 496 378 q 515 374 511 378 l 819 71 q 874 50 840 50 q 927 72 906 50 q 949 125 949 93 z "},"y":{"ha":961,"x_min":0,"x_max":961,"o":"m 838 874 q 861 874 849 886 q 861 849 874 861 l 499 486 l 499 121 q 481 103 499 103 q 463 121 463 103 l 463 486 l 99 849 q 99 874 86 861 q 124 874 111 886 l 481 518 l 838 874 m 928 939 q 952 903 943 924 q 960 861 961 883 q 928 782 960 814 l 592 447 l 592 119 q 559 41 592 74 q 481 8 526 8 q 402 41 435 8 q 369 119 369 74 l 369 447 l 33 782 q 0 861 0 814 q 33 940 0 908 q 111 971 65 971 q 153 963 133 971 q 189 940 174 956 l 481 650 l 771 940 q 807 963 786 956 q 849 971 828 971 q 928 939 896 971 m 903 807 q 925 861 925 829 q 903 915 925 893 q 850 936 882 936 q 796 915 819 936 l 493 613 q 468 613 481 600 l 165 915 q 111 938 140 938 q 57 915 79 938 q 35 861 35 893 q 57 807 35 829 l 399 467 q 404 454 404 463 l 404 119 q 426 66 404 88 q 481 44 449 44 q 535 66 513 44 q 557 119 557 88 l 557 454 q 561 467 557 463 l 903 807 z "},"z":{"ha":963,"x_min":19,"x_max":942,"o":"m 826 138 q 844 119 844 138 q 826 103 844 103 l 215 103 q 167 133 179 103 q 176 190 153 165 l 760 815 q 765 826 765 821 q 763 833 764 831 q 758 840 761 836 q 747 843 754 843 l 135 843 q 117 861 117 843 q 135 879 117 879 l 747 879 q 794 847 781 879 q 785 790 807 817 l 203 167 q 197 155 196 160 q 199 149 199 150 q 203 142 200 146 q 215 138 207 138 l 826 138 m 826 232 q 905 199 872 232 q 938 119 938 167 q 905 41 938 74 q 826 8 872 8 l 135 8 q 74 26 101 8 q 33 76 46 44 q 25 140 19 107 q 54 196 31 172 l 571 750 l 135 750 q 56 783 89 750 q 24 861 24 815 q 56 940 24 907 q 135 972 89 972 l 826 972 q 888 954 860 972 q 928 906 915 936 q 936 842 942 875 q 908 785 931 810 l 390 232 l 826 232 m 826 44 q 881 66 858 44 q 903 119 903 88 q 881 174 903 151 q 826 196 858 196 l 350 196 q 335 207 339 196 q 338 225 329 218 l 882 810 q 901 849 897 826 q 896 892 906 871 q 869 925 888 913 q 826 938 850 938 l 135 938 q 81 915 103 938 q 58 861 58 893 q 81 807 58 829 q 135 785 103 785 l 611 785 q 628 775 624 785 q 624 756 632 764 l 79 172 q 60 133 64 156 q 65 90 56 111 q 93 57 75 69 q 135 44 111 44 l 826 44 z "},"{":{"ha":563,"x_min":44,"x_max":507,"o":"m 396 138 q 414 119 414 138 q 396 103 414 103 q 326 121 353 103 q 283 168 299 139 q 259 233 267 197 q 244 304 251 269 q 233 363 239 335 q 217 415 228 392 q 192 453 207 438 q 151 474 176 469 q 138 490 138 476 q 151 508 138 506 q 192 528 176 513 q 217 566 207 543 q 233 617 228 589 q 244 676 239 646 q 259 749 251 713 q 283 814 267 785 q 326 861 299 843 q 396 879 353 879 q 414 861 414 879 q 396 843 414 843 q 347 831 365 843 q 315 797 328 819 q 294 743 303 775 q 279 671 286 711 q 269 618 275 644 q 256 567 264 592 q 234 523 247 543 q 201 490 221 503 q 234 458 221 478 q 256 413 247 438 q 269 363 264 389 q 279 311 275 336 q 294 238 286 271 q 315 183 303 206 q 347 149 328 161 q 396 138 365 138 m 396 231 q 474 199 442 231 q 507 119 507 167 q 474 41 507 74 q 396 8 442 8 q 278 40 324 8 q 208 115 233 71 q 170 206 182 158 q 153 289 158 254 q 131 382 138 369 q 69 422 93 392 q 44 490 44 451 q 68 560 44 529 q 129 599 92 590 q 153 692 138 614 q 170 774 158 726 q 208 866 182 822 q 278 941 233 910 q 396 972 324 972 q 474 940 442 972 q 507 861 507 907 q 474 783 507 815 q 396 750 442 750 l 394 750 q 386 724 392 744 q 371 654 381 703 q 354 574 364 617 q 324 490 344 531 q 354 407 344 450 q 371 328 364 364 q 386 258 381 279 q 394 231 392 238 l 396 231 m 396 44 q 450 66 428 44 q 472 119 472 88 q 450 174 472 151 q 396 196 428 196 q 378 200 386 196 q 357 235 365 208 q 338 321 349 261 q 320 401 331 358 q 288 482 310 444 q 288 500 283 492 q 320 580 310 536 q 338 660 331 624 q 356 747 349 721 q 375 781 364 772 q 387 784 382 783 q 396 785 392 785 q 450 807 428 785 q 472 861 472 829 q 450 915 472 893 q 396 938 428 938 q 297 912 335 938 q 236 847 258 886 q 204 765 214 808 q 188 686 194 722 q 169 608 178 636 q 149 569 161 579 q 142 565 147 565 q 97 539 114 560 q 79 490 79 518 q 97 442 79 463 q 143 415 115 421 q 151 411 147 415 q 170 373 163 401 q 188 294 178 344 q 204 216 194 260 q 236 134 214 172 q 297 70 258 96 q 396 44 335 44 z "},"|":{"ha":361,"x_min":69,"x_max":292,"o":"m 181 975 q 199 957 199 975 l 199 56 q 181 39 199 39 q 163 56 163 39 l 163 957 q 181 975 163 975 m 181 1068 q 259 1035 226 1068 q 292 957 292 1003 l 292 56 q 259 -23 292 10 q 181 -56 226 -56 q 102 -23 135 -56 q 69 56 69 10 l 69 957 q 102 1035 69 1003 q 181 1068 135 1068 m 257 957 q 235 1011 257 989 q 181 1033 213 1033 q 126 1011 149 1033 q 104 957 104 989 l 104 56 q 126 1 104 24 q 181 -21 149 -21 q 235 1 213 -21 q 257 56 257 24 l 257 957 z "},"}":{"ha":563,"x_min":54,"x_max":517,"o":"m 410 508 q 424 490 424 506 q 410 474 424 476 q 369 453 385 469 q 344 415 354 438 q 328 363 333 392 q 317 304 322 335 q 303 233 311 269 q 278 168 294 197 q 235 121 263 139 q 165 103 208 103 q 147 119 147 103 q 165 138 147 138 q 215 149 196 138 q 247 183 235 161 q 267 238 260 206 q 282 311 275 271 q 306 413 292 363 q 360 490 321 464 q 306 567 321 517 q 282 671 292 618 q 267 743 275 711 q 247 797 260 775 q 215 831 235 819 q 165 843 196 843 q 147 861 147 843 q 165 879 147 879 q 235 861 208 879 q 278 814 263 843 q 303 749 294 785 q 317 676 311 713 q 328 617 322 646 q 344 566 333 589 q 369 528 354 543 q 410 508 385 513 m 432 599 q 493 559 469 589 q 517 490 517 529 q 493 422 517 451 q 432 382 469 392 q 410 289 422 364 q 392 206 404 254 q 354 115 381 158 q 283 40 328 71 q 165 8 239 8 q 87 41 119 8 q 54 119 54 74 q 87 199 54 167 q 165 232 119 232 l 167 232 q 176 258 169 238 q 190 328 182 279 q 207 407 197 364 q 239 490 217 450 q 207 574 217 531 q 190 654 197 617 q 176 722 182 701 q 167 750 169 743 l 165 750 q 87 783 119 750 q 54 861 54 815 q 87 940 54 907 q 165 972 119 972 q 283 941 239 972 q 354 866 328 910 q 392 774 381 822 q 410 693 404 726 q 422 630 417 653 q 432 599 428 607 m 419 415 q 465 442 447 421 q 482 490 482 463 q 465 539 482 518 q 419 565 447 560 q 411 569 413 568 q 392 608 400 579 q 375 686 383 638 q 359 765 369 722 q 326 847 349 808 q 266 912 304 886 q 165 938 228 938 q 111 915 133 938 q 89 861 89 893 q 111 807 89 829 q 165 785 133 785 q 175 785 169 785 q 185 782 181 785 q 206 747 197 772 q 225 660 214 721 q 242 579 232 622 q 274 500 251 536 q 274 482 278 492 q 242 401 251 444 q 225 321 232 358 q 206 235 214 261 q 186 200 197 208 q 165 196 176 196 q 111 174 133 196 q 89 119 89 151 q 111 66 89 88 q 165 44 133 44 q 266 70 228 44 q 326 134 304 96 q 359 216 349 172 q 375 294 369 260 q 392 374 383 344 q 413 413 400 403 q 419 415 418 415 z "},"~":{"ha":621,"x_min":47,"x_max":574,"o":"m 282 511 q 325 533 303 522 q 372 545 347 543 q 422 539 396 547 q 475 503 449 531 q 475 478 488 490 q 450 478 463 465 q 410 506 429 499 q 374 510 392 513 q 337 500 356 508 q 299 481 318 492 q 256 459 278 469 q 210 449 233 449 q 146 478 175 449 q 146 503 133 490 q 171 503 158 515 q 220 485 194 479 q 282 511 246 492 m 540 569 q 574 490 574 539 q 540 413 574 444 q 462 381 508 381 q 383 413 415 381 q 379 415 381 415 q 361 406 372 413 q 344 397 350 400 q 286 371 321 386 q 208 356 251 356 q 79 413 135 356 q 47 491 47 444 q 79 569 47 538 q 147 601 107 597 q 219 583 188 604 q 230 588 225 586 q 239 593 235 590 q 301 623 263 607 q 386 639 339 639 q 540 569 471 639 m 515 436 q 538 490 538 458 q 515 544 538 524 q 386 604 456 604 q 312 590 346 604 q 254 563 278 575 q 240 554 247 558 q 225 547 232 550 q 206 550 215 543 q 158 567 188 567 q 104 544 129 567 q 82 491 82 522 q 104 436 82 460 q 208 390 153 390 q 275 403 244 390 q 326 428 306 417 q 363 447 350 440 q 383 451 375 453 l 388 451 l 389 451 q 408 436 396 450 q 463 415 431 415 q 515 436 494 415 z "},"":{"ha":360,"x_min":68,"x_max":290,"o":"m 290 840 q 256 760 290 790 q 290 679 290 728 l 290 119 q 258 41 290 74 q 179 8 225 8 q 101 41 133 8 q 68 119 68 74 l 68 679 q 103 760 68 728 q 68 840 68 792 l 68 861 q 101 940 68 907 q 179 972 133 972 q 258 940 225 972 q 290 861 290 907 l 290 840 m 256 861 q 233 915 256 893 q 179 938 211 938 q 125 915 147 938 q 103 861 103 893 l 103 840 q 113 802 103 819 q 140 775 124 785 q 150 760 150 771 q 142 744 150 750 q 103 679 103 722 l 103 119 q 125 66 103 88 q 179 44 147 44 q 233 66 211 44 q 256 119 256 88 l 256 679 q 245 716 256 699 q 218 744 235 733 q 208 760 208 750 q 212 768 210 764 q 218 775 214 772 q 246 802 236 785 q 256 840 256 819 l 256 861 m 179 696 q 197 678 197 696 l 197 119 q 179 103 197 103 q 161 119 161 103 l 161 678 q 179 696 161 696 m 179 879 q 197 861 197 879 l 197 840 q 179 822 197 822 q 161 840 161 822 l 161 861 q 179 879 161 879 z "},"":{"ha":967,"x_min":54,"x_max":908,"o":"m 719 307 q 798 339 751 339 q 876 307 844 339 q 908 228 908 275 q 876 150 908 182 q 767 69 828 101 q 640 21 707 36 q 600 -34 629 -12 q 535 -56 571 -56 q 469 -34 499 -56 q 429 21 440 -12 q 196 150 293 50 q 90 306 126 218 q 54 490 54 393 q 90 675 54 588 q 196 831 126 763 q 424 958 292 929 q 458 1036 425 1004 q 535 1068 490 1068 q 613 1036 581 1068 q 646 960 644 1004 q 876 831 779 928 q 908 753 908 799 q 876 674 908 706 q 798 642 844 642 q 719 674 751 642 q 646 725 683 707 l 646 256 q 719 307 683 274 l 719 307 m 851 175 q 874 228 874 197 q 851 282 874 260 q 798 306 829 306 q 744 282 767 306 q 635 214 694 235 q 618 215 628 211 q 611 231 611 222 l 611 751 q 618 765 611 761 q 635 768 625 771 q 693 740 665 757 q 744 699 721 722 q 798 676 767 676 q 851 699 829 676 q 874 753 874 721 q 851 807 874 782 q 747 884 804 853 q 625 928 690 915 q 611 944 611 931 l 611 957 q 589 1011 611 989 q 535 1033 567 1033 q 481 1011 503 1033 q 458 957 458 989 l 458 944 q 444 928 458 931 q 221 807 314 900 q 123 662 157 743 q 89 490 89 581 q 123 319 89 400 q 219 175 157 238 q 324 97 267 128 q 447 53 382 67 q 461 40 460 50 q 487 -3 467 14 q 535 -21 507 -21 q 582 -4 561 -21 q 608 39 603 13 q 622 53 613 51 q 851 175 757 78 m 328 282 q 242 490 242 368 q 264 603 242 550 q 328 699 286 657 q 435 767 375 746 q 451 765 443 771 q 458 750 458 758 l 458 231 q 451 217 458 221 q 442 214 449 214 l 435 214 q 328 282 372 238 m 353 674 q 296 590 315 638 q 276 490 276 543 q 297 390 276 438 q 353 307 317 343 q 424 257 385 276 l 424 724 q 386 702 404 715 q 353 674 368 689 m 785 240 q 810 240 797 253 q 815 228 815 236 q 810 217 815 221 q 692 135 757 164 q 553 103 626 106 l 553 56 q 535 39 553 39 q 517 56 517 39 l 517 103 q 379 135 444 107 q 261 217 314 164 q 176 342 206 271 q 147 490 147 413 q 176 640 147 569 q 261 765 206 710 q 379 846 314 817 q 517 878 444 875 l 517 957 q 535 975 517 975 q 553 957 553 975 l 553 878 q 692 847 626 875 q 810 765 757 818 q 810 740 822 753 q 785 740 797 728 q 678 814 738 788 q 553 843 619 840 l 553 139 q 678 167 619 142 q 785 240 738 193 m 517 843 q 392 813 451 839 q 286 740 333 788 q 210 626 236 690 q 183 490 183 561 q 210 355 183 419 q 286 240 236 290 q 392 168 333 194 q 517 139 451 142 l 517 843 z "},"":{"ha":1057,"x_min":50,"x_max":999,"o":"m 888 138 q 904 119 904 138 q 888 103 904 103 l 167 103 q 150 114 154 103 q 157 135 146 126 q 227 218 201 168 q 253 325 253 268 l 253 489 l 167 489 q 149 507 149 489 q 167 524 149 524 l 253 524 l 253 621 q 273 721 253 674 q 328 803 293 768 q 410 859 363 839 q 510 879 457 879 l 646 879 q 747 859 700 879 q 828 803 793 839 q 884 721 864 768 q 904 621 904 674 q 888 603 904 603 q 869 621 869 603 q 852 707 869 667 q 804 778 835 747 q 733 826 774 808 q 646 843 692 843 l 510 843 q 424 826 464 843 q 353 778 383 808 q 305 707 322 747 q 288 621 288 667 l 288 524 l 601 524 q 618 507 618 524 q 601 489 618 489 l 288 489 l 288 325 q 268 224 288 272 q 213 138 249 175 l 888 138 m 888 231 q 966 199 933 231 q 999 119 999 167 q 966 41 999 74 q 888 8 933 8 l 167 8 q 101 29 131 8 q 61 85 72 50 q 61 153 50 119 q 100 210 72 188 q 143 260 128 229 q 158 325 158 290 l 158 396 q 85 431 115 399 q 56 507 56 463 q 85 583 56 551 q 158 617 115 614 l 158 621 q 186 757 158 693 q 262 869 214 821 q 374 944 310 917 q 510 972 438 972 l 646 972 q 783 944 719 972 q 895 869 847 917 q 971 757 943 821 q 999 621 999 693 q 966 542 999 575 q 888 510 933 510 q 809 542 842 510 q 776 621 776 575 q 766 671 776 647 q 738 712 756 694 q 697 740 721 729 q 646 750 674 750 l 510 750 q 460 740 483 750 q 419 712 436 729 q 391 671 401 694 q 381 621 381 647 l 381 618 l 601 618 q 680 585 647 618 q 713 507 713 553 q 680 428 713 460 q 601 396 647 396 l 381 396 l 381 325 q 368 231 381 276 l 888 231 m 888 44 q 942 66 919 44 q 964 119 964 88 q 942 174 964 151 q 888 196 919 196 l 344 196 q 331 203 338 196 q 328 219 326 213 q 346 325 346 268 l 346 413 q 364 431 346 431 l 601 431 q 656 453 633 431 q 678 507 678 475 q 656 560 678 539 q 601 582 633 582 l 364 582 q 346 600 346 582 l 346 621 q 359 684 346 654 q 394 736 372 714 q 447 772 417 758 q 510 785 476 785 l 646 785 q 710 772 681 785 q 763 736 740 758 q 798 684 785 714 q 811 621 811 654 q 833 567 811 589 q 888 544 856 544 q 941 567 919 544 q 963 621 963 589 q 938 744 963 686 q 869 844 913 801 q 769 913 826 888 q 646 938 711 938 l 510 938 q 387 913 444 938 q 286 844 329 888 q 218 744 243 801 q 193 621 193 686 l 193 600 q 176 582 193 582 l 167 582 q 113 560 135 582 q 90 507 90 539 q 113 453 90 475 q 167 431 135 431 l 176 431 q 193 413 193 431 l 193 325 q 174 244 193 282 q 121 181 156 207 q 94 142 101 165 q 94 96 88 119 q 122 58 101 72 q 167 44 142 44 l 888 44 z "},"":{"ha":650,"x_min":56,"x_max":594,"o":"m 303 528 q 325 536 313 536 q 346 528 338 536 q 356 506 356 519 q 346 485 356 493 q 325 475 336 475 q 303 485 313 475 q 294 506 294 493 q 303 528 294 519 m 328 503 l 328 510 l 325 511 q 322 510 322 510 l 322 503 l 328 503 m 496 361 q 496 336 508 349 q 483 331 490 331 q 471 336 475 331 l 399 407 q 364 389 383 396 q 325 382 344 382 q 250 407 286 382 l 179 336 q 167 331 174 331 q 154 336 160 331 q 154 361 142 349 l 226 432 q 200 507 200 465 q 226 581 200 547 l 154 651 q 154 676 142 664 q 179 676 167 689 l 251 606 q 325 629 283 629 q 399 606 367 629 l 471 676 q 496 676 483 689 q 496 651 508 664 l 424 581 q 449 507 449 550 q 424 432 449 464 l 496 361 m 388 443 q 414 507 414 469 q 388 569 414 543 q 325 596 361 596 q 261 569 290 596 q 236 507 236 544 q 261 443 236 468 q 325 418 288 418 q 388 443 363 418 m 561 426 q 594 349 594 393 q 561 269 594 303 q 483 238 529 238 q 404 269 436 238 l 378 296 q 272 296 325 282 l 246 269 q 209 247 229 254 q 167 239 189 239 q 124 247 144 239 q 88 269 104 254 q 56 349 56 301 q 88 426 56 394 l 114 453 q 109 481 111 468 q 107 506 107 493 q 109 532 107 519 q 114 560 111 544 l 88 586 q 56 664 56 618 q 88 743 56 711 q 124 767 104 758 q 167 775 144 775 q 209 767 189 775 q 246 743 229 758 l 272 717 q 378 717 325 731 l 404 743 q 483 775 436 775 q 561 743 529 775 q 594 664 594 710 q 561 586 594 619 l 535 560 q 543 506 543 531 q 535 453 543 482 l 561 426 m 536 294 q 560 349 560 315 q 536 401 560 381 l 503 436 q 499 453 496 443 q 507 507 507 482 q 499 560 507 531 q 503 576 496 569 l 536 611 q 560 664 560 632 q 536 718 560 697 q 483 740 515 740 q 429 718 451 740 l 396 685 q 378 681 388 676 q 325 689 349 689 q 272 681 301 689 q 254 685 263 676 l 221 718 q 167 740 199 740 q 113 718 135 740 q 90 664 90 696 q 113 611 90 633 l 147 576 q 151 560 154 569 q 142 506 142 532 q 151 453 142 481 q 147 436 154 443 l 113 401 q 90 349 90 379 q 113 294 90 317 q 167 272 135 272 q 221 294 199 272 l 254 328 q 272 332 263 336 q 325 324 301 324 q 378 332 349 324 q 383 333 379 333 q 396 328 390 333 l 429 294 q 483 272 451 272 q 536 294 515 272 z "},"":{"ha":1039,"x_min":39,"x_max":1000,"o":"m 875 874 q 900 874 888 886 q 900 849 913 861 l 539 488 l 754 488 q 767 483 761 488 q 772 471 772 478 q 754 453 772 453 l 536 453 l 536 333 l 754 333 q 772 315 772 333 q 754 297 772 297 l 536 297 l 536 119 q 531 108 536 113 q 519 103 526 103 q 507 108 513 103 q 501 119 501 113 l 501 297 l 283 297 q 267 315 267 297 q 283 333 267 333 l 501 333 l 501 453 l 283 453 q 267 471 267 453 q 272 483 267 478 q 283 488 276 488 l 500 488 l 138 849 q 138 874 125 861 q 163 874 150 886 l 519 518 l 875 874 m 967 939 q 1000 861 1000 906 q 967 782 997 813 l 765 581 q 836 545 807 576 q 865 469 865 514 q 835 393 865 424 q 865 315 865 360 q 833 237 865 269 q 754 204 801 204 l 631 204 l 631 119 q 598 41 631 74 q 519 8 565 8 q 441 41 474 8 q 408 119 408 74 l 408 204 l 283 204 q 205 237 238 204 q 172 315 172 269 q 181 358 172 338 q 204 393 189 378 q 172 469 172 425 q 201 545 172 514 q 274 581 231 576 l 72 782 q 39 860 39 814 q 71 939 39 907 q 107 963 86 956 q 150 971 128 971 q 192 963 172 971 q 228 940 213 956 l 519 650 l 810 940 q 847 963 826 956 q 888 971 867 971 q 931 963 910 971 q 967 939 951 954 m 942 807 q 965 860 965 829 q 942 914 965 892 q 889 936 921 936 q 835 915 857 936 l 532 613 q 507 613 519 600 l 204 915 q 150 936 182 936 q 96 914 118 936 q 74 860 74 892 q 96 807 74 829 l 328 576 q 332 557 336 568 q 315 546 328 546 l 283 546 q 230 524 251 546 q 208 469 208 501 q 242 407 208 429 q 249 393 249 403 q 242 378 249 385 q 208 315 208 356 q 230 261 208 283 q 283 239 251 239 l 425 239 q 443 221 443 239 l 443 119 q 465 66 443 88 q 519 44 488 44 q 574 66 551 44 q 596 119 596 88 l 596 221 q 613 239 596 239 l 754 239 q 808 261 786 239 q 831 315 831 283 q 797 378 831 356 q 790 393 789 386 q 797 407 790 403 q 831 469 831 429 q 808 524 831 501 q 754 546 786 546 l 722 546 q 707 557 711 546 q 711 576 703 568 l 942 807 z "},"":{"ha":357,"x_min":67,"x_max":289,"o":"m 178 333 q 196 315 196 333 l 196 56 q 178 39 196 39 q 160 56 160 39 l 160 315 q 178 333 160 333 m 178 426 q 256 394 224 426 q 289 315 289 361 l 289 56 q 256 -23 289 10 q 178 -56 224 -56 q 99 -23 132 -56 q 67 56 67 10 l 67 315 q 99 394 67 361 q 178 426 132 426 m 254 315 q 232 369 254 347 q 178 392 210 392 q 124 369 146 392 q 101 315 101 347 l 101 56 q 124 1 101 24 q 178 -21 146 -21 q 232 1 210 -21 q 254 56 254 24 l 254 315 m 178 878 q 196 860 196 878 l 196 600 q 178 583 196 583 q 160 600 160 583 l 160 860 q 178 878 160 878 m 178 971 q 256 938 224 971 q 289 860 289 906 l 289 600 q 256 522 289 554 q 178 489 224 489 q 99 522 132 489 q 67 600 67 554 l 67 860 q 99 938 67 906 q 178 971 132 971 m 254 860 q 232 914 254 892 q 178 936 210 936 q 124 914 146 936 q 101 860 101 892 l 101 600 q 124 546 101 568 q 178 524 146 524 q 232 546 210 524 q 254 600 254 568 l 254 860 z "},"":{"ha":858,"x_min":57,"x_max":801,"o":"m 524 683 q 594 666 561 682 q 653 624 628 650 q 692 563 678 597 q 707 490 707 529 q 675 385 707 432 q 593 315 643 339 q 633 274 618 300 q 647 218 647 249 q 614 136 647 169 q 532 103 581 103 l 240 103 q 222 119 222 103 q 240 138 222 138 l 532 138 q 589 161 565 138 q 613 218 613 185 q 589 275 613 251 q 532 299 565 299 l 343 299 q 269 314 304 299 q 207 355 233 329 q 165 416 181 381 q 150 490 150 451 q 182 596 150 549 q 265 665 214 643 q 225 706 240 681 q 210 764 210 732 q 243 845 210 811 q 325 879 276 879 l 618 879 q 635 861 635 879 q 618 843 635 843 l 325 843 q 268 820 292 843 q 244 764 244 797 q 268 707 244 731 q 325 683 292 683 l 515 683 l 524 683 m 515 333 q 576 346 547 333 q 626 380 604 358 q 660 430 647 401 q 672 490 672 458 q 660 551 672 522 q 628 600 649 579 q 579 634 607 621 q 519 647 551 647 l 515 665 l 515 649 l 463 649 q 461 647 463 647 l 343 647 q 283 635 311 647 q 233 601 254 622 q 199 551 211 579 q 186 490 186 522 q 199 430 186 458 q 233 380 211 401 q 283 346 254 358 q 343 333 311 333 l 515 333 m 518 589 q 586 559 558 588 q 614 490 614 531 q 585 421 614 450 q 515 392 556 392 l 343 392 q 274 421 303 392 q 244 490 244 450 q 274 560 244 531 q 343 589 303 589 l 513 590 l 518 589 m 515 426 q 560 445 542 426 q 578 490 578 464 q 560 535 578 517 q 518 554 543 553 l 511 554 l 343 554 q 298 535 317 554 q 279 490 279 517 q 298 445 279 464 q 343 426 317 426 l 515 426 m 801 490 q 781 387 801 436 q 725 297 761 338 q 742 218 742 258 q 725 137 742 175 q 680 70 708 99 q 613 25 651 42 q 532 8 575 8 l 240 8 q 162 41 194 8 q 129 119 129 74 q 157 193 129 163 q 225 231 185 224 q 103 333 150 264 q 57 490 57 403 q 133 685 57 601 q 117 764 117 722 q 133 845 117 807 q 178 911 150 883 q 244 956 206 939 q 325 972 282 972 l 618 972 q 697 940 664 972 q 729 861 729 907 q 702 789 729 819 q 635 751 675 758 q 754 647 708 717 q 800 490 800 578 l 801 490 m 532 44 q 599 58 568 44 q 654 96 631 72 q 692 151 678 119 q 706 218 706 182 q 689 293 706 256 q 692 313 683 304 q 747 394 728 349 q 765 490 765 440 q 747 585 765 540 q 697 664 729 631 q 621 718 664 697 q 528 742 578 739 l 515 742 l 325 742 q 310 748 317 742 q 304 764 304 754 q 310 778 304 772 q 325 785 317 785 l 618 785 q 672 807 650 785 q 693 861 693 829 q 672 915 693 893 q 618 938 650 938 l 325 938 q 258 924 289 938 q 203 886 226 910 q 165 831 179 863 q 151 764 151 800 q 169 689 151 724 q 167 668 174 678 q 111 586 131 632 q 92 490 92 540 q 111 393 92 439 q 165 313 131 347 q 246 260 200 279 q 343 240 292 240 l 532 240 q 554 218 554 240 q 532 196 554 196 l 240 196 q 186 174 208 196 q 164 119 164 151 q 186 66 164 88 q 240 44 208 44 l 532 44 z "},"":{"ha":408,"x_min":46,"x_max":361,"o":"m 150 1100 q 169 1096 160 1104 q 175 1083 175 1090 q 174 1080 175 1081 q 174 1076 174 1079 q 169 1071 172 1074 q 157 1065 164 1065 q 153 1066 154 1065 q 150 1067 153 1067 q 147 1069 149 1068 q 144 1071 146 1069 q 140 1076 142 1074 l 140 1083 q 144 1096 140 1092 q 147 1098 146 1097 q 150 1100 149 1099 m 250 1194 q 329 1162 297 1194 q 361 1083 361 1129 q 329 1005 361 1038 q 250 972 297 972 q 227 974 239 972 q 204 983 215 976 q 157 972 183 972 q 78 1005 111 972 q 46 1083 46 1038 q 78 1162 46 1129 q 157 1194 111 1194 q 204 1183 179 1194 q 250 1194 229 1194 m 250 1007 q 304 1029 282 1007 q 326 1083 326 1051 q 304 1138 326 1115 q 250 1160 282 1160 q 213 1149 232 1160 q 194 1149 204 1144 q 157 1160 176 1160 q 103 1138 125 1160 q 81 1083 81 1115 q 103 1029 81 1051 q 157 1007 125 1007 q 194 1018 176 1007 q 204 1021 200 1021 q 213 1018 207 1021 q 250 1007 232 1007 m 239 1096 q 251 1101 243 1101 q 264 1096 258 1101 q 268 1083 268 1092 q 264 1071 268 1075 q 260 1069 261 1069 q 257 1067 260 1068 q 254 1066 256 1067 q 250 1065 253 1065 q 247 1066 249 1065 q 244 1067 246 1067 q 239 1071 242 1068 q 233 1083 233 1075 q 239 1096 233 1092 z "},"":{"ha":1075,"x_min":56,"x_max":1019,"o":"m 715 643 q 690 643 703 631 q 619 690 660 675 q 538 706 579 706 q 458 690 497 706 q 386 643 418 675 q 340 572 356 611 q 324 490 324 532 q 340 410 324 449 q 386 339 356 371 q 458 291 418 307 q 539 275 497 275 q 620 291 581 275 q 690 339 660 307 q 715 339 703 351 q 715 314 728 326 q 633 259 679 278 q 539 240 588 240 q 444 259 490 240 q 361 314 397 278 q 307 397 325 350 q 289 491 289 443 q 307 585 289 539 q 361 668 325 631 q 444 723 397 704 q 538 742 490 742 q 633 723 586 742 q 715 668 679 704 q 715 643 728 656 m 538 879 q 688 849 618 879 q 811 765 758 818 q 894 642 864 713 q 925 490 925 571 q 894 340 925 410 q 811 217 864 269 q 688 133 758 164 q 538 103 618 103 q 386 133 457 103 q 263 217 315 164 q 179 340 210 269 q 149 490 149 410 q 179 642 149 571 q 263 765 210 713 q 386 849 315 818 q 538 879 457 879 m 538 138 q 675 165 611 138 q 787 241 739 193 q 863 353 835 289 q 890 490 890 418 q 863 628 890 564 q 787 740 835 692 q 675 815 739 788 q 538 843 611 843 q 401 815 465 843 q 288 740 336 788 q 213 628 240 692 q 185 490 185 564 q 213 353 185 418 q 288 241 240 289 q 401 165 336 193 q 538 138 465 138 m 538 972 q 725 935 638 972 q 878 831 813 897 q 981 678 943 765 q 1019 490 1019 590 q 981 303 1019 390 q 878 150 943 215 q 725 47 813 85 q 538 8 638 8 q 350 47 438 8 q 197 150 263 85 q 94 303 132 215 q 56 490 56 390 q 94 678 56 590 q 197 831 132 765 q 350 935 263 897 q 538 972 438 972 m 538 44 q 710 80 629 44 q 852 176 792 115 q 948 317 913 236 q 983 490 983 399 q 948 665 983 583 q 852 806 913 746 q 710 902 792 867 q 538 938 629 938 q 364 902 446 938 q 222 806 282 867 q 126 665 161 746 q 90 490 90 583 q 126 317 90 399 q 222 176 161 236 q 364 80 282 115 q 538 44 446 44 m 422 490 q 456 572 422 539 q 538 606 489 606 q 619 572 586 606 q 653 490 653 539 q 619 409 653 443 q 538 375 586 375 q 456 409 489 375 q 422 490 422 443 m 617 490 q 594 547 617 524 q 538 571 571 571 q 481 547 504 571 q 457 490 457 524 q 481 435 457 458 q 538 411 504 411 q 594 434 571 411 q 617 490 617 457 z "},"":{"ha":653,"x_min":38,"x_max":607,"o":"m 510 581 q 510 567 513 574 q 501 557 508 560 q 488 555 494 553 q 478 564 482 557 l 446 624 l 206 624 l 174 564 q 158 554 169 554 q 150 557 156 554 q 143 581 136 564 l 308 900 q 324 910 314 910 l 324 910 q 339 900 335 910 l 510 581 m 428 658 l 324 854 l 224 658 l 428 658 m 592 624 q 605 581 603 603 q 601 540 607 560 q 581 502 594 519 q 546 474 567 485 q 493 461 521 461 q 461 465 478 461 q 396 519 417 481 l 390 531 l 263 531 l 257 521 q 216 477 242 493 q 158 461 190 461 q 107 474 132 461 q 53 539 65 496 q 60 624 38 582 l 225 943 q 266 987 240 971 q 324 1003 292 1003 q 381 988 356 1003 q 422 944 407 972 l 592 624 m 529 504 q 567 550 557 519 q 561 608 576 581 l 390 928 q 363 958 381 947 q 324 968 344 968 q 256 926 278 968 l 90 607 q 86 549 76 576 q 124 504 94 519 q 181 500 151 490 q 226 538 211 510 l 236 556 q 251 565 242 565 l 400 565 q 417 556 410 565 l 426 536 q 471 500 442 508 q 529 506 500 490 l 529 504 z "},"":{"ha":864,"x_min":44,"x_max":810,"o":"m 432 260 q 433 235 444 247 q 419 229 428 229 q 408 233 413 229 l 144 476 q 138 489 138 481 q 143 501 138 496 l 408 747 q 433 746 421 760 q 438 733 438 740 q 432 722 438 726 l 182 489 l 432 260 m 708 260 q 708 235 721 247 q 696 229 704 229 q 685 233 689 229 l 419 476 q 414 489 414 482 q 419 501 414 496 l 683 747 q 708 746 699 760 q 708 722 721 733 l 457 489 l 708 260 m 771 329 q 797 294 788 314 q 807 252 806 274 q 801 210 808 231 q 778 172 793 189 q 741 145 763 154 q 696 136 719 136 q 621 165 653 136 l 531 247 q 501 172 531 204 q 467 147 488 156 q 425 137 447 138 q 382 143 403 136 q 344 165 361 150 l 81 407 q 44 489 44 440 q 53 534 44 513 q 81 571 63 556 l 344 817 q 424 846 378 849 q 501 810 469 843 q 531 733 532 776 l 621 817 q 700 846 654 849 q 778 810 746 843 q 807 731 810 776 q 771 653 804 685 l 596 489 l 771 329 m 476 196 q 496 247 496 218 q 475 299 496 275 l 351 413 l 282 476 q 276 489 276 481 q 282 503 276 497 l 472 679 q 496 732 494 701 q 475 786 497 761 q 422 811 454 808 q 368 790 392 811 l 104 544 q 79 489 79 522 q 104 433 79 456 l 368 190 q 424 172 392 171 q 476 196 456 172 m 751 196 q 772 251 774 219 q 747 303 771 282 l 558 476 q 551 489 551 481 q 557 503 551 494 l 747 679 q 772 732 769 700 q 751 786 772 764 q 699 811 731 808 q 644 790 665 811 l 379 544 q 356 489 356 524 q 376 438 356 458 l 500 324 l 644 190 q 699 172 667 171 q 751 196 732 172 z "},"":{"ha":775,"x_min":46,"x_max":719,"o":"m 608 508 q 626 490 626 508 l 626 307 q 608 289 626 289 q 592 307 592 289 l 592 474 l 157 474 q 139 490 139 474 q 157 508 139 508 l 608 508 m 608 601 q 687 569 654 601 q 719 490 719 536 l 719 307 q 687 228 719 261 q 608 196 654 196 q 530 228 563 196 q 497 307 497 261 l 497 379 l 157 379 q 78 412 111 379 q 46 490 46 444 q 78 569 46 536 q 157 601 111 601 l 608 601 m 685 490 q 663 544 685 522 q 608 567 640 567 l 157 567 q 103 544 125 567 q 81 490 81 522 q 103 437 81 458 q 157 415 125 415 l 515 415 q 532 397 532 415 l 532 307 q 554 253 532 275 q 608 231 576 231 q 663 253 640 231 q 685 307 685 275 l 685 490 z "},"":{"ha":1075,"x_min":56,"x_max":1019,"o":"m 538 879 q 688 849 618 879 q 811 765 758 818 q 894 642 864 713 q 925 490 925 571 q 894 340 925 410 q 811 217 864 269 q 688 133 758 164 q 538 103 618 103 q 386 133 457 103 q 263 217 315 164 q 179 340 210 269 q 149 490 149 410 q 179 642 149 571 q 263 765 210 713 q 386 849 315 818 q 538 879 457 879 m 538 138 q 675 165 611 138 q 787 241 739 193 q 863 353 835 289 q 890 490 890 418 q 863 628 890 564 q 787 740 835 692 q 675 815 739 788 q 538 843 611 843 q 401 815 465 843 q 288 740 336 788 q 213 628 240 692 q 185 490 185 564 q 213 353 185 418 q 288 241 240 289 q 401 165 336 193 q 538 138 465 138 m 700 557 q 670 480 700 513 q 597 442 640 447 l 675 335 q 678 322 679 329 q 672 311 678 315 q 661 307 667 307 q 647 314 651 307 l 554 440 l 439 440 l 438 325 q 421 307 438 307 q 403 325 403 307 l 403 636 q 414 663 403 651 q 440 674 425 674 l 583 674 q 666 640 632 674 q 700 557 700 606 m 583 475 q 641 499 617 475 q 665 557 665 524 q 641 615 665 590 q 583 639 617 639 l 440 639 l 439 475 l 583 475 m 538 972 q 725 935 638 972 q 878 831 813 897 q 981 678 943 765 q 1019 490 1019 590 q 981 303 1019 390 q 878 150 943 215 q 725 47 813 85 q 538 8 638 8 q 350 47 438 8 q 197 150 263 85 q 94 303 132 215 q 56 490 56 390 q 94 678 56 590 q 197 831 132 765 q 350 935 263 897 q 538 972 438 972 m 538 44 q 710 80 629 44 q 852 176 792 115 q 948 317 913 236 q 983 490 983 399 q 948 665 983 583 q 852 806 913 746 q 710 902 792 867 q 538 938 629 938 q 363 902 444 938 q 222 806 282 867 q 126 665 161 746 q 90 490 90 583 q 126 317 90 399 q 222 176 161 236 q 363 80 282 115 q 538 44 444 44 m 538 767 q 645 745 594 767 q 733 686 696 724 q 792 598 771 649 q 814 490 814 547 q 792 383 814 433 q 733 296 771 333 q 645 236 696 258 q 538 214 594 214 q 430 236 481 214 q 342 296 379 258 q 283 383 304 333 q 261 490 261 433 q 283 598 261 547 q 342 686 304 649 q 430 745 379 724 q 538 767 481 767 m 538 250 q 631 269 588 250 q 708 320 675 288 q 759 397 740 353 q 778 490 778 440 q 759 584 778 540 q 708 661 740 628 q 631 713 675 694 q 538 732 588 732 q 444 713 488 732 q 367 661 400 694 q 315 584 333 628 q 296 490 296 540 q 315 397 296 440 q 367 320 333 353 q 444 269 400 288 q 538 250 488 250 z "},"":{"ha":757,"x_min":46,"x_max":710,"o":"m 599 879 q 617 861 617 879 q 599 843 617 843 l 157 843 q 139 861 139 843 q 157 879 139 879 l 599 879 m 599 972 q 677 940 644 972 q 710 861 710 907 q 677 783 710 815 q 599 750 644 750 l 157 750 q 78 783 111 750 q 46 861 46 815 q 78 940 46 907 q 157 972 111 972 l 599 972 m 599 785 q 653 807 631 785 q 675 861 675 829 q 653 915 675 893 q 599 938 631 938 l 157 938 q 103 915 125 938 q 81 861 81 893 q 103 807 81 829 q 157 785 125 785 l 599 785 z "},"":{"ha":599,"x_min":53,"x_max":546,"o":"m 299 879 q 358 867 331 879 q 407 835 386 856 q 440 786 428 814 q 451 726 451 758 q 440 667 451 694 q 407 618 428 639 q 358 585 386 597 q 299 574 331 574 q 240 585 268 574 q 192 618 213 597 q 158 667 171 639 q 146 726 146 694 q 158 786 146 758 q 192 835 171 814 q 240 867 213 856 q 299 879 268 879 m 299 608 q 382 643 347 608 q 417 726 417 678 q 408 772 417 750 q 383 809 399 793 q 345 834 367 825 q 299 843 324 843 q 216 809 250 843 q 182 726 182 775 q 191 680 182 701 q 216 642 200 658 q 253 617 232 626 q 299 608 275 608 m 299 972 q 395 953 350 972 q 474 900 440 933 q 526 822 507 867 q 546 726 546 776 q 526 630 546 675 q 474 551 507 585 q 395 499 440 518 q 299 479 350 479 q 203 499 249 479 q 125 551 158 518 q 72 630 92 585 q 53 726 53 675 q 72 822 53 778 q 125 900 92 867 q 203 953 158 933 q 299 972 249 972 m 299 515 q 381 532 343 515 q 448 577 419 549 q 493 644 476 606 q 510 726 510 683 q 493 809 510 771 q 448 876 476 847 q 381 921 419 904 q 299 938 343 938 q 217 921 256 938 q 149 876 178 904 q 104 809 121 847 q 88 726 88 771 q 104 644 88 683 q 150 577 121 606 q 217 532 179 549 q 299 515 256 515 z "},"":{"ha":751,"x_min":56,"x_max":694,"o":"m 357 535 l 167 535 q 149 551 149 535 q 167 569 149 569 l 357 569 l 357 761 q 375 778 357 778 q 393 761 393 778 l 393 569 l 583 569 q 601 551 601 569 q 583 535 601 535 l 393 535 l 393 343 q 375 326 393 326 q 357 343 357 326 l 357 535 m 583 365 q 662 333 629 365 q 694 254 694 300 q 662 176 694 208 q 583 143 629 143 l 167 143 q 88 176 121 143 q 56 254 56 208 q 88 333 56 300 q 167 365 121 365 l 264 365 l 264 440 l 167 440 q 88 473 121 440 q 56 551 56 506 q 88 631 56 599 q 167 663 121 663 l 264 663 l 264 760 q 297 840 264 807 q 375 872 329 872 q 453 840 421 872 q 486 760 486 807 l 486 663 l 583 663 q 662 631 629 663 q 694 551 694 599 q 662 473 694 506 q 583 440 629 440 l 486 440 l 486 365 l 583 365 m 583 178 q 638 200 615 178 q 660 254 660 222 q 638 308 660 286 q 583 331 615 331 l 469 331 q 451 347 451 331 l 451 458 q 469 476 451 476 l 583 476 q 638 498 615 476 q 660 551 660 519 q 638 606 660 583 q 583 628 615 628 l 469 628 q 451 646 451 628 l 451 760 q 429 814 451 792 q 375 836 407 836 q 321 814 343 836 q 299 760 299 792 l 299 646 q 282 628 299 628 l 167 628 q 113 606 135 628 q 90 551 90 583 q 113 498 90 519 q 167 476 135 476 l 282 476 q 299 458 299 476 l 299 347 q 282 331 299 331 l 167 331 q 113 308 135 331 q 90 254 90 286 q 113 200 90 222 q 167 178 135 178 l 583 178 m 583 271 q 601 254 601 271 q 583 236 601 236 l 167 236 q 149 254 149 236 q 167 271 149 271 l 583 271 z "},"":{"ha":544,"x_min":46,"x_max":489,"o":"m 429 683 q 473 642 457 668 q 489 585 489 617 q 456 506 489 539 q 378 474 424 474 l 163 474 q 97 494 126 474 q 57 549 68 515 q 56 617 46 583 q 96 674 67 651 q 188 750 144 708 q 117 786 146 754 q 88 861 88 818 q 120 940 88 907 q 199 972 153 972 l 286 972 q 367 963 333 972 q 422 937 400 953 q 456 902 443 921 q 475 864 469 883 q 481 840 478 856 q 483 802 485 825 q 469 750 481 779 q 429 683 457 721 m 378 508 q 432 531 410 508 q 454 585 454 553 q 438 631 454 611 q 396 658 422 651 q 383 669 388 660 q 388 686 381 679 q 430 750 417 722 q 447 798 443 778 q 447 831 450 818 q 442 853 444 844 q 286 938 414 938 l 199 938 q 145 915 167 938 q 124 861 124 893 q 145 807 124 829 q 199 785 167 785 l 231 785 q 247 774 243 785 q 243 756 253 763 q 183 699 217 728 q 117 646 150 669 q 90 607 97 631 q 90 560 83 583 q 118 522 99 536 q 163 508 138 508 l 378 508 m 378 601 q 396 585 396 601 q 378 567 396 567 l 163 567 q 146 579 151 567 q 151 599 142 590 q 223 656 185 624 q 292 721 261 689 q 340 781 322 753 q 353 824 358 808 q 286 843 346 843 l 199 843 q 182 861 182 843 q 199 879 182 879 l 286 879 q 309 878 294 879 q 339 874 324 878 q 367 860 354 869 q 386 835 381 851 q 378 780 394 811 q 335 716 363 749 q 274 653 307 683 q 214 601 240 624 l 378 601 z "},"":{"ha":601,"x_min":54,"x_max":544,"o":"m 544 792 q 531 722 544 754 q 544 654 544 690 q 531 584 544 617 q 492 526 517 551 q 434 488 467 501 q 364 474 401 474 l 165 474 q 87 506 119 474 q 54 585 54 539 q 78 653 54 624 q 138 692 101 682 q 136 697 136 694 q 133 710 133 704 q 133 722 133 717 q 133 735 133 729 q 136 749 133 742 l 138 750 l 138 753 q 78 792 101 763 q 54 861 54 822 q 87 940 54 907 q 165 972 119 972 l 364 972 q 434 958 401 972 q 492 919 467 944 q 531 862 517 894 q 544 792 544 829 m 496 715 q 496 731 492 722 q 510 792 510 763 q 499 849 510 822 q 467 895 488 875 q 421 926 447 915 q 364 938 394 938 l 165 938 q 111 915 133 938 q 89 861 89 893 q 110 808 89 829 q 163 785 131 786 q 176 776 172 785 q 178 760 183 768 q 174 751 175 754 q 172 746 172 749 l 153 744 l 169 740 q 168 722 168 733 q 169 706 168 711 l 172 700 q 174 694 174 697 q 176 689 175 692 l 161 679 l 178 685 q 178 668 182 676 q 163 660 174 663 q 110 637 131 658 q 89 585 89 615 q 111 531 89 553 q 165 508 133 508 l 364 508 q 421 519 394 508 q 467 551 447 531 q 499 597 488 571 q 510 653 510 624 q 506 685 510 669 q 496 715 503 700 m 451 792 q 442 753 451 771 q 417 722 432 735 q 442 693 432 711 q 451 653 451 675 q 426 592 451 617 q 364 567 400 567 l 165 567 q 147 585 147 567 q 165 601 147 601 l 364 601 q 401 617 386 601 q 417 653 417 632 q 401 690 417 675 q 364 706 386 706 l 244 706 q 226 722 226 706 q 244 740 226 740 l 364 740 q 401 756 386 740 q 417 792 417 771 q 401 828 417 814 q 364 843 386 843 l 165 843 q 147 861 147 843 q 165 879 147 879 l 364 879 q 426 853 400 879 q 451 792 451 828 z "},"":{"ha":399,"x_min":40,"x_max":353,"o":"m 249 1210 q 254 1185 264 1200 l 174 1054 q 158 1046 168 1046 q 149 1049 153 1046 q 141 1058 142 1051 q 143 1072 140 1065 l 225 1204 q 235 1212 228 1211 q 249 1210 242 1213 m 297 1289 q 330 1258 317 1276 q 348 1219 343 1240 q 349 1177 353 1199 q 333 1136 346 1156 l 253 1004 q 213 966 238 981 q 158 951 188 951 q 128 956 143 951 q 100 968 114 961 q 50 1038 60 994 q 64 1122 40 1081 l 144 1253 q 239 1306 178 1306 q 297 1289 272 1306 m 304 1154 q 314 1213 321 1182 q 279 1260 307 1243 q 239 1271 260 1271 q 175 1235 197 1271 l 93 1103 q 85 1046 76 1075 q 118 999 92 1017 q 176 990 144 982 q 224 1024 207 997 l 304 1154 z "},"":{"ha":1040,"x_min":51,"x_max":972,"o":"m 861 879 q 878 861 878 879 l 878 119 q 861 103 878 103 q 843 119 843 103 l 843 843 l 400 843 q 315 826 354 843 q 245 778 275 808 q 198 709 215 749 q 181 624 181 669 q 198 538 181 578 q 245 467 215 497 q 315 420 275 438 q 400 403 354 403 l 586 403 l 586 768 q 592 780 586 775 q 604 785 597 785 q 617 780 611 785 q 622 768 622 775 l 622 119 q 604 103 622 103 q 586 119 586 103 l 586 368 l 400 368 q 301 388 347 368 q 219 443 254 408 q 165 524 185 478 q 144 624 144 571 q 165 723 144 676 q 219 804 185 769 q 301 859 254 839 q 400 879 347 879 l 861 879 m 511 785 q 523 780 518 785 q 528 768 528 775 l 528 479 q 511 463 528 463 l 400 463 q 338 475 367 463 q 286 510 308 488 q 251 561 264 532 q 239 624 239 590 q 251 686 239 657 q 286 738 264 715 q 338 772 308 760 q 400 785 367 785 l 511 785 m 493 750 l 400 750 q 310 713 347 750 q 274 624 274 676 q 310 534 274 571 q 400 497 347 497 l 493 497 l 493 750 m 861 972 q 940 940 907 972 q 972 861 972 907 l 972 119 q 940 41 972 74 q 861 8 907 8 q 782 41 814 8 q 750 119 750 74 l 750 750 l 715 750 l 715 119 q 683 41 715 74 q 604 8 650 8 q 526 41 558 8 q 493 119 493 74 l 493 275 l 400 275 q 265 302 328 275 q 154 376 201 329 q 79 488 107 424 q 51 624 51 551 q 79 759 51 696 q 154 869 107 822 q 265 944 201 917 q 400 972 328 972 l 861 972 m 936 861 q 915 915 936 893 q 861 938 893 938 l 400 938 q 278 913 336 938 q 178 845 221 888 q 111 746 136 803 q 86 624 86 689 q 111 501 86 558 q 178 401 136 444 q 278 334 221 358 q 400 310 336 310 l 511 310 q 528 292 528 310 l 528 119 q 550 66 528 88 q 604 44 572 44 q 658 66 636 44 q 681 119 681 88 l 681 768 q 685 780 681 775 q 697 785 690 785 l 767 785 q 779 780 774 785 q 785 768 785 775 l 785 119 q 807 66 785 88 q 861 44 829 44 q 915 66 893 44 q 936 119 936 88 l 936 861 z "},"":{"ha":318,"x_min":47,"x_max":269,"o":"m 158 628 q 237 595 204 628 q 269 517 269 563 l 269 496 q 237 417 269 450 q 158 385 204 385 q 80 417 113 385 q 47 496 47 450 l 47 517 q 80 595 47 563 q 158 628 113 628 m 235 517 q 213 571 235 549 q 158 593 190 593 q 104 571 126 593 q 82 517 82 549 l 82 496 q 104 442 82 464 q 158 419 126 419 q 213 442 190 419 q 235 496 235 464 l 235 517 m 158 535 q 176 517 176 535 l 176 496 q 158 478 176 478 q 140 496 140 478 l 140 517 q 158 535 140 535 z "},"":{"ha":394,"x_min":47,"x_max":349,"o":"m 296 158 q 349 47 349 117 q 334 -17 349 13 q 294 -67 319 -46 q 235 -99 269 -87 q 158 -111 200 -111 q 80 -78 113 -111 q 47 0 47 -46 q 54 39 47 18 q 47 76 47 57 l 47 119 q 80 199 47 167 q 158 231 113 231 q 250 182 217 231 q 296 158 278 172 m 158 -76 q 270 -41 226 -76 q 314 47 314 -6 q 274 131 314 99 q 256 142 265 138 q 235 150 246 147 q 224 158 228 153 q 158 196 201 196 q 104 174 126 196 q 82 119 82 151 l 82 76 q 89 46 82 63 q 89 31 93 39 q 82 0 82 14 q 104 -54 82 -32 q 158 -76 126 -76 m 238 85 q 250 72 244 81 q 256 47 256 63 q 245 15 256 28 q 220 -5 235 3 q 189 -15 206 -12 q 158 -18 172 -18 q 140 0 140 -18 q 158 18 140 18 q 189 22 175 19 q 210 31 200 25 q 219 47 219 36 q 217 57 219 54 q 192 63 210 64 q 163 60 175 63 q 147 63 153 57 q 140 76 140 67 l 140 119 q 158 138 140 138 q 176 119 176 138 l 176 97 q 208 97 190 99 q 238 85 225 96 z "},"":{"ha":478,"x_min":54,"x_max":428,"o":"m 354 689 q 407 649 386 678 q 428 585 428 621 q 395 506 428 538 q 317 474 363 474 l 165 474 q 87 506 119 474 q 54 585 54 538 q 76 650 54 621 q 132 690 97 679 l 132 760 q 84 801 101 774 q 67 861 67 828 q 99 940 67 907 q 178 972 132 972 l 243 972 q 322 940 289 972 q 354 861 354 907 l 354 689 m 317 508 q 370 531 349 508 q 392 585 392 553 q 375 632 392 611 q 332 658 358 653 q 318 675 318 661 l 318 861 q 297 915 318 893 q 243 938 275 938 l 178 938 q 124 915 146 938 q 101 861 101 893 q 116 816 101 836 q 154 789 131 796 q 167 772 167 783 l 167 676 q 151 660 167 663 q 106 633 124 654 q 89 585 89 613 q 111 531 89 553 q 165 508 133 508 l 317 508 m 317 601 q 333 585 333 601 q 317 567 333 567 l 165 567 q 147 585 147 567 q 165 601 147 601 l 225 601 l 225 843 l 178 843 q 160 861 160 843 q 178 879 160 879 l 243 879 q 260 861 260 879 l 260 601 l 317 601 z "},"":{"ha":606,"x_min":53,"x_max":551,"o":"m 303 879 q 363 867 335 879 q 413 833 392 854 q 446 783 433 811 q 458 722 458 754 q 441 652 458 685 q 396 599 424 619 l 394 597 l 393 596 q 351 574 374 582 q 303 567 328 567 q 242 579 271 567 q 192 613 214 592 q 158 662 171 633 q 146 722 146 690 q 159 785 146 756 q 194 835 172 814 l 196 836 l 197 838 q 244 868 218 857 q 303 879 271 879 m 303 601 q 356 615 331 601 l 207 796 q 189 762 196 781 q 182 722 182 743 q 217 637 182 672 q 303 601 253 601 m 385 635 q 413 674 403 651 q 424 722 424 696 q 388 808 424 772 q 303 843 353 843 q 232 821 263 843 l 385 635 m 303 972 q 399 953 354 972 q 478 899 444 933 q 532 819 513 865 q 551 722 551 774 q 528 617 551 667 q 460 531 504 567 l 454 525 q 447 519 450 521 l 433 532 l 443 517 l 439 514 q 303 474 375 474 q 206 493 251 474 q 126 547 160 513 q 72 626 92 581 q 53 722 53 671 q 70 813 53 769 q 121 893 88 857 q 129 903 128 900 q 133 906 132 906 q 136 908 135 907 q 139 910 138 910 q 142 913 140 911 q 303 972 214 972 m 438 557 q 496 631 475 589 q 517 722 517 674 q 500 806 517 767 q 454 874 483 844 q 386 920 425 903 q 303 938 347 938 q 165 886 225 938 q 163 884 164 885 q 160 882 161 883 l 147 871 q 88 722 88 804 q 105 639 88 678 q 151 571 122 600 q 219 525 181 542 q 303 508 258 508 q 419 543 363 508 l 424 546 l 428 550 l 433 553 q 438 557 433 557 z "},"":{"ha":864,"x_min":53,"x_max":818,"o":"m 719 501 q 725 489 725 496 q 719 476 725 482 l 454 233 q 443 229 450 229 q 429 235 435 229 q 431 260 418 247 l 681 489 l 431 722 q 425 733 425 726 q 429 746 425 740 q 454 747 442 760 l 719 501 m 443 501 q 449 489 449 497 q 443 476 449 482 l 179 233 q 167 229 174 229 q 154 235 158 229 q 156 260 142 247 l 406 489 l 154 722 q 154 746 142 733 q 179 747 167 760 l 443 501 m 782 571 q 809 534 800 556 q 818 489 818 513 q 782 407 818 440 l 518 165 q 443 136 488 136 q 361 172 393 136 q 332 247 332 204 l 242 165 q 204 143 225 150 q 162 137 183 136 q 120 147 140 138 q 85 172 100 156 q 56 251 53 206 q 92 329 58 297 l 267 489 l 92 653 q 56 731 58 685 q 85 810 53 776 q 163 846 117 843 q 243 817 207 849 l 332 733 q 361 810 331 776 q 439 846 393 843 q 518 817 485 849 l 782 571 m 363 322 l 363 324 l 486 438 q 507 489 507 458 q 483 544 507 524 l 218 790 q 164 811 197 811 q 111 786 132 808 q 90 732 90 764 q 115 679 93 700 l 306 503 q 311 489 311 494 q 304 476 311 481 l 115 303 q 90 250 93 282 q 111 196 90 217 q 163 172 131 172 q 218 190 196 171 l 363 322 m 758 433 q 783 489 783 456 q 758 544 783 522 l 494 790 q 440 811 472 811 q 388 786 408 808 q 367 732 365 761 q 390 679 369 701 l 581 503 q 586 489 586 497 q 581 476 586 481 l 511 413 l 511 413 l 388 297 q 367 247 367 275 q 386 196 367 218 q 439 172 407 172 q 494 190 471 171 l 758 433 z "},"":{"ha":1267,"x_min":56,"x_max":1219,"o":"m 1014 942 q 1040 906 1031 926 q 1049 865 1049 886 q 1042 822 1050 843 q 1019 785 1035 801 l 324 44 q 242 8 290 8 q 167 39 197 8 q 131 117 133 71 q 138 160 131 139 q 161 196 146 181 l 857 938 q 935 972 889 971 q 1014 942 981 974 m 993 810 q 1015 864 1015 833 q 990 917 1014 894 q 938 938 968 938 q 882 914 906 938 l 186 172 q 167 118 164 149 q 190 65 167 86 q 244 44 213 43 q 297 68 276 46 l 993 810 m 925 874 q 950 874 938 886 q 950 849 963 861 l 256 108 q 242 103 250 103 q 231 107 235 103 q 224 119 225 113 q 229 132 224 126 l 925 874 m 167 474 q 88 506 121 474 q 56 585 56 538 q 77 650 56 621 q 133 690 99 679 l 133 760 q 85 801 103 774 q 68 861 68 828 q 101 940 68 907 q 179 972 133 972 l 244 972 q 323 940 290 972 q 356 861 356 907 l 356 689 q 408 649 388 678 q 429 585 429 621 q 397 506 429 538 q 318 474 364 474 l 167 474 m 90 585 q 113 531 90 553 q 167 508 135 508 l 318 508 q 372 531 350 508 q 393 585 393 553 q 376 632 393 611 q 333 658 360 653 q 319 675 319 661 l 319 861 q 298 915 319 893 q 244 938 276 938 l 179 938 q 125 915 147 938 q 103 861 103 893 q 117 816 103 836 q 156 789 132 796 q 168 772 168 783 l 168 676 q 153 660 168 663 q 108 633 125 654 q 90 585 90 613 m 167 567 q 149 585 149 567 q 167 601 149 601 l 226 601 l 226 843 l 179 843 q 161 861 161 843 q 179 879 161 879 l 244 879 q 261 861 261 879 l 261 601 l 318 601 q 335 585 335 601 q 318 567 335 567 l 167 567 m 1164 297 q 1205 256 1190 282 q 1219 201 1219 231 q 1204 145 1219 171 q 1163 104 1189 119 q 1126 36 1157 64 q 1053 8 1094 8 q 987 31 1017 8 q 947 90 957 54 l 819 90 q 755 108 785 90 q 708 156 725 125 q 692 219 692 185 q 710 285 692 254 l 811 454 q 879 504 835 493 q 964 492 924 517 q 981 481 969 489 q 1053 508 1013 508 q 1132 476 1100 508 q 1164 397 1164 443 l 1164 297 m 1139 132 q 1172 159 1160 140 q 1185 201 1185 178 q 1172 242 1185 224 q 1140 271 1160 261 q 1129 286 1129 275 l 1129 397 q 1107 451 1129 429 q 1053 472 1085 472 q 993 443 1017 472 q 981 436 989 436 q 967 443 971 436 q 956 454 961 450 q 946 463 951 458 q 907 474 926 474 q 897 473 901 474 q 888 471 893 472 q 842 436 857 463 l 739 267 q 739 172 713 219 q 773 138 751 150 q 819 125 794 125 l 961 125 q 978 110 975 125 q 1003 63 982 82 q 1053 44 1025 44 q 1105 65 1083 44 q 1129 117 1126 86 q 1139 132 1129 128 m 1108 218 q 1126 201 1126 218 q 1108 183 1126 183 l 1071 183 l 1071 121 q 1053 103 1071 103 q 1036 121 1036 103 l 1036 183 l 819 183 q 789 201 800 183 q 790 236 781 219 l 892 406 q 901 414 894 413 q 915 413 908 415 q 921 388 931 403 l 819 218 l 1036 218 l 1036 397 q 1053 414 1036 414 q 1071 397 1071 414 l 1071 218 l 1108 218 z "},"":{"ha":1218,"x_min":56,"x_max":1164,"o":"m 1049 865 q 1019 785 1050 821 l 324 44 q 242 8 290 8 q 167 39 197 8 q 141 74 150 54 q 131 116 132 94 q 138 158 131 138 q 161 196 146 179 l 857 938 q 935 972 889 971 q 1014 942 981 974 q 1049 865 1049 911 m 993 810 q 1014 864 1014 831 q 990 917 1014 893 q 938 938 968 938 q 882 913 906 938 l 186 172 q 166 117 165 149 q 190 65 167 86 q 244 44 213 43 q 297 68 276 46 l 993 810 m 925 874 q 950 874 938 886 q 950 849 963 861 l 256 108 q 242 103 250 103 q 231 107 235 103 q 224 119 225 113 q 229 132 224 126 l 925 874 m 167 474 q 88 506 121 474 q 56 585 56 538 q 77 650 56 621 q 133 690 99 679 l 133 760 q 85 801 103 774 q 68 861 68 828 q 101 940 68 907 q 179 972 133 972 l 244 972 q 323 940 290 972 q 356 861 356 907 l 356 689 q 408 649 388 678 q 429 585 429 621 q 397 506 429 538 q 318 474 364 474 l 167 474 m 90 585 q 113 531 90 553 q 167 508 135 508 l 318 508 q 372 531 350 508 q 393 585 393 553 q 376 632 393 611 q 333 658 360 653 q 319 675 319 661 l 319 861 q 298 915 319 893 q 244 938 276 938 l 179 938 q 125 915 147 938 q 103 861 103 893 q 117 816 103 836 q 156 789 132 796 q 168 772 168 783 l 168 676 q 153 660 168 663 q 108 633 125 654 q 90 585 90 613 m 167 567 q 149 585 149 567 q 167 601 149 601 l 226 601 l 226 843 l 179 843 q 161 861 161 843 q 179 879 161 879 l 244 879 q 261 861 261 879 l 261 601 l 318 601 q 335 585 335 601 q 318 567 335 567 l 167 567 m 1103 219 q 1147 178 1131 204 q 1164 119 1164 151 q 1131 41 1164 74 q 1053 8 1099 8 l 838 8 q 772 29 801 8 q 732 85 743 50 q 731 153 721 119 q 771 210 742 188 q 817 247 794 226 q 863 286 840 267 q 792 322 821 290 q 763 397 763 353 q 795 476 763 443 q 874 508 828 508 l 961 508 q 1042 499 1008 508 q 1097 473 1075 489 q 1131 438 1118 457 q 1150 400 1144 419 q 1156 376 1153 392 q 1157 338 1160 361 q 1142 286 1154 315 q 1103 219 1131 257 m 1051 44 q 1106 66 1083 44 q 1128 119 1128 88 q 1112 167 1128 147 q 1071 194 1096 188 q 1058 206 1061 197 q 1061 222 1056 215 q 1104 286 1090 258 q 1122 334 1118 314 q 1122 367 1125 354 q 1117 389 1119 381 q 961 472 1088 472 l 874 472 q 819 451 842 472 q 797 397 797 429 q 819 343 797 365 q 874 321 842 321 l 906 321 q 921 310 917 321 q 918 290 925 300 q 857 235 890 264 q 792 181 824 206 q 765 142 772 165 q 765 96 757 119 q 792 58 772 72 q 838 44 813 44 l 1053 44 l 1051 44 m 1051 138 q 1064 133 1058 138 q 1069 121 1069 128 q 1051 103 1069 103 l 836 103 q 819 115 824 103 q 826 135 818 126 q 897 192 860 160 q 965 257 935 225 q 1014 317 996 289 q 1028 360 1032 344 q 961 379 1021 379 l 874 379 q 856 397 856 379 q 874 414 856 414 l 961 414 q 983 413 969 414 q 1013 408 997 413 q 1042 396 1029 404 q 1061 371 1056 388 q 1053 316 1069 347 q 1008 252 1036 285 q 947 190 981 219 q 888 138 914 160 l 1053 138 l 1051 138 z "},"":{"ha":1369,"x_min":51,"x_max":1322,"o":"m 542 654 q 528 584 542 617 q 489 526 514 551 q 431 488 464 501 q 361 474 399 474 l 163 474 q 84 506 117 474 q 51 585 51 539 q 75 653 51 624 q 135 692 99 682 q 133 697 133 694 q 131 710 131 704 q 131 722 131 717 q 131 735 131 729 q 133 749 131 742 q 135 753 133 751 q 75 792 99 763 q 51 861 51 822 q 84 940 51 907 q 163 972 117 972 l 361 972 q 431 958 399 972 q 489 919 464 944 q 528 862 514 894 q 542 792 542 829 q 528 722 542 756 q 542 654 542 690 m 86 585 q 108 531 86 553 q 163 508 131 508 l 361 508 q 418 520 392 508 q 465 551 444 532 q 496 597 485 571 q 507 654 507 624 q 493 715 507 683 q 493 731 489 722 q 507 792 507 763 q 496 849 507 822 q 465 895 485 875 q 418 926 444 915 q 361 938 392 938 l 163 938 q 108 915 131 938 q 86 861 86 893 q 107 808 86 829 q 160 785 128 786 q 174 776 169 785 q 175 760 181 768 q 169 746 169 750 l 150 744 l 167 740 q 165 722 165 733 q 167 706 165 711 l 153 694 l 153 694 l 169 700 q 172 694 171 697 q 174 689 172 692 l 158 679 l 175 685 q 175 668 179 676 q 168 663 172 664 q 160 660 164 661 q 107 637 128 658 q 86 585 86 615 m 449 654 q 423 592 449 618 q 361 567 397 567 l 163 567 q 144 585 144 567 q 163 601 144 601 l 361 601 q 399 617 383 601 q 414 654 414 632 q 399 690 414 675 q 361 706 383 706 l 242 706 q 224 722 224 706 q 242 740 224 740 l 361 740 q 399 756 383 740 q 414 792 414 771 q 399 828 414 814 q 361 843 383 843 l 163 843 q 144 861 144 843 q 163 879 144 879 l 361 879 q 423 853 397 879 q 449 792 449 828 q 439 753 449 771 q 414 722 429 735 q 439 693 429 711 q 449 654 449 675 m 1117 942 q 1151 864 1150 910 q 1121 785 1153 818 l 425 44 q 344 8 392 8 q 268 39 301 8 q 233 117 236 71 q 264 196 231 163 l 960 938 q 1038 972 992 971 q 1117 942 1083 974 m 1096 810 q 1117 864 1118 833 q 1092 917 1115 894 q 1040 938 1071 938 q 985 914 1008 938 l 289 172 q 268 118 268 150 q 293 65 271 86 q 347 44 315 43 q 400 68 379 46 l 1096 810 m 1028 874 q 1053 874 1040 886 q 1053 849 1065 861 l 357 108 q 344 103 353 103 q 332 107 339 103 q 332 132 319 119 l 1028 874 m 1211 218 q 1229 201 1229 218 q 1211 183 1229 183 l 1174 183 l 1174 121 q 1156 103 1174 103 q 1138 121 1138 103 l 1138 183 l 922 183 q 892 201 903 183 q 892 236 883 219 l 994 406 q 1004 414 997 413 q 1018 413 1011 415 q 1024 388 1033 403 l 922 218 l 1138 218 l 1138 397 q 1156 414 1138 414 q 1174 397 1174 414 l 1174 218 l 1211 218 m 1267 297 q 1308 256 1293 282 q 1322 201 1322 231 q 1307 145 1322 171 q 1265 104 1292 119 q 1228 36 1258 64 q 1156 8 1197 8 q 1089 31 1118 8 q 1049 90 1060 54 l 922 90 q 858 108 888 90 q 811 156 828 125 q 794 219 793 185 q 811 285 794 254 l 914 454 q 982 504 938 493 q 1026 507 1004 511 q 1067 492 1047 503 q 1082 481 1075 488 q 1117 501 1097 493 q 1156 508 1136 508 q 1234 476 1201 508 q 1267 397 1267 443 l 1267 297 m 1242 132 q 1275 159 1263 140 q 1288 201 1288 178 q 1275 242 1288 224 q 1242 271 1263 261 q 1232 286 1232 276 l 1232 397 q 1210 451 1232 429 q 1156 472 1188 472 q 1096 443 1119 472 q 1082 436 1092 436 q 1068 443 1075 436 q 1047 463 1061 453 q 1010 474 1029 474 q 1000 473 1004 474 q 990 471 996 472 q 943 436 961 463 l 842 267 q 842 172 815 219 q 876 138 854 150 q 922 125 897 125 l 1064 125 q 1081 110 1078 125 q 1106 63 1085 82 q 1156 44 1128 44 q 1208 65 1186 44 q 1232 117 1229 86 q 1242 132 1232 128 z "},"":{"ha":867,"x_min":47,"x_max":836,"o":"m 554 822 q 536 840 536 822 l 536 861 q 554 879 536 879 q 572 861 572 879 l 572 840 q 554 822 572 822 m 725 138 q 743 119 743 138 q 738 108 743 113 q 725 103 732 103 l 371 103 q 258 121 303 103 q 188 165 214 139 q 152 222 163 192 q 142 276 142 253 q 163 365 142 326 q 216 433 183 403 q 290 489 249 464 q 371 536 331 514 q 433 572 403 554 q 485 608 463 589 q 522 649 508 628 q 536 694 536 669 q 554 713 536 713 q 572 694 572 713 q 557 636 572 663 q 515 588 542 610 q 456 545 489 565 q 388 506 424 525 q 310 460 349 483 q 242 410 272 438 q 194 351 213 383 q 176 276 176 318 q 185 233 176 257 q 216 188 194 208 q 275 152 238 167 q 371 138 313 138 l 725 138 m 725 232 q 803 199 771 232 q 836 121 836 167 q 803 41 836 74 q 725 8 771 8 l 371 8 q 226 32 288 8 q 126 94 165 56 q 67 180 86 132 q 47 276 47 228 q 74 399 47 346 q 142 492 101 451 q 232 563 183 533 q 325 618 281 593 q 382 651 360 638 q 417 674 404 664 q 436 689 431 683 q 443 697 442 694 q 469 768 443 735 q 443 840 443 799 l 443 861 q 476 940 443 907 q 554 972 508 972 q 633 940 600 972 q 665 861 665 907 l 665 840 q 639 768 665 799 q 665 694 665 735 q 644 601 665 642 q 588 527 622 560 q 513 469 554 494 q 433 424 472 444 q 315 350 361 383 q 269 276 269 317 q 294 246 269 260 q 371 232 318 232 l 725 232 m 725 44 q 779 66 757 44 q 801 119 801 88 q 779 174 801 151 q 725 196 757 196 l 371 196 q 307 203 333 196 q 265 222 281 211 q 242 248 249 233 q 235 276 235 263 q 284 369 235 329 q 417 454 333 408 q 492 498 454 475 q 561 549 531 521 q 611 613 592 578 q 631 694 631 649 q 603 754 631 731 q 596 768 596 758 q 603 781 596 776 q 631 840 631 804 l 631 861 q 608 915 631 893 q 554 938 586 938 q 500 915 522 938 q 478 861 478 893 l 478 840 q 506 781 478 806 q 513 768 513 776 q 506 754 513 758 q 478 694 478 729 q 449 653 478 676 q 342 588 419 629 q 255 537 300 565 q 171 471 210 508 q 107 386 132 433 q 82 276 82 339 q 99 193 82 235 q 152 119 117 151 q 242 65 188 86 q 371 44 296 44 l 725 44 z "},"":{"ha":1008,"x_min":-4,"x_max":1011,"o":"m 483 668 q 499 676 488 676 l 499 676 q 515 668 510 676 l 667 382 q 665 365 672 372 q 651 356 661 356 l 351 356 q 338 365 343 356 q 336 382 331 372 l 483 668 m 381 392 l 622 392 l 500 621 l 381 392 m 990 172 q 999 88 1011 132 q 943 22 983 43 q 892 8 921 8 q 858 14 874 8 q 793 68 815 26 l 740 169 l 267 169 l 214 69 q 173 25 199 42 q 115 8 147 8 q 64 21 88 8 q 10 87 24 43 q 17 171 -4 131 l 400 913 q 440 956 414 940 q 497 972 465 972 q 556 957 529 972 q 596 914 582 942 l 990 172 m 964 97 q 958 156 974 126 l 565 897 q 538 927 556 917 q 499 938 519 938 q 458 926 476 936 q 431 896 440 915 l 47 156 q 43 98 33 128 q 81 53 53 68 q 138 48 107 39 q 183 85 168 57 l 240 194 q 256 204 246 204 l 750 204 q 767 194 760 204 l 825 85 q 869 47 838 56 q 928 53 901 39 q 964 97 956 68 m 907 128 q 900 104 914 114 q 886 103 893 101 q 876 111 879 104 l 796 263 l 208 263 l 131 113 q 115 103 126 103 q 107 104 110 103 q 99 114 100 107 q 100 128 97 121 l 482 869 q 499 879 489 879 l 499 879 q 514 869 510 879 l 907 128 m 778 297 l 499 824 l 226 297 l 778 297 m 560 1072 q 563 1058 564 1065 q 554 1049 561 1051 q 544 1046 549 1046 q 531 1054 535 1046 l 449 1185 q 454 1210 442 1200 q 479 1204 469 1217 l 560 1072 m 639 1122 q 653 1038 664 1083 q 603 968 642 993 q 575 956 590 961 q 544 951 560 951 q 490 966 515 951 q 450 1004 465 981 l 369 1136 q 356 1219 344 1176 q 406 1289 367 1265 q 464 1306 433 1306 q 558 1253 525 1306 l 639 1122 m 619 1046 q 610 1103 626 1078 l 529 1235 q 464 1271 507 1271 q 424 1260 443 1271 q 390 1213 397 1242 q 399 1154 382 1183 l 481 1024 q 527 990 496 997 q 585 999 558 982 q 619 1046 611 1014 z "},"":{"ha":1008,"x_min":-4,"x_max":1011,"o":"m 483 668 q 499 676 488 676 l 499 676 q 515 668 510 676 l 667 382 q 665 365 672 372 q 651 356 661 356 l 351 356 q 338 365 343 356 q 336 382 331 372 l 483 668 m 381 392 l 622 392 l 500 621 l 381 392 m 990 172 q 999 88 1011 132 q 943 22 983 43 q 892 8 921 8 q 858 14 874 8 q 793 68 815 26 l 740 169 l 267 169 l 214 69 q 173 25 199 42 q 115 8 147 8 q 64 21 88 8 q 10 87 24 43 q 17 171 -4 131 l 400 913 q 440 956 414 940 q 497 972 465 972 q 556 957 529 972 q 596 914 582 942 l 990 172 m 964 97 q 958 156 974 126 l 565 897 q 538 927 556 917 q 499 938 519 938 q 458 926 476 936 q 431 896 440 915 l 47 156 q 43 98 33 128 q 81 53 53 68 q 138 48 107 39 q 183 85 168 57 l 240 194 q 256 204 246 204 l 750 204 q 767 194 760 204 l 825 85 q 869 47 838 56 q 928 53 901 39 q 964 97 956 68 m 907 128 q 900 104 914 114 q 886 103 893 101 q 876 111 879 104 l 796 263 l 208 263 l 131 113 q 115 103 126 103 q 107 104 110 103 q 99 114 100 107 q 100 128 97 121 l 482 869 q 499 879 489 879 l 499 879 q 514 869 510 879 l 907 128 m 778 297 l 499 824 l 226 297 l 778 297 m 554 1210 q 560 1185 569 1200 l 479 1054 q 464 1046 474 1046 q 454 1049 458 1046 q 447 1058 447 1051 q 449 1072 446 1065 l 531 1204 q 540 1212 533 1211 q 554 1210 547 1213 m 603 1289 q 635 1258 622 1276 q 653 1219 649 1240 q 655 1177 658 1199 q 639 1136 651 1156 l 558 1004 q 518 966 543 981 q 464 951 493 951 q 434 956 449 951 q 406 968 419 961 q 356 1038 365 994 q 369 1122 346 1081 l 450 1253 q 544 1306 483 1306 q 603 1289 578 1306 m 610 1154 q 619 1213 626 1182 q 585 1260 613 1243 q 544 1271 565 1271 q 481 1235 503 1271 l 399 1103 q 390 1046 382 1075 q 424 999 397 1017 q 481 990 450 982 q 529 1024 513 997 l 610 1154 z "},"":{"ha":1008,"x_min":-4,"x_max":1011,"o":"m 483 668 q 499 676 488 676 l 499 676 q 515 668 510 676 l 667 382 q 665 365 672 372 q 651 356 661 356 l 351 356 q 338 365 343 356 q 336 382 331 372 l 483 668 m 381 392 l 622 392 l 500 621 l 381 392 m 990 172 q 999 88 1011 132 q 943 22 983 43 q 892 8 921 8 q 858 14 874 8 q 793 68 815 26 l 740 169 l 267 169 l 214 69 q 173 25 199 42 q 115 8 147 8 q 64 21 88 8 q 10 87 24 43 q 17 171 -4 131 l 400 913 q 440 956 414 940 q 497 972 465 972 q 556 957 529 972 q 596 914 582 942 l 990 172 m 964 97 q 958 156 974 126 l 565 897 q 538 927 556 917 q 499 938 519 938 q 458 926 476 936 q 431 896 440 915 l 47 156 q 43 98 33 128 q 81 53 53 68 q 138 48 107 39 q 183 85 168 57 l 240 194 q 256 204 246 204 l 750 204 q 767 194 760 204 l 825 85 q 869 47 838 56 q 928 53 901 39 q 964 97 956 68 m 907 128 q 900 104 914 114 q 886 103 893 101 q 876 111 879 104 l 796 263 l 208 263 l 131 113 q 115 103 126 103 q 107 104 110 103 q 99 114 100 107 q 100 128 97 121 l 482 869 q 499 879 489 879 l 499 879 q 514 869 510 879 l 907 128 m 778 297 l 499 824 l 226 297 l 778 297 m 681 1118 q 693 1035 704 1081 q 644 965 685 990 q 571 950 611 944 q 504 983 531 956 q 450 951 481 960 q 437 949 443 950 q 424 949 431 949 q 365 965 393 949 q 315 1035 326 989 q 329 1118 306 1078 l 410 1250 q 450 1288 425 1274 q 504 1303 475 1303 q 558 1288 533 1303 q 599 1250 583 1274 l 681 1118 m 625 996 q 660 1042 653 1011 q 650 1100 667 1072 l 569 1231 q 504 1267 547 1267 q 440 1231 461 1267 l 358 1100 q 350 1043 342 1071 q 383 996 357 1011 q 442 986 413 978 q 489 1019 471 993 q 504 1029 494 1029 q 513 1028 508 1029 q 519 1022 517 1026 q 568 987 538 994 q 625 996 599 979 m 600 1069 q 594 1044 610 1054 q 586 1043 592 1043 q 571 1051 575 1043 l 504 1158 l 439 1051 q 414 1044 429 1038 q 408 1069 400 1054 l 490 1200 q 504 1208 494 1208 q 519 1200 514 1208 l 600 1069 z "},"":{"ha":1008,"x_min":-4,"x_max":1011,"o":"m 483 668 q 499 676 488 676 l 499 676 q 515 668 510 676 l 667 382 q 665 365 672 372 q 651 356 661 356 l 351 356 q 338 365 343 356 q 336 382 331 372 l 483 668 m 381 392 l 622 392 l 500 621 l 381 392 m 990 172 q 999 88 1011 132 q 943 22 983 43 q 892 8 921 8 q 858 14 874 8 q 793 68 815 26 l 740 169 l 267 169 l 214 69 q 173 25 199 42 q 115 8 147 8 q 64 21 88 8 q 10 87 24 43 q 17 171 -4 131 l 400 913 q 440 956 414 940 q 497 972 465 972 q 556 957 529 972 q 596 914 582 942 l 990 172 m 964 97 q 958 156 974 126 l 565 897 q 538 927 556 917 q 499 938 519 938 q 458 926 476 936 q 431 896 440 915 l 47 156 q 43 98 33 128 q 81 53 53 68 q 138 48 107 39 q 183 85 168 57 l 240 194 q 256 204 246 204 l 750 204 q 767 194 760 204 l 825 85 q 869 47 838 56 q 928 53 901 39 q 964 97 956 68 m 907 128 q 900 104 914 114 q 886 103 893 101 q 876 111 879 104 l 796 263 l 208 263 l 131 113 q 115 103 126 103 q 107 104 110 103 q 99 114 100 107 q 100 128 97 121 l 482 869 q 499 879 489 879 l 499 879 q 514 869 510 879 l 907 128 m 778 297 l 499 824 l 226 297 l 778 297 m 476 1131 q 519 1152 497 1142 q 566 1165 542 1163 q 617 1158 590 1167 q 669 1122 643 1150 q 669 1097 682 1110 q 644 1097 657 1085 q 605 1125 624 1118 q 568 1130 586 1132 q 531 1119 550 1128 q 493 1100 513 1111 q 450 1078 472 1089 q 404 1068 428 1068 q 340 1097 369 1068 q 340 1122 328 1110 q 365 1122 353 1135 q 415 1105 389 1099 q 476 1131 440 1111 m 735 1189 q 768 1110 768 1158 q 735 1032 768 1064 q 656 1000 703 1000 q 578 1032 610 1000 q 574 1035 575 1035 q 556 1026 567 1032 q 539 1017 544 1021 q 481 990 515 1006 q 403 975 446 975 q 274 1032 331 975 q 242 1110 242 1064 q 274 1189 242 1157 q 342 1220 301 1217 q 414 1203 382 1224 q 424 1208 419 1206 q 433 1213 429 1210 q 495 1242 457 1226 q 581 1258 533 1258 q 735 1189 665 1258 m 710 1057 q 732 1110 732 1078 q 710 1164 732 1143 q 581 1224 651 1224 q 506 1209 540 1224 q 449 1182 472 1194 q 434 1174 442 1179 q 419 1167 426 1169 q 400 1169 410 1163 q 353 1186 382 1186 q 299 1164 324 1186 q 276 1110 276 1142 q 299 1057 276 1079 q 403 1010 346 1010 q 469 1024 439 1010 q 521 1049 500 1038 q 557 1066 544 1060 q 578 1071 569 1072 l 582 1071 l 583 1071 q 603 1057 589 1069 q 657 1035 625 1035 q 710 1057 689 1035 z "},"":{"ha":1008,"x_min":-4,"x_max":1011,"o":"m 483 668 q 499 676 488 676 l 499 676 q 515 668 510 676 l 667 382 q 665 365 672 372 q 651 356 661 356 l 351 356 q 338 365 343 356 q 336 382 331 372 l 483 668 m 381 392 l 622 392 l 500 621 l 381 392 m 990 172 q 999 88 1011 132 q 943 22 983 43 q 892 8 921 8 q 858 14 874 8 q 793 68 815 26 l 740 169 l 267 169 l 214 69 q 173 25 199 42 q 115 8 147 8 q 64 21 88 8 q 10 87 24 43 q 17 171 -4 131 l 400 913 q 440 956 414 940 q 497 972 465 972 q 556 957 529 972 q 596 914 582 942 l 990 172 m 964 97 q 958 156 974 126 l 565 897 q 538 927 556 917 q 499 938 519 938 q 458 926 476 936 q 431 896 440 915 l 47 156 q 43 98 33 128 q 81 53 53 68 q 138 48 107 39 q 183 85 168 57 l 240 194 q 256 204 246 204 l 750 204 q 767 194 760 204 l 825 85 q 869 47 838 56 q 928 53 901 39 q 964 97 956 68 m 907 128 q 900 104 914 114 q 886 103 893 101 q 876 111 879 104 l 796 263 l 208 263 l 131 113 q 115 103 126 103 q 107 104 110 103 q 99 114 100 107 q 100 128 97 121 l 482 869 q 499 879 489 879 l 499 879 q 514 869 510 879 l 907 128 m 778 297 l 499 824 l 226 297 l 778 297 m 451 1100 q 471 1096 461 1104 q 476 1083 476 1090 q 476 1080 476 1081 q 475 1076 475 1079 q 471 1071 474 1074 q 458 1065 465 1065 q 455 1066 456 1065 q 451 1067 454 1067 q 449 1069 450 1068 q 446 1071 447 1069 q 442 1076 443 1074 l 442 1083 q 446 1096 442 1092 q 449 1098 447 1097 q 451 1100 450 1099 m 551 1194 q 631 1162 599 1194 q 663 1083 663 1129 q 631 1005 663 1038 q 551 972 599 972 q 528 974 540 972 q 506 983 517 976 q 458 972 485 972 q 380 1005 413 972 q 347 1083 347 1038 q 380 1162 347 1129 q 458 1194 413 1194 q 506 1183 481 1194 q 551 1194 531 1194 m 551 1007 q 606 1029 583 1007 q 628 1083 628 1051 q 606 1138 628 1115 q 551 1160 583 1160 q 514 1149 533 1160 q 496 1149 506 1144 q 458 1160 478 1160 q 404 1138 426 1160 q 382 1083 382 1115 q 404 1029 382 1051 q 458 1007 426 1007 q 496 1018 478 1007 q 506 1021 501 1021 q 514 1018 508 1021 q 551 1007 533 1007 m 540 1096 q 552 1101 544 1101 q 565 1096 560 1101 q 569 1083 569 1092 q 565 1071 569 1075 q 562 1069 563 1069 q 558 1067 561 1068 q 556 1066 557 1067 q 551 1065 554 1065 q 549 1066 550 1065 q 546 1067 547 1067 q 540 1071 543 1068 q 535 1083 535 1075 q 540 1096 535 1092 z "},"":{"ha":1008,"x_min":-4,"x_max":1011,"o":"m 483 668 q 499 676 488 676 l 499 676 q 515 668 510 676 l 667 382 q 665 365 672 372 q 651 356 661 356 l 351 356 q 338 365 343 356 q 336 382 331 372 l 483 668 m 381 392 l 622 392 l 500 621 l 381 392 m 990 172 q 999 88 1011 132 q 943 22 983 43 q 892 8 921 8 q 858 14 874 8 q 793 68 815 26 l 740 169 l 267 169 l 214 69 q 173 25 199 42 q 115 8 147 8 q 64 21 88 8 q 10 87 24 43 q 17 171 -4 131 l 400 913 q 440 956 414 940 q 497 972 465 972 q 556 957 529 972 q 596 914 582 942 l 990 172 m 964 97 q 958 156 974 126 l 565 897 q 538 927 556 917 q 499 938 519 938 q 458 926 476 936 q 431 896 440 915 l 47 156 q 43 98 33 128 q 81 53 53 68 q 138 48 107 39 q 183 85 168 57 l 240 194 q 256 204 246 204 l 750 204 q 767 194 760 204 l 825 85 q 869 47 838 56 q 928 53 901 39 q 964 97 956 68 m 907 128 q 900 104 914 114 q 886 103 893 101 q 876 111 879 104 l 796 263 l 208 263 l 131 113 q 115 103 126 103 q 107 104 110 103 q 99 114 100 107 q 100 128 97 121 l 482 869 q 499 879 489 879 l 499 879 q 514 869 510 879 l 907 128 m 778 297 l 499 824 l 226 297 l 778 297 m 504 1301 q 573 1288 540 1301 q 629 1250 606 1274 q 667 1194 653 1226 q 681 1125 681 1161 q 667 1057 681 1089 q 629 1001 653 1025 q 573 963 606 976 q 504 949 540 949 q 436 963 468 949 q 380 1001 404 976 q 342 1057 356 1025 q 328 1125 328 1089 q 342 1194 328 1161 q 380 1250 356 1226 q 436 1288 404 1274 q 504 1301 468 1301 m 504 983 q 559 994 533 983 q 603 1025 585 1006 q 633 1070 622 1044 q 644 1125 644 1096 q 633 1180 644 1154 q 603 1224 622 1206 q 559 1254 585 1243 q 504 1265 533 1265 q 449 1254 475 1265 q 404 1224 424 1243 q 374 1180 385 1206 q 363 1125 363 1154 q 374 1070 363 1096 q 404 1025 385 1044 q 449 994 424 1006 q 504 983 475 983 m 504 1207 q 563 1183 539 1207 q 586 1125 586 1160 q 563 1067 586 1090 q 504 1043 539 1043 q 445 1067 469 1043 q 421 1125 421 1090 q 445 1183 421 1160 q 504 1207 469 1207 m 504 1078 q 538 1092 524 1078 q 551 1125 551 1106 q 538 1158 551 1144 q 504 1172 524 1172 q 471 1158 485 1172 q 457 1125 457 1144 q 471 1092 457 1106 q 504 1078 485 1078 z "},"":{"ha":1353,"x_min":3,"x_max":1329,"o":"m 1218 138 q 1236 119 1236 138 q 1218 103 1236 103 l 678 103 q 633 121 651 103 q 614 167 614 139 l 614 263 l 208 263 l 131 113 q 115 103 126 103 q 107 104 110 103 q 99 114 100 107 q 100 128 97 121 l 182 288 l 182 288 l 482 869 q 499 878 489 878 q 508 877 504 881 q 514 869 511 874 l 614 681 l 614 814 q 633 860 614 842 q 678 878 651 878 l 1218 878 q 1236 861 1236 878 q 1218 843 1236 843 l 678 843 q 658 835 667 843 q 649 814 649 826 l 649 508 l 951 508 q 969 490 969 508 q 951 474 969 474 l 649 474 l 649 167 q 658 146 649 154 q 678 138 667 138 l 1218 138 m 614 606 l 499 824 l 228 299 l 614 299 l 614 606 m 1218 231 q 1297 198 1264 231 q 1329 119 1329 165 q 1297 41 1329 74 q 1218 8 1264 8 l 679 8 q 617 21 646 8 q 567 55 589 33 q 533 105 546 76 q 521 167 521 133 l 521 169 l 267 169 l 214 69 q 173 25 199 42 q 115 8 147 8 q 64 21 89 8 q 29 49 43 32 q 9 86 15 65 q 5 128 3 107 q 17 171 7 150 l 400 913 q 440 956 414 940 q 497 972 465 972 q 579 936 546 972 q 678 972 622 972 l 1218 972 q 1297 940 1264 972 q 1329 861 1329 907 q 1297 783 1329 815 q 1218 750 1264 750 l 743 750 l 743 601 l 951 601 q 1030 569 997 601 q 1063 490 1063 536 q 1030 412 1063 444 q 951 379 997 379 l 743 379 l 743 231 l 1218 231 m 1218 44 q 1272 66 1250 44 q 1294 119 1294 88 q 1272 174 1294 151 q 1218 196 1250 196 l 725 196 q 708 214 708 196 l 708 397 q 725 414 708 414 l 951 414 q 1006 436 983 414 q 1028 490 1028 458 q 1006 544 1028 522 q 951 567 983 567 l 725 567 q 708 585 708 567 l 708 767 q 725 785 708 785 l 1218 785 q 1272 807 1250 785 q 1294 861 1294 829 q 1272 915 1294 893 q 1218 938 1250 938 l 678 938 q 589 899 625 938 q 575 893 583 890 q 563 901 567 893 q 499 938 538 938 q 458 926 476 936 q 431 896 440 915 l 47 154 q 43 97 33 126 q 81 53 53 68 q 138 47 108 38 q 183 85 168 57 l 240 194 q 256 204 244 204 l 538 204 q 556 186 556 204 l 556 167 q 592 80 556 115 q 678 44 628 44 l 1218 44 m 483 667 q 499 676 488 676 q 508 676 504 679 q 515 667 513 672 l 554 594 q 555 590 554 592 q 556 586 556 589 l 556 374 q 538 357 556 357 l 351 357 q 338 365 342 357 q 336 382 331 372 l 483 667 m 381 392 l 521 392 l 521 582 l 500 621 l 381 392 z "},"":{"ha":914,"x_min":28,"x_max":882,"o":"m 168 150 q 63 309 97 221 q 28 490 28 397 q 63 672 28 583 q 168 831 97 760 q 325 936 238 900 q 510 972 413 972 q 693 936 606 972 q 850 831 781 900 q 882 753 882 799 q 850 674 882 706 q 772 642 818 642 q 693 674 725 642 q 608 731 656 711 q 510 750 560 750 q 412 731 460 750 q 326 674 364 711 q 269 588 289 636 q 250 490 250 540 q 269 392 250 440 q 326 307 289 344 q 410 251 363 271 q 510 232 457 232 q 693 307 615 232 q 772 339 725 339 q 850 307 818 339 q 882 229 882 275 q 850 150 882 182 q 737 67 799 100 q 606 19 675 33 q 544 -75 594 -39 q 418 -111 493 -111 q 340 -78 372 -111 q 307 0 307 -46 q 314 39 307 18 q 310 53 311 47 q 235 94 271 71 q 168 150 200 118 m 193 807 q 95 659 128 742 q 63 490 63 576 q 95 322 63 404 q 193 175 128 240 q 307 92 242 126 q 324 84 315 88 q 342 76 333 81 l 342 76 q 349 46 342 63 q 350 36 351 40 q 349 31 350 32 q 342 0 342 14 q 364 -54 342 -32 q 418 -76 386 -76 q 515 -51 475 -76 q 568 14 556 -26 q 574 47 574 26 l 574 49 q 591 51 582 50 q 608 56 600 53 q 724 99 669 69 q 825 175 779 129 q 847 229 847 197 q 825 282 847 260 q 771 304 803 304 q 718 282 739 304 q 622 218 676 240 q 510 196 568 196 l 499 196 q 382 225 436 199 q 301 282 338 246 q 215 490 215 368 q 238 603 215 550 q 301 699 260 657 q 399 763 344 742 q 509 785 453 785 q 620 763 565 785 q 718 699 675 742 q 771 676 739 676 q 825 699 803 676 q 847 753 847 721 q 825 807 847 782 q 677 905 758 872 q 510 938 596 938 q 341 905 422 938 q 193 807 260 872 m 235 217 q 149 345 178 274 q 121 491 121 417 q 149 637 121 565 q 235 765 178 708 q 363 851 292 822 q 509 879 435 879 q 655 851 583 879 q 783 765 726 822 q 783 740 796 753 q 758 740 771 728 q 642 817 707 792 q 509 843 576 843 q 376 817 442 843 q 260 740 311 792 q 183 624 208 689 q 157 491 157 558 q 183 358 157 424 q 260 240 208 293 q 329 186 290 210 q 344 178 336 182 q 361 169 353 174 q 524 138 440 133 q 548 139 536 138 q 572 143 560 140 q 671 176 624 153 q 758 240 718 200 q 783 240 771 253 q 783 217 796 229 q 694 150 743 176 q 593 113 646 124 q 574 108 583 110 q 557 106 565 107 q 533 103 544 104 q 510 103 521 103 q 436 110 475 103 l 436 97 q 467 97 450 99 q 497 85 485 96 q 510 72 504 81 q 515 47 515 63 l 515 44 q 500 10 515 25 q 461 -12 485 -6 q 418 -18 438 -18 q 400 0 400 -18 q 418 18 400 18 l 419 18 q 432 19 422 18 q 451 22 442 19 q 469 31 461 25 q 479 46 478 36 l 479 47 q 476 57 479 54 q 452 63 469 64 q 422 60 435 63 q 407 63 413 57 q 400 76 400 67 l 400 118 q 344 139 372 126 q 328 147 336 143 q 313 156 321 151 q 235 217 271 181 z "},"":{"ha":894,"x_min":63,"x_max":871,"o":"m 760 44 q 814 66 792 44 q 836 119 836 88 q 814 174 836 151 q 760 196 792 196 l 267 196 q 250 214 250 196 l 250 397 q 267 414 250 414 l 494 414 q 548 436 526 414 q 569 490 569 458 q 548 544 569 522 q 494 567 526 567 l 267 567 q 250 583 250 567 l 250 768 q 267 785 250 785 l 760 785 q 814 807 792 785 q 836 861 836 829 q 814 915 836 893 q 760 938 792 938 l 221 938 q 133 901 169 938 q 97 814 97 865 l 97 167 q 133 80 97 115 q 221 44 169 44 l 760 44 m 760 232 q 838 199 806 232 q 871 119 871 167 q 838 41 871 74 q 760 8 806 8 l 221 8 q 159 21 188 8 q 109 55 131 33 q 75 105 88 76 q 63 167 63 133 l 63 814 q 75 876 63 847 q 109 926 88 904 q 159 960 131 947 q 221 972 188 972 l 760 972 q 838 940 806 972 q 871 861 871 907 q 838 783 871 815 q 760 750 806 750 l 285 750 l 285 601 l 494 601 q 573 569 540 601 q 606 490 606 536 q 573 412 606 444 q 494 379 540 379 l 285 379 l 285 232 l 760 232 m 760 138 q 778 119 778 138 q 760 103 778 103 l 221 103 q 174 122 193 103 q 156 167 156 140 l 156 814 q 174 860 156 842 q 221 879 193 879 l 760 879 q 778 861 778 879 q 760 843 778 843 l 221 843 q 200 835 208 843 q 192 814 192 826 l 192 508 l 494 508 q 511 490 511 508 q 494 474 511 474 l 192 474 l 192 167 q 200 146 192 154 q 221 138 208 138 l 760 138 m 503 1072 q 506 1058 507 1065 q 497 1049 504 1051 q 488 1046 492 1046 q 474 1054 478 1046 l 392 1185 q 397 1210 385 1200 q 422 1204 413 1217 l 503 1072 m 582 1122 q 596 1038 607 1083 q 546 968 585 993 q 518 956 533 961 q 488 951 503 951 q 433 966 458 951 q 393 1004 408 981 l 313 1136 q 299 1219 288 1176 q 349 1289 310 1265 q 407 1306 376 1306 q 501 1253 468 1306 l 582 1122 m 563 1046 q 553 1103 569 1078 l 472 1235 q 407 1271 450 1271 q 367 1260 386 1271 q 333 1213 340 1242 q 342 1154 325 1183 l 424 1024 q 470 990 439 997 q 528 999 501 982 q 563 1046 554 1014 z "},"":{"ha":894,"x_min":63,"x_max":871,"o":"m 760 44 q 814 66 792 44 q 836 119 836 88 q 814 174 836 151 q 760 196 792 196 l 267 196 q 250 214 250 196 l 250 397 q 267 414 250 414 l 494 414 q 548 436 526 414 q 569 490 569 458 q 548 544 569 522 q 494 567 526 567 l 267 567 q 250 583 250 567 l 250 768 q 267 785 250 785 l 760 785 q 814 807 792 785 q 836 861 836 829 q 814 915 836 893 q 760 938 792 938 l 221 938 q 133 901 169 938 q 97 814 97 865 l 97 167 q 133 80 97 115 q 221 44 169 44 l 760 44 m 760 232 q 838 199 806 232 q 871 119 871 167 q 838 41 871 74 q 760 8 806 8 l 221 8 q 159 21 188 8 q 109 55 131 33 q 75 105 88 76 q 63 167 63 133 l 63 814 q 75 876 63 847 q 109 926 88 904 q 159 960 131 947 q 221 972 188 972 l 760 972 q 838 940 806 972 q 871 861 871 907 q 838 783 871 815 q 760 750 806 750 l 285 750 l 285 601 l 494 601 q 573 569 540 601 q 606 490 606 536 q 573 412 606 444 q 494 379 540 379 l 285 379 l 285 232 l 760 232 m 760 138 q 778 119 778 138 q 760 103 778 103 l 221 103 q 174 122 193 103 q 156 167 156 140 l 156 814 q 174 860 156 842 q 221 879 193 879 l 760 879 q 778 861 778 879 q 760 843 778 843 l 221 843 q 200 835 208 843 q 192 814 192 826 l 192 508 l 494 508 q 511 490 511 508 q 494 474 511 474 l 192 474 l 192 167 q 200 146 192 154 q 221 138 208 138 l 760 138 m 497 1210 q 503 1185 513 1200 l 422 1054 q 407 1046 417 1046 q 397 1049 401 1046 q 390 1058 390 1051 q 392 1072 389 1065 l 474 1204 q 483 1212 476 1211 q 497 1210 490 1213 m 546 1289 q 578 1258 565 1276 q 597 1219 592 1240 q 598 1177 601 1199 q 582 1136 594 1156 l 501 1004 q 461 966 486 981 q 407 951 436 951 q 377 956 392 951 q 349 968 363 961 q 299 1038 308 994 q 313 1122 289 1081 l 393 1253 q 488 1306 426 1306 q 546 1289 521 1306 m 553 1154 q 563 1213 569 1182 q 528 1260 556 1243 q 488 1271 508 1271 q 424 1235 446 1271 l 342 1103 q 333 1046 325 1075 q 367 999 340 1017 q 424 990 393 982 q 472 1024 456 997 l 553 1154 z "},"":{"ha":894,"x_min":63,"x_max":871,"o":"m 760 44 q 814 66 792 44 q 836 119 836 88 q 814 174 836 151 q 760 196 792 196 l 267 196 q 250 214 250 196 l 250 397 q 267 414 250 414 l 494 414 q 548 436 526 414 q 569 490 569 458 q 548 544 569 522 q 494 567 526 567 l 267 567 q 250 583 250 567 l 250 768 q 267 785 250 785 l 760 785 q 814 807 792 785 q 836 861 836 829 q 814 915 836 893 q 760 938 792 938 l 221 938 q 133 901 169 938 q 97 814 97 865 l 97 167 q 133 80 97 115 q 221 44 169 44 l 760 44 m 760 232 q 838 199 806 232 q 871 119 871 167 q 838 41 871 74 q 760 8 806 8 l 221 8 q 159 21 188 8 q 109 55 131 33 q 75 105 88 76 q 63 167 63 133 l 63 814 q 75 876 63 847 q 109 926 88 904 q 159 960 131 947 q 221 972 188 972 l 760 972 q 838 940 806 972 q 871 861 871 907 q 838 783 871 815 q 760 750 806 750 l 285 750 l 285 601 l 494 601 q 573 569 540 601 q 606 490 606 536 q 573 412 606 444 q 494 379 540 379 l 285 379 l 285 232 l 760 232 m 760 138 q 778 119 778 138 q 760 103 778 103 l 221 103 q 174 122 193 103 q 156 167 156 140 l 156 814 q 174 860 156 842 q 221 879 193 879 l 760 879 q 778 861 778 879 q 760 843 778 843 l 221 843 q 200 835 208 843 q 192 814 192 826 l 192 508 l 494 508 q 511 490 511 508 q 494 474 511 474 l 192 474 l 192 167 q 200 146 192 154 q 221 138 208 138 l 760 138 m 624 1118 q 636 1035 647 1081 q 588 965 628 990 q 514 950 554 944 q 447 983 474 956 q 393 951 424 960 q 380 949 386 950 q 367 949 374 949 q 308 965 336 949 q 258 1035 269 989 q 272 1118 249 1078 l 353 1250 q 393 1288 368 1274 q 447 1303 418 1303 q 501 1288 476 1303 q 542 1250 526 1274 l 624 1118 m 568 996 q 603 1042 596 1011 q 593 1100 610 1072 l 513 1231 q 447 1267 490 1267 q 383 1231 404 1267 l 301 1100 q 293 1043 285 1071 q 326 996 300 1011 q 385 986 356 978 q 432 1019 414 993 q 447 1029 438 1029 q 456 1028 451 1029 q 463 1022 460 1026 q 511 987 481 994 q 568 996 542 979 m 543 1069 q 538 1044 553 1054 q 529 1043 535 1043 q 514 1051 518 1043 l 447 1158 l 382 1051 q 357 1044 372 1038 q 351 1069 343 1054 l 433 1200 q 447 1208 438 1208 q 463 1200 457 1208 l 543 1069 z "}}}
